%TF.GenerationSoftware,KiCad,Pcbnew,10.0.6-10.0.6~ubuntu24.04.1*%
%TF.CreationDate,2026-09-02T19:04:24+00:00*%
%TF.ProjectId,stator,73746174-6f72-42e6-9b69-6361645f7063,rev?*%
%TF.SameCoordinates,Original*%
%TF.FileFunction,Copper,L9,Inr*%
%TF.FilePolarity,Positive*%
%FSLAX46Y46*%
G04 Gerber Fmt 4.6, Leading zero omitted, Abs format (unit mm)*
G04 Created by KiCad (PCBNEW 10.0.6-10.0.6~ubuntu24.04.1) date 2026-09-02 19:04:24*
%MOMM*%
%LPD*%
G01*
G04 APERTURE LIST*
%TA.AperFunction,ComponentPad*%
%ADD10C,2.000000*%
%TD*%
%TA.AperFunction,ViaPad*%
%ADD11C,0.600000*%
%TD*%
%TA.AperFunction,Conductor*%
%ADD12C,0.280000*%
%TD*%
%TA.AperFunction,Conductor*%
%ADD13C,0.400000*%
%TD*%
%TA.AperFunction,Conductor*%
%ADD14C,0.700000*%
%TD*%
G04 APERTURE END LIST*
D10*
%TO.N,N/C*%
%TO.C,J1*%
X3154915Y90344931D03*
X-79818462Y-42440229D03*
X76663548Y-47904701D03*
%TD*%
D11*
%TO.N,*%
X-44223788Y52703858D03*
X35547866Y-77539920D03*
X84925474Y-7984605D03*
X77539920Y-35547866D03*
X-64650852Y23530986D03*
X48472480Y-70189092D03*
X21543148Y82534737D03*
X-22610455Y82248753D03*
X-84925474Y-7984605D03*
X-59582548Y34400000D03*
X84925474Y7984605D03*
X7984605Y84925474D03*
X77072945Y36549297D03*
X23530986Y-64650852D03*
X82534737Y21543148D03*
X-7984605Y84925474D03*
X-23530986Y-64650852D03*
X-7984605Y-84925474D03*
X-44223788Y-52703858D03*
X-59582548Y-34400000D03*
X-82248753Y-22610455D03*
X22610455Y82248753D03*
X69555315Y49377608D03*
X48472480Y70189092D03*
X-36549297Y-77072945D03*
X59582548Y-34400000D03*
X70189092Y-48472480D03*
X-70189092Y-48472480D03*
X-34400000Y59582548D03*
X82534737Y-21543148D03*
X52703858Y44223788D03*
X59924282Y60705605D03*
X44223788Y52703858D03*
X-85021777Y6883853D03*
X82248753Y-22610455D03*
X-36549297Y77072945D03*
X36549297Y-77072945D03*
X-77072945Y36549297D03*
X11946995Y-67754773D03*
X-6883853Y85021777D03*
X34400000Y-59582548D03*
X-52703858Y44223788D03*
X59582548Y34400000D03*
X-85021777Y-6883853D03*
X60705605Y-59924282D03*
X-48472480Y-70189092D03*
X-60705605Y59924282D03*
X-21543148Y-82534737D03*
X-35547866Y77539920D03*
X67754773Y11946995D03*
X-34400000Y-59582548D03*
X11946995Y67754773D03*
X-6883853Y-85021777D03*
X-21543148Y82534737D03*
X23530986Y64650852D03*
X-23530986Y64650852D03*
X-67754773Y-11946995D03*
X77072945Y-36549297D03*
X-82534737Y-21543148D03*
X-35547866Y-77539920D03*
X-59924282Y60705605D03*
X-77539920Y35547866D03*
X-60705605Y-59924282D03*
X-11946995Y67754773D03*
X49377608Y69555315D03*
X-68800000Y0D03*
X64650852Y-23530986D03*
X-48472480Y70189092D03*
X52703858Y-44223788D03*
X34400000Y59582548D03*
X-11946995Y-67754773D03*
X-77072945Y-36549297D03*
X-49377608Y-69555315D03*
X0Y-68800000D03*
X49377608Y-69555315D03*
X60705605Y59924282D03*
X-52703858Y-44223788D03*
X6883853Y-85021777D03*
X-82534737Y21543148D03*
X64650852Y23530986D03*
X22610455Y-82248753D03*
X-59924282Y-60705605D03*
X-49377608Y69555315D03*
X85021777Y-6883853D03*
X70189092Y48472480D03*
X-69555315Y-49377608D03*
X82248753Y22610455D03*
X77539920Y35547866D03*
X7984605Y-84925474D03*
X-70189092Y48472480D03*
X85021777Y6883853D03*
X21543148Y-82534737D03*
X69555315Y-49377608D03*
X-22610455Y-82248753D03*
X-67754773Y11946995D03*
X67754773Y-11946995D03*
X-64650852Y-23530986D03*
X6883853Y85021777D03*
X0Y68800000D03*
X44223788Y-52703858D03*
X-84925474Y7984605D03*
X68800000Y0D03*
X-77539920Y-35547866D03*
X59924282Y-60705605D03*
X36549297Y77072945D03*
X-82248753Y22610455D03*
X-69555315Y49377608D03*
X35547866Y77539920D03*
%TD*%
%TO.N,*%
D12*
X-78971413Y-23696380D02*
X-52584354Y-16625528D01*
X20022559Y80868122D02*
X12509658Y52829088D01*
X-63651193Y-49657412D02*
X-44070328Y-35944445D01*
X-37196751Y41875074D02*
X-54684220Y59971507D01*
X12202202Y-53342147D02*
X18964040Y-80239440D01*
X14006966Y51115603D02*
X22489097Y81109984D01*
X59608726Y60032989D02*
X59924282Y60705605D01*
X29823845Y-45364549D02*
X45869373Y-69029668D01*
X49374414Y-65493875D02*
X34194692Y-43816201D01*
X-60015819Y57159390D02*
X-40094553Y37238491D01*
X-78953982Y16840474D02*
X-55862903Y10655186D01*
X-3537623Y53743696D02*
X-5675769Y83116435D01*
X-29478487Y47118523D02*
X-44048947Y68677641D01*
X80239440Y-18964040D02*
X53852151Y-11894048D01*
X44774594Y29935519D02*
X69143059Y46473578D01*
X60032989Y-59608726D02*
X60705605Y-59924282D01*
X54672472Y-7241771D02*
X81406566Y-10012559D01*
X33607794Y43726864D02*
X49374414Y65493875D01*
X-54863253Y-11275795D02*
X-79278959Y-17372170D01*
X69029668Y-45869373D02*
X45951823Y-29710408D01*
X-45869373Y-69029668D02*
X-29710408Y-45951823D01*
X43903179Y-34779749D02*
X64267387Y-49564590D01*
X49277127Y-66104215D02*
X33607794Y-43726864D01*
X80439485Y10790501D02*
X55776106Y8631316D01*
X80868122Y-20022559D02*
X52829088Y-12509658D01*
X-81406566Y-10012559D02*
X-55043289Y-7705371D01*
X7672187Y-84251395D02*
X4918037Y-52771327D01*
X25504126Y48898487D02*
X37251413Y73072653D01*
X43726864Y-33607794D02*
X65493875Y-49374414D01*
X49275631Y-26627660D02*
X71897822Y-37651678D01*
X-1969857Y55545081D02*
X-3808686Y81501055D01*
X21916802Y-48728007D02*
X34335374Y-76377154D01*
X-5848616Y-53541510D02*
X-8843476Y-82839296D01*
X24892713Y-76796391D02*
X18703790Y-53706286D01*
X20848597Y-51521572D02*
X31453997Y-75283293D01*
X47118523Y29478487D02*
X68677641Y44048947D01*
X-56864473Y-792818D02*
X-80263913Y-2407136D01*
X-792818Y56864473D02*
X-2407136Y80263913D01*
X-76546371Y-36025172D02*
X-77072945Y-36549297D01*
X55925099Y59997197D02*
X37212688Y41283801D01*
X15057148Y51712493D02*
X23094017Y80045128D01*
X-52006161Y15580863D02*
X-79509393Y23395529D01*
X5675769Y83116435D02*
X3145933Y54198775D01*
X41283801Y37212688D02*
X59985254Y55305491D01*
X47906758Y-22670300D02*
X75972550Y-36232038D01*
X-14006966Y-51115603D02*
X-22489097Y-81109984D01*
X48849670Y29118837D02*
X68307019Y42216598D01*
D13*
X-77539920Y35547866D02*
X-80812414Y37048128D01*
D12*
X-1185232Y56427554D02*
X-2874414Y80678812D01*
X-2362023Y55099395D02*
X-4275656Y81908480D01*
X81406566Y10012559D02*
X55043289Y7705371D01*
X-60032989Y59608726D02*
X-37688190Y37263928D01*
X-4320324Y52823620D02*
X-6608410Y83910177D01*
X30045366Y-44181907D02*
X47076497Y-69254538D01*
X81886493Y9623137D02*
X54672472Y7241771D01*
X17146476Y52869034D02*
X24296008Y77888588D01*
X-66104215Y-49277127D02*
X-43726864Y-33607794D01*
X-41875074Y-37196751D02*
X-59971507Y-54684220D01*
X21064678Y-50968636D02*
X32032153Y-75506434D01*
X66104215Y49277127D02*
X43726864Y33607794D01*
X40150000Y-69541840D02*
X34400000Y-59582548D01*
D13*
X7984605Y-84925474D02*
X8321587Y-88509667D01*
D12*
X-81179089Y20550989D02*
X-52312906Y12816373D01*
X-44657067Y-68796997D02*
X-29478487Y-47118523D01*
X-23239970Y-48111004D02*
X-36437941Y-75396711D01*
X-19493575Y-80554919D02*
X-12202202Y-53342147D01*
X-73656827Y-37049620D02*
X-48898487Y-25504126D01*
X-42828721Y-68432693D02*
X-29118837Y-48849670D01*
X-60007373Y56543060D02*
X-40690307Y37226623D01*
X82839296Y8843476D02*
X53921659Y6313379D01*
X52823620Y4320324D02*
X83910177Y6608410D01*
X37261017Y-38293361D02*
X58387223Y-60027658D01*
X-43903179Y34779749D02*
X-64267387Y49564590D01*
X13122307Y-51793532D02*
X20550989Y-81179089D01*
X-51115603Y14006966D02*
X-81109984Y22489097D01*
X84303688Y-7074472D02*
X52823620Y-4320324D01*
X53285337Y3929097D02*
X83514438Y6142173D01*
X-79601500Y17903333D02*
X-54863253Y11275795D01*
X-53342147Y-12202202D02*
X-80239440Y-18964040D01*
X20193801Y-53163966D02*
X29713843Y-74600117D01*
X-49292616Y-21705705D02*
X-76162673Y-33760973D01*
X-55925099Y-59997197D02*
X-37212688Y-41283801D01*
X-54672472Y7241771D02*
X-81406566Y10012559D01*
X-30045366Y44181907D02*
X-47076497Y69254538D01*
X6313379Y53921659D02*
X9233437Y82364058D01*
X52312906Y12816373D02*
X80868122Y20022559D01*
X-3808686Y-81501055D02*
X-1577586Y-55987778D01*
X3537623Y-53743696D02*
X5675769Y-83116435D01*
X4742501Y82313493D02*
X2362023Y55099395D01*
X-65493875Y-49374414D02*
X-43816201Y-34194692D01*
X-10965768Y55364479D02*
X-16840474Y78953982D01*
X40150000Y69541840D02*
X34400000Y59582548D01*
X-47678139Y-69364140D02*
X-30045366Y-44181907D01*
X-76796391Y-24892713D02*
X-53706286Y-18703790D01*
X-38293361Y-37261017D02*
X-60027658Y-58387223D01*
X31241291Y43344511D02*
X48976868Y67923884D01*
X-43439501Y-68556220D02*
X-29240218Y-48275079D01*
X-3145933Y54198775D02*
X-5209209Y82716132D01*
X-74238876Y-36846759D02*
X-48705880Y-24940242D01*
X-46473578Y-69143059D02*
X-29823845Y-45364549D01*
X53150868Y-17666502D02*
X77343677Y-24594739D01*
X68526729Y48874086D02*
X43344511Y31241291D01*
X-57159390Y-60015819D02*
X-37238491Y-40094553D01*
X-57774106Y-60022569D02*
X-37248225Y-39496504D01*
X81487855Y-21078863D02*
X51793532Y-13122307D01*
X-22185731Y81639166D02*
X-22610455Y82248753D01*
X-44070328Y35944445D02*
X-63033002Y49748675D01*
X-54650650Y-2754057D02*
X-82313493Y-4742501D01*
X-68914326Y45263873D02*
X-46536465Y29595269D01*
X68796997Y-44657067D02*
X47118523Y-29478487D01*
X-32609366Y-75727351D02*
X-21064678Y-50968636D01*
X-82364058Y-9233437D02*
X-54298621Y-6777769D01*
X13943949Y-79080063D02*
X11946995Y-67754773D01*
X53921659Y-6313379D02*
X82364058Y-9233437D01*
X-29823845Y45364549D02*
X-45869373Y69029668D01*
X56543060Y60007373D02*
X37226623Y40690307D01*
X18703790Y53706286D02*
X25189907Y76246696D01*
X-84303688Y7074472D02*
X-52823620Y4320324D01*
X27745636Y49642488D02*
X38047315Y70714156D01*
X-6608410Y-83910177D02*
X-3929097Y-53285337D01*
X82716132Y-5209209D02*
X54650650Y-2754057D01*
X-54684220Y-59971507D02*
X-37178873Y-42464162D01*
X2874414Y80678812D02*
X792818Y56864473D01*
X37248225Y-39496504D02*
X57159390Y-60015819D01*
X81794457Y-21606176D02*
X51270894Y-13427413D01*
X-48275079Y-29240218D02*
X-68432693Y-42828721D01*
X82313493Y-4742501D02*
X55099395Y-2362023D01*
X-52584354Y16625528D02*
X-78431155Y23996547D01*
X30644808Y43242291D02*
X48874086Y68526729D01*
X-53158093Y5383496D02*
X-83312243Y8453271D01*
X-51712493Y15057148D02*
X-80045128Y23094017D01*
X-48874086Y68526729D02*
X-31241291Y43344511D01*
X49854216Y21493283D02*
X75946085Y33185638D01*
X-84251395Y-7672187D02*
X-84925474Y-7984605D01*
X-10655186Y55862903D02*
X-16308249Y78626529D01*
X-18433958Y-79921647D02*
X-11585233Y-54359165D01*
X-82839296Y-8843476D02*
X-53921659Y-6313379D01*
X-24296008Y77888588D02*
X-17666502Y53150868D01*
X68914326Y-45263873D02*
X46536465Y-29595269D01*
X-69127755Y-48770007D02*
X-43242291Y-30644808D01*
X-30874895Y-75057888D02*
X-20413114Y-52619183D01*
X27464218Y-75457317D02*
X23530986Y-64650852D01*
X-51415668Y14532515D02*
X-80578648Y22791866D01*
X24940242Y48705880D02*
X37049620Y73656827D01*
X60015819Y-57159390D02*
X40094553Y-37238491D01*
X8843476Y-82839296D02*
X6313379Y-53921659D01*
X-54061269Y-59955918D02*
X-37159113Y-43051100D01*
X44070328Y-35944445D02*
X63033002Y-49748675D01*
X54684220Y59971507D02*
X37178873Y42464162D01*
X-21705705Y49292616D02*
X-33760973Y76162673D01*
X-64267387Y-49564590D02*
X-43987866Y-35362992D01*
X45263873Y68914326D02*
X29595269Y46536465D01*
X24374930Y48510482D02*
X36846759Y74238876D01*
X51115603Y-14006966D02*
X81109984Y-22489097D01*
X55776106Y-8631316D02*
X79952256Y-11178984D01*
X54061269Y59955918D02*
X37159113Y43051100D01*
X18964040Y80239440D02*
X11894048Y53852151D01*
X-74830177Y30294844D02*
X-53163966Y20193801D01*
X55364479Y10965768D02*
X78953982Y16840474D01*
X79921647Y-18433958D02*
X54359165Y-11585233D01*
X-27187336Y-49460311D02*
X-37850090Y-71307107D01*
X-81794457Y21606176D02*
X-51270894Y13427413D01*
X-69471900Y48278516D02*
X-43586435Y30153320D01*
X53158093Y-5383496D02*
X83312243Y-8453271D01*
X-21064678Y50968636D02*
X-32032153Y75506434D01*
X-27745636Y-49642488D02*
X-38047315Y-70714156D01*
X-43242291Y30644808D02*
X-68526729Y48874086D01*
X-34335374Y-76377154D02*
X-21705705Y-49292616D01*
X-83910177Y6608410D02*
X-53285337Y3929097D01*
X-8453271Y83312243D02*
X-5848616Y53541510D01*
X-17903333Y-79601500D02*
X-11275795Y-54863253D01*
X-22126518Y48160328D02*
X-34908845Y76589565D01*
X-30294844Y-74830177D02*
X-20193801Y-53163966D01*
X-41283801Y-37212688D02*
X-59985254Y-55305491D01*
X-37238491Y40094553D02*
X-56543060Y60007373D01*
X-17666502Y-53150868D02*
X-24594739Y-77343677D01*
X27464218Y75457317D02*
X23530986Y64650852D01*
X37651678Y-71897822D02*
X27187336Y-49460311D01*
X48275079Y29240218D02*
X68432693Y42828721D01*
X-54198775Y-3145933D02*
X-82716132Y-5209209D01*
X81179089Y-20550989D02*
X52312906Y-12816373D01*
X-44181907Y-30045366D02*
X-69254538Y-47076497D01*
X-50412870Y-21279590D02*
X-75727351Y-32609366D01*
X13943949Y79080063D02*
X11946995Y67754773D01*
X-68526729Y-48874086D02*
X-43344511Y-31241291D01*
X79080063Y-13943949D02*
X67754773Y-11946995D01*
X-76799942Y35481388D02*
X-77539920Y35547866D01*
X-81794457Y21606176D02*
X-82534737Y21543148D01*
X37196751Y-41875074D02*
X54684220Y-59971507D01*
X-52619183Y-20413114D02*
X-74830177Y-30294844D01*
X-47698045Y-29360119D02*
X-68556220Y-43439501D01*
X-34908845Y-76589565D02*
X-21916802Y-48728007D01*
X-34779749Y-43903179D02*
X-49564590Y-64267387D01*
X48770007Y-69127755D02*
X30644808Y-43242291D01*
X29595269Y-46536465D02*
X44657067Y-68796997D01*
X-67923884Y-48976868D02*
X-43444000Y-31835805D01*
X30874895Y75057888D02*
X20413114Y52619183D01*
X-35481388Y-76799942D02*
X-35547866Y-77539920D01*
X-48770007Y69127755D02*
X-49377608Y69555315D01*
X-52071736Y-20631394D02*
X-75057888Y-30874895D01*
X-35481388Y-76799942D02*
X-22126518Y-48160328D01*
X-37651678Y71897822D02*
X-27187336Y49460311D01*
X48874086Y-68526729D02*
X31241291Y-43344511D01*
X10790501Y-80439485D02*
X8631316Y-55776106D01*
X-49374414Y65493875D02*
X-34194692Y43816201D01*
X-75727351Y32609366D02*
X-50968636Y21064678D01*
X-33607794Y-43726864D02*
X-49374414Y-65493875D01*
X-53163966Y-20193801D02*
X-74600117Y-29713843D01*
X-8168557Y-55411143D02*
X-10790501Y-80439485D01*
X53541510Y-5848616D02*
X82839296Y-8843476D01*
X-61513369Y51615845D02*
X-52703858Y44223788D01*
X83910177Y-6608410D02*
X53285337Y-3929097D01*
X-30644808Y-43242291D02*
X-48874086Y-68526729D01*
X-24940242Y-48705880D02*
X-37049620Y-73656827D01*
X80924243Y10401686D02*
X55411143Y8168557D01*
X76546371Y36025172D02*
X47906758Y22670300D01*
X-79080063Y-13943949D02*
X-67754773Y-11946995D01*
X-20022559Y-80868122D02*
X-12509658Y-52829088D01*
X21606176Y81794457D02*
X13427413Y51270894D01*
X-10401686Y80924243D02*
X-8168557Y55411143D01*
X74830177Y-30294844D02*
X53163966Y-20193801D01*
X-48976868Y67923884D02*
X-31835805Y43444000D01*
X42828721Y68432693D02*
X29118837Y48849670D01*
X69364140Y-47678139D02*
X44181907Y-30045366D01*
X79080063Y13943949D02*
X67754773Y11946995D01*
X-12202202Y53342147D02*
X-18964040Y80239440D01*
X68432693Y-42828721D02*
X48849670Y-29118837D01*
X49564590Y-64267387D02*
X35362992Y-43987866D01*
X-77888588Y-24296008D02*
X-53150868Y-17666502D01*
X16625528Y52584354D02*
X23996547Y78431155D01*
X-27464218Y-75457317D02*
X-23530986Y-64650852D01*
X7705371Y55043289D02*
X10401686Y80924243D01*
X60007373Y-56543060D02*
X40690307Y-37226623D01*
X-68556220Y43439501D02*
X-48275079Y29240218D01*
X18433958Y79921647D02*
X11585233Y54359165D01*
X-37248225Y39496504D02*
X-57159390Y60015819D01*
X-1577586Y55987778D02*
X-3341601Y81091179D01*
X-27464218Y75457317D02*
X-23530986Y64650852D01*
X-55099395Y-2362023D02*
X-81908480Y-4275656D01*
X-79952256Y-11178984D02*
X-56138246Y-9093639D01*
X-47118523Y-29478487D02*
X-68677641Y-44048947D01*
X-39496504Y-37248225D02*
X-60015819Y-57159390D01*
X37251413Y-73072653D02*
X26066594Y-49088380D01*
X17903333Y79601500D02*
X11275795Y54863253D01*
X-69127755Y-48770007D02*
X-69555315Y-49377608D01*
X30294844Y74830177D02*
X20193801Y53163966D01*
X68677641Y-44048947D02*
X47698045Y-29360119D01*
X14532515Y51415668D02*
X22791866Y80578648D01*
X-22489097Y81109984D02*
X-14532515Y51415668D01*
X8168557Y55411143D02*
X10790501Y80439485D01*
X-75057888Y30874895D02*
X-52619183Y20413114D01*
X1577586Y-55987778D02*
X3341601Y-81091179D01*
X-36437941Y75396711D02*
X-23808176Y48312217D01*
X-23696380Y78971413D02*
X-16625528Y52584354D01*
X-75283293Y31453997D02*
X-52071736Y20631394D01*
X40094553Y37238491D02*
X60007373Y56543060D01*
X64881607Y49470246D02*
X43903179Y34779749D01*
X53706286Y-18703790D02*
X76246696Y-25189907D01*
X-80439485Y-10790501D02*
X-55776106Y-8631316D01*
X-7074472Y-84303688D02*
X-6883853Y-85021777D01*
X29118837Y-48849670D02*
X42216598Y-68307019D01*
X8631316Y55776106D02*
X11178984Y79952256D01*
X27187336Y49460311D02*
X37850090Y71307107D01*
X40690307Y37226623D02*
X59997197Y55925099D01*
X20413114Y-52619183D02*
X30294844Y-74830177D01*
X52071736Y20631394D02*
X75057888Y30874895D01*
X13427413Y-51270894D02*
X21078863Y-81487855D01*
X-75946085Y33185638D02*
X-50412870Y21279590D01*
X-68796997Y44657067D02*
X-47118523Y29478487D01*
X17372170Y79278959D02*
X10965768Y55364479D01*
X83116435Y-5675769D02*
X54198775Y-3145933D01*
X-80554919Y19493575D02*
X-53342147Y12202202D01*
X6142173Y83514438D02*
X3537623Y53743696D01*
X54198775Y3145933D02*
X82716132Y5209209D01*
X-80678812Y2874414D02*
X-56864473Y792818D01*
X-78431155Y-23996547D02*
X-52869034Y-17146476D01*
X75727351Y-32609366D02*
X50968636Y-21064678D01*
X51521572Y20848597D02*
X75283293Y31453997D01*
X-37850090Y71307107D02*
X-27745636Y49642488D01*
X48770007Y-69127755D02*
X49377608Y-69555315D01*
X-2754057Y54650650D02*
X-4742501Y82313493D01*
X55545081Y1969857D02*
X81501055Y3808686D01*
X-51270894Y-13427413D02*
X-81487855Y-21078863D01*
X10012559Y-81406566D02*
X7705371Y-55043289D01*
X-80578648Y-22791866D02*
X-51712493Y-15057148D01*
X-49470246Y64881607D02*
X-34779749Y43903179D01*
X43439501Y68556220D02*
X29240218Y48275079D01*
X44048947Y68677641D02*
X29360119Y47698045D01*
X43344511Y-31241291D02*
X67923884Y-48976868D01*
X37159113Y-43051100D02*
X53436622Y-59938447D01*
X48278516Y69471900D02*
X48472480Y70189092D01*
X49460311Y-27187336D02*
X71307107Y-37850090D01*
X-43444000Y31835805D02*
X-67319197Y49078323D01*
X-49277127Y66104215D02*
X-33607794Y43726864D01*
X-15580863Y-52006161D02*
X-23395529Y-79509393D01*
X29710408Y-45951823D02*
X45263873Y-68914326D01*
X-29710408Y45951823D02*
X-45263873Y68914326D01*
X-4742501Y-82313493D02*
X-2362023Y-55099395D01*
X11178984Y-79952256D02*
X9093639Y-56138246D01*
X-81091179Y3341601D02*
X-56427554Y1185232D01*
X80300000Y0D02*
X68800000Y0D01*
X-20848597Y51521572D02*
X-31453997Y75283293D01*
X53342147Y12202202D02*
X80239440Y18964040D01*
X-81639166Y-22185731D02*
X-82248753Y-22610455D01*
X41875074Y37196751D02*
X59971507Y54684220D01*
D13*
X69555315Y49377608D02*
X72490827Y51461539D01*
D12*
X26066594Y49088380D02*
X37452109Y72486327D01*
X-59985254Y55305491D02*
X-41875074Y37196751D01*
X-18703790Y-53706286D02*
X-25189907Y-76246696D01*
X36642857Y-74818829D02*
X24374930Y-48510482D01*
X31835805Y43444000D02*
X49078323Y67319197D01*
X-43987866Y35362992D02*
X-63651193Y49657412D01*
X-44774594Y-29935519D02*
X-69143059Y-46473578D01*
X-7705371Y-55043289D02*
X-10401686Y-80924243D01*
X-56427554Y-1185232D02*
X-80678812Y-2874414D01*
X30153320Y-43586435D02*
X47678139Y-69364140D01*
X-12509658Y52829088D02*
X-19493575Y80554919D01*
X45869373Y69029668D02*
X29710408Y45951823D01*
X-55545081Y-1969857D02*
X-81501055Y-3808686D01*
X46473578Y69143059D02*
X29823845Y45364549D01*
X81109984Y22489097D02*
X51415668Y14532515D01*
X7241771Y54672472D02*
X10012559Y81406566D01*
X23808176Y48312217D02*
X36642857Y74818829D01*
X-11894048Y53852151D02*
X-18433958Y79921647D01*
X75283293Y-31453997D02*
X52071736Y-20631394D01*
X-20413114Y52619183D02*
X-30294844Y74830177D01*
X75057888Y-30874895D02*
X52619183Y-20413114D01*
X57774106Y60022569D02*
X37248225Y39496504D01*
X-55364479Y-10965768D02*
X-78953982Y-16840474D01*
X-14532515Y-51415668D02*
X-22791866Y-80578648D01*
X-69471900Y48278516D02*
X-70189092Y48472480D01*
X81501055Y-3808686D02*
X55987778Y-1577586D01*
X81794457Y-21606176D02*
X82534737Y-21543148D01*
X-83782931Y-8062836D02*
X-53158093Y-5383496D01*
X-75396711Y-36437941D02*
X-48312217Y-23808176D01*
X53852151Y11894048D02*
X79921647Y18433958D01*
X-46536465Y-29595269D02*
X-68796997Y-44657067D01*
X33185638Y75946085D02*
X21279590Y50412870D01*
X-29360119Y47698045D02*
X-43439501Y68556220D01*
X-13943949Y79080063D02*
X-11946995Y67754773D01*
X-43635101Y33019031D02*
X-66104215Y49277127D01*
X-31835805Y-43444000D02*
X-49078323Y-67319197D01*
X38293361Y37261017D02*
X60027658Y58387223D01*
X8453271Y-83312243D02*
X5848616Y-53541510D01*
X15580863Y52006161D02*
X23395529Y79509393D01*
X-4275656Y-81908480D02*
X-1969857Y-55545081D01*
X35362992Y43987866D02*
X49657412Y63651193D01*
X54359165Y11585233D02*
X79601500Y17903333D01*
X36846759Y-74238876D02*
X24940242Y-48705880D01*
X18185606Y53429929D02*
X24892713Y76796391D01*
X-37251413Y73072653D02*
X-26066594Y49088380D01*
X-55862903Y-10655186D02*
X-78626529Y-16308249D01*
X-82716132Y5209209D02*
X-54650650Y2754057D01*
X75457317Y27464218D02*
X64650852Y23530986D01*
X49657412Y-63651193D02*
X35944445Y-44070328D01*
X43987866Y-35362992D02*
X63651193Y-49657412D01*
X-43726864Y33607794D02*
X-65493875Y49374414D01*
X59971507Y-54684220D02*
X42464162Y-37178873D01*
X72486327Y37452109D02*
X49275631Y26627660D01*
X84251395Y7672187D02*
X84925474Y7984605D01*
X-68677641Y44048947D02*
X-47698045Y29360119D01*
D13*
X82248753Y-22610455D02*
X85719978Y-23564706D01*
D12*
X-35944445Y-44070328D02*
X-49748675Y-63033002D01*
X84303688Y-7074472D02*
X85021777Y-6883853D01*
X-48510482Y24374930D02*
X-74238876Y36846759D01*
D13*
X75391476Y-47109823D02*
X76663548Y-47904701D01*
D12*
X50412870Y21279590D02*
X75727351Y32609366D01*
X-43540837Y32428377D02*
X-66712648Y49178420D01*
X44657067Y68796997D02*
X29478487Y47118523D01*
X-45263873Y-68914326D02*
X-29595269Y-46536465D01*
X-80868122Y20022559D02*
X-52829088Y12509658D01*
X83312243Y8453271D02*
X53541510Y5848616D01*
X46536465Y29595269D02*
X68796997Y44657067D01*
X-24892713Y76796391D02*
X-18703790Y53706286D01*
X-43586435Y-30153320D02*
X-69364140Y-47678139D01*
X-16103656Y-52296756D02*
X-23696380Y-78971413D01*
X60032989Y-59608726D02*
X37688190Y-37263928D01*
X-37178873Y42464162D02*
X-54061269Y59955918D01*
X-69254538Y47076497D02*
X-44774594Y29935519D01*
X77888588Y24296008D02*
X53150868Y17666502D01*
X35944445Y44070328D02*
X49748675Y63033002D01*
X71897822Y37651678D02*
X49460311Y27187336D01*
X75457317Y-27464218D02*
X64650852Y-23530986D01*
X-66712648Y-49178420D02*
X-43635101Y-33019031D01*
X-67319197Y-49078323D02*
X-43540837Y-32428377D01*
X43635101Y-33019031D02*
X66104215Y-49277127D01*
X-53706286Y18703790D02*
X-76246696Y25189907D01*
X23395529Y-79509393D02*
X16103656Y-52296756D01*
X-60027658Y58387223D02*
X-38896119Y37255758D01*
X-75972550Y-36232038D02*
X-48111004Y-23239970D01*
X-81109984Y-22489097D02*
X-51415668Y-14532515D01*
X-59955918Y54061269D02*
X-43051100Y37159113D01*
X32032153Y75506434D02*
X20848597Y51521572D01*
X-61513369Y-51615845D02*
X-52703858Y-44223788D01*
X-45364549Y-29823845D02*
X-69029668Y-45869373D01*
X9233437Y-82364058D02*
X6777769Y-54298621D01*
X-36846759Y74238876D02*
X-24940242Y48705880D01*
X11894048Y-53852151D02*
X18433958Y-79921647D01*
X78953982Y-16840474D02*
X55862903Y-10655186D01*
X-52296756Y16103656D02*
X-78971413Y23696380D01*
X-8631316Y-55776106D02*
X-11178984Y-79952256D01*
X51270894Y13427413D02*
X81487855Y21078863D01*
X-55411143Y8168557D02*
X-80439485Y10790501D01*
X-48160328Y-22126518D02*
X-76589565Y-34908845D01*
X792818Y-56864473D02*
X2407136Y-80263913D01*
X-20193801Y53163966D02*
X-29713843Y74600117D01*
X32428377Y43540837D02*
X49178420Y66712648D01*
X57159390Y60015819D02*
X37238491Y40094553D01*
X-59997197Y55925099D02*
X-41283801Y37212688D01*
X69471900Y-48278516D02*
X70189092Y-48472480D01*
X60031121Y-58998758D02*
X38293361Y-37261017D01*
X48278516Y69471900D02*
X30153320Y43586435D01*
X67319197Y49078323D02*
X43540837Y32428377D01*
X26627660Y49275631D02*
X37651678Y71897822D01*
X0Y80300000D02*
X0Y68800000D01*
X-48312217Y23808176D02*
X-74818829Y36642857D01*
X35481388Y76799942D02*
X35547866Y77539920D01*
X79509393Y23395529D02*
X52296756Y16103656D01*
X-26627660Y-49275631D02*
X-37651678Y-71897822D01*
X-10790501Y80439485D02*
X-8631316Y55776106D01*
X55305491Y59985254D02*
X37196751Y41875074D01*
X61513369Y-51615845D02*
X52703858Y-44223788D01*
X21493283Y-49854216D02*
X33185638Y-75946085D01*
X-32428377Y-43540837D02*
X-49178420Y-66712648D01*
X33019031Y43635101D02*
X49277127Y66104215D01*
X-11585233Y54359165D02*
X-17903333Y79601500D01*
X-30153320Y43586435D02*
X-47678139Y69364140D01*
X-81639166Y-22185731D02*
X-51115603Y-14006966D01*
X-79509393Y-23395529D02*
X-52296756Y-16103656D01*
X7672187Y-84251395D02*
X7984605Y-84925474D01*
X52829088Y12509658D02*
X80554919Y19493575D01*
X69127755Y48770007D02*
X43242291Y30644808D01*
X-21916802Y48728007D02*
X-34335374Y76377154D01*
X-75457317Y-27464218D02*
X-64650852Y-23530986D01*
X-37159113Y43051100D02*
X-53436622Y59938447D01*
X16840474Y78953982D02*
X10655186Y55862903D01*
X-81501055Y3808686D02*
X-55987778Y1577586D01*
X80678812Y-2874414D02*
X56864473Y-792818D01*
X29240218Y-48275079D02*
X42828721Y-68432693D01*
X42464162Y37178873D02*
X59955918Y54061269D01*
X17666502Y53150868D02*
X24594739Y77343677D01*
X-33019031Y-43635101D02*
X-49277127Y-66104215D01*
X76589565Y-34908845D02*
X48728007Y-21916802D01*
X49088380Y-26066594D02*
X72486327Y-37452109D01*
X-76546371Y-36025172D02*
X-47906758Y-22670300D01*
X55862903Y10655186D02*
X78626529Y16308249D01*
X-59608726Y-60032989D02*
X-37263928Y-37688190D01*
X76799942Y-35481388D02*
X77539920Y-35547866D01*
X-48898487Y25504126D02*
X-73072653Y37251413D01*
X-7672187Y84251395D02*
X-7984605Y84925474D01*
X-81908480Y4275656D02*
X-55545081Y1969857D01*
X21705705Y-49292616D02*
X33760973Y-76162673D01*
X64267387Y49564590D02*
X43987866Y35362992D01*
X47678139Y69364140D02*
X30045366Y44181907D01*
X-36025172Y76546371D02*
X-36549297Y77072945D01*
X-21606176Y-81794457D02*
X-21543148Y-82534737D01*
X69541840Y40150000D02*
X59582548Y34400000D01*
X-5209209Y-82716132D02*
X-2754057Y-54650650D01*
X-25504126Y-48898487D02*
X-37251413Y-73072653D01*
X-59608726Y-60032989D02*
X-59924282Y-60705605D01*
X-77343677Y-24594739D02*
X-53429929Y-18185606D01*
X79952256Y11178984D02*
X56138246Y9093639D01*
X71307107Y37850090D02*
X49642488Y27745636D01*
X-40690307Y-37226623D02*
X-59997197Y-55925099D01*
X-74818829Y-36642857D02*
X-48510482Y-24374930D01*
X79278959Y-17372170D02*
X55364479Y-10965768D01*
X37178873Y-42464162D02*
X54061269Y-59955918D01*
X24296008Y-77888588D02*
X17666502Y-53150868D01*
X-22185731Y81639166D02*
X-14006966Y51115603D01*
X-52823620Y-4320324D02*
X-83910177Y-6608410D01*
X-33760973Y-76162673D02*
X-21493283Y-49854216D01*
X24594739Y-77343677D02*
X18185606Y-53429929D01*
X3808686Y81501055D02*
X1577586Y55987778D01*
X78431155Y23996547D02*
X52869034Y17146476D01*
X74818829Y36642857D02*
X48510482Y24374930D01*
X-9623137Y81886493D02*
X-7241771Y54672472D01*
X-56138246Y9093639D02*
X-79462518Y11567116D01*
X51415668Y-14532515D02*
X80578648Y-22791866D01*
X4320324Y-52823620D02*
X6608410Y-83910177D01*
X37238491Y-40094553D02*
X56543060Y-60007373D01*
X-53743696Y-3537623D02*
X-83116435Y-5675769D01*
X76796391Y24892713D02*
X53706286Y18703790D01*
X79601500Y-17903333D02*
X54863253Y-11275795D01*
X-53921659Y6313379D02*
X-82364058Y9233437D01*
X37263928Y-37688190D02*
X58998758Y-60031121D01*
X-83514438Y6142173D02*
X-53743696Y3537623D01*
X-53285337Y-3929097D02*
X-83514438Y-6142173D01*
X-29118837Y48849670D02*
X-42216598Y68307019D01*
X31453997Y75283293D02*
X20631394Y52071736D01*
X48510482Y-24374930D02*
X74238876Y-36846759D01*
X-48849670Y-29118837D02*
X-68307019Y-42216598D01*
X-81487855Y21078863D02*
X-51793532Y13122307D01*
X-52829088Y-12509658D02*
X-80554919Y-19493575D01*
X47698045Y29360119D02*
X68556220Y43439501D01*
X75506434Y-32032153D02*
X51521572Y-20848597D01*
X4275656Y81908480D02*
X1969857Y55545081D01*
X3145933Y-54198775D02*
X5209209Y-82716132D01*
X8062836Y-83782931D02*
X5383496Y-53158093D01*
X55987778Y1577586D02*
X81091179Y3341601D01*
X-83312243Y-8453271D02*
X-53541510Y-5848616D01*
X-13427413Y51270894D02*
X-21078863Y81487855D01*
X80045128Y23094017D02*
X52006161Y15580863D01*
X-40150000Y69541840D02*
X-34400000Y59582548D01*
X-49078323Y67319197D02*
X-32428377Y43540837D01*
X22489097Y-81109984D02*
X14532515Y-51415668D01*
X43816201Y-34194692D02*
X64881607Y-49470246D01*
X-49275631Y26627660D02*
X-71897822Y37651678D01*
X-49088380Y26066594D02*
X-72486327Y37452109D01*
X68556220Y-43439501D02*
X48275079Y-29240218D01*
X-20631394Y52071736D02*
X-30874895Y75057888D01*
X-11178984Y79952256D02*
X-9093639Y56138246D01*
X-6777769Y-54298621D02*
X-9623137Y-81886493D01*
X-5675769Y-83116435D02*
X-3145933Y-54198775D01*
X48111004Y-23239970D02*
X75396711Y-36437941D01*
X-13943949Y-79080063D02*
X-11946995Y-67754773D01*
X-51793532Y-13122307D02*
X-81179089Y-20550989D01*
X-47076497Y-69254538D02*
X-29935519Y-44774594D01*
X4918037Y52771327D02*
X8062836Y83782931D01*
X21078863Y81487855D02*
X13122307Y51793532D01*
X-53429929Y18185606D02*
X-76796391Y24892713D01*
X-82313493Y4742501D02*
X-55099395Y2362023D01*
X39496504Y37248225D02*
X60015819Y57159390D01*
X19493575Y80554919D02*
X12202202Y53342147D01*
X80554919Y-19493575D02*
X53342147Y-12202202D01*
X-60022569Y57774106D02*
X-39496504Y37248225D01*
X-21078863Y-81487855D02*
X-13122307Y-51793532D01*
X-2874414Y-80678812D02*
X-792818Y-56864473D01*
X43242291Y-30644808D02*
X68526729Y-48874086D01*
X29360119Y-47698045D02*
X43439501Y-68556220D01*
X-43816201Y34194692D02*
X-64881607Y49470246D01*
X59985254Y-55305491D02*
X41875074Y-37196751D01*
X-73072653Y-37251413D02*
X-49088380Y-26066594D01*
X59955918Y-54061269D02*
X43051100Y-37159113D01*
X53163966Y20193801D02*
X74600117Y29713843D01*
X-55776106Y8631316D02*
X-79952256Y11178984D01*
X-15057148Y-51712493D02*
X-23094017Y-80045128D01*
X76546371Y36025172D02*
X77072945Y36549297D01*
X-69541840Y40150000D02*
X-59582548Y34400000D01*
X23239970Y48111004D02*
X36437941Y75396711D01*
X34779749Y43903179D02*
X49564590Y64267387D01*
X-43344511Y31241291D02*
X-67923884Y48976868D01*
X54863253Y11275795D02*
X79278959Y17372170D01*
X66712648Y49178420D02*
X43635101Y33019031D01*
X-20550989Y-81179089D02*
X-12816373Y-52312906D01*
X-18185606Y-53429929D02*
X-24892713Y-76796391D01*
X-49642488Y27745636D02*
X-70714156Y38047315D01*
X76377154Y-34335374D02*
X49292616Y-21705705D01*
X-69364140Y47678139D02*
X-44181907Y30045366D01*
X56138246Y-9093639D02*
X79462518Y-11567116D01*
X-69143059Y46473578D02*
X-45364549Y29823845D01*
X48898487Y-25504126D02*
X73072653Y-37251413D01*
X52006161Y-15580863D02*
X79509393Y-23395529D01*
X53429929Y-18185606D02*
X76796391Y-24892713D01*
X48728007Y21916802D02*
X76377154Y34335374D01*
X-44048947Y-68677641D02*
X-29360119Y-47698045D01*
X20631394Y-52071736D02*
X30874895Y-75057888D01*
X32609366Y75727351D02*
X21064678Y50968636D01*
X69471900Y-48278516D02*
X43586435Y-30153320D01*
X48160328Y22126518D02*
X76589565Y34908845D01*
X82364058Y9233437D02*
X54298621Y6777769D01*
X-49657412Y63651193D02*
X-35944445Y44070328D01*
X-56543060Y-60007373D02*
X-37226623Y-40690307D01*
X51615845Y61513369D02*
X44223788Y52703858D01*
X-36025172Y76546371D02*
X-22670300Y47906758D01*
X45364549Y29823845D02*
X69029668Y45869373D01*
X-22791866Y80578648D02*
X-15057148Y51712493D01*
X-37263928Y37688190D02*
X-58998758Y60031121D01*
X-51521572Y-20848597D02*
X-75283293Y-31453997D01*
X-76162673Y33760973D02*
X-49854216Y21493283D01*
X-33185638Y-75946085D02*
X-21279590Y-50412870D01*
X51793532Y13122307D02*
X81179089Y20550989D01*
X22126518Y-48160328D02*
X34908845Y-76589565D01*
X-9233437Y82364058D02*
X-6777769Y54298621D01*
X-55043289Y7705371D02*
X-80924243Y10401686D01*
X-24594739Y77343677D02*
X-18185606Y53429929D01*
X36437941Y-75396711D02*
X23808176Y-48312217D01*
X23996547Y-78431155D02*
X17146476Y-52869034D01*
X-79278959Y17372170D02*
X-55364479Y10965768D01*
X-23395529Y79509393D02*
X-16103656Y52296756D01*
X76799942Y-35481388D02*
X48160328Y-22126518D01*
X-5383496Y-53158093D02*
X-8453271Y-83312243D01*
X52584354Y-16625528D02*
X78431155Y-23996547D01*
X-38896119Y-37255758D02*
X-60022569Y-57774106D01*
X-23808176Y-48312217D02*
X-36642857Y-74818829D01*
X9623137Y-81886493D02*
X7241771Y-54672472D01*
X34908845Y76589565D02*
X21916802Y48728007D01*
X49078323Y-67319197D02*
X32428377Y-43540837D01*
X-54359165Y-11585233D02*
X-79601500Y-17903333D01*
X21606176Y81794457D02*
X21543148Y82534737D01*
X43051100Y37159113D02*
X59938447Y53436622D01*
D13*
X-60705605Y-59924282D02*
X-63267623Y-62453326D01*
D12*
X59608726Y60032989D02*
X37263928Y37688190D01*
X37049620Y-73656827D02*
X25504126Y-48898487D01*
X-8062836Y83782931D02*
X-5383496Y53158093D01*
X7074472Y84303688D02*
X6883853Y85021777D01*
X-72486327Y-37452109D02*
X-49275631Y-26627660D01*
X52869034Y-17146476D02*
X77888588Y-24296008D01*
X37452109Y-72486327D02*
X26627660Y-49275631D01*
X-7074472Y-84303688D02*
X-4320324Y-52823620D01*
X-42464162Y-37178873D02*
X-59955918Y-54061269D01*
D13*
X-21543148Y82534737D02*
X-22452355Y86018032D01*
D12*
X35481388Y76799942D02*
X22126518Y48160328D01*
X49292616Y21705705D02*
X76162673Y33760973D01*
X-81886493Y-9623137D02*
X-54672472Y-7241771D01*
X-48770007Y69127755D02*
X-30644808Y43242291D01*
X84251395Y7672187D02*
X52771327Y4918037D01*
X-6313379Y-53921659D02*
X-9233437Y-82364058D01*
X-83116435Y5675769D02*
X-54198775Y3145933D01*
X56427554Y1185232D02*
X80678812Y2874414D01*
X-6142173Y-83514438D02*
X-3537623Y-53743696D01*
X22670300Y47906758D02*
X36232038Y75972550D01*
X-49564590Y64267387D02*
X-35362992Y43987866D01*
X44181907Y30045366D02*
X69254538Y47076497D01*
X73072653Y37251413D02*
X49088380Y26066594D01*
X-64881607Y-49470246D02*
X-43903179Y-34779749D01*
X-16625528Y-52584354D02*
X-23996547Y-78431155D01*
X6608410Y83910177D02*
X3929097Y53285337D01*
X10401686Y-80924243D02*
X8168557Y-55411143D01*
X-48111004Y23239970D02*
X-75396711Y36437941D01*
X-35362992Y-43987866D02*
X-49657412Y-63651193D01*
X-75506434Y32032153D02*
X-51521572Y20848597D01*
X80578648Y22791866D02*
X51712493Y15057148D01*
X-24374930Y-48510482D02*
X-36846759Y-74238876D01*
X37212688Y-41283801D02*
X55305491Y-59985254D01*
X63651193Y49657412D02*
X44070328Y35944445D01*
X69143059Y-46473578D02*
X45364549Y-29823845D01*
X48705880Y-24940242D02*
X73656827Y-37049620D01*
X-69029668Y45869373D02*
X-45951823Y29710408D01*
X22185731Y-81639166D02*
X22610455Y-82248753D01*
X-58387223Y-60027658D02*
X-37255758Y-38896119D01*
X-75457317Y27464218D02*
X-64650852Y23530986D01*
X-76589565Y34908845D02*
X-48728007Y21916802D01*
X83782931Y8062836D02*
X53158093Y5383496D01*
X-51615845Y-61513369D02*
X-44223788Y-52703858D01*
X-79921647Y18433958D02*
X-54359165Y11585233D01*
X-79080063Y13943949D02*
X-67754773Y11946995D01*
X11275795Y-54863253D02*
X17372170Y-79278959D01*
X-51615845Y61513369D02*
X-44223788Y52703858D01*
X37255758Y-38896119D02*
X57774106Y-60022569D01*
X-71307107Y-37850090D02*
X-49642488Y-27745636D01*
X37688190Y37263928D02*
X60031121Y58998758D01*
X-48705880Y24940242D02*
X-73656827Y37049620D01*
X5848616Y53541510D02*
X8843476Y82839296D01*
X-80239440Y18964040D02*
X-53852151Y11894048D01*
X-9093639Y-56138246D02*
X-11567116Y-79462518D01*
X12816373Y-52312906D02*
X20022559Y-80868122D01*
X77343677Y24594739D02*
X53429929Y18185606D01*
X-55305491Y-59985254D02*
X-37196751Y-41875074D01*
X34194692Y43816201D02*
X49470246Y64881607D01*
X-49460311Y27187336D02*
X-71307107Y37850090D01*
X9093639Y56138246D02*
X11567116Y79462518D01*
X21279590Y-50412870D02*
X32609366Y-75727351D01*
X81908480Y-4275656D02*
X55545081Y-1969857D01*
X22185731Y-81639166D02*
X14006966Y-51115603D01*
X-52771327Y4918037D02*
X-83782931Y8062836D01*
X-29240218Y48275079D02*
X-42828721Y68432693D01*
X51712493Y-15057148D02*
X80045128Y-23094017D01*
X6777769Y54298621D02*
X9623137Y81886493D01*
X76162673Y-33760973D02*
X49854216Y-21493283D01*
X-3929097Y53285337D02*
X-6142173Y83514438D01*
X-18964040Y-80239440D02*
X-11894048Y-53852151D01*
X1185232Y-56427554D02*
X2874414Y-80678812D01*
X-31241291Y-43344511D02*
X-48976868Y-67923884D01*
X-31453997Y-75283293D02*
X-20631394Y-52071736D01*
X-47906758Y22670300D02*
X-75972550Y36232038D01*
X5383496Y53158093D02*
X8453271Y83312243D01*
X61513369Y51615845D02*
X52703858Y44223788D01*
X-37261017Y38293361D02*
X-58387223Y60027658D01*
X53743696Y3537623D02*
X83116435Y5675769D01*
X60022569Y-57774106D02*
X39496504Y-37248225D01*
X-7672187Y84251395D02*
X-4918037Y52771327D01*
X49470246Y-64881607D02*
X34779749Y-43903179D01*
X-48278516Y-69471900D02*
X-30153320Y-43586435D01*
X23094017Y-80045128D02*
X15580863Y-52006161D01*
X23696380Y-78971413D02*
X16625528Y-52584354D01*
X-49854216Y-21493283D02*
X-75946085Y-33185638D01*
X54298621Y-6777769D02*
X81886493Y-9623137D01*
X10965768Y-55364479D02*
X16840474Y-78953982D01*
X75972550Y36232038D02*
X48111004Y23239970D01*
X69127755Y48770007D02*
X69555315Y49377608D01*
X83514438Y-6142173D02*
X53743696Y-3537623D01*
X49178420Y-66712648D02*
X33019031Y-43635101D01*
X65493875Y49374414D02*
X43816201Y34194692D01*
X2362023Y-55099395D02*
X4275656Y-81908480D01*
X-59971507Y54684220D02*
X-42464162Y37178873D01*
X-55987778Y-1577586D02*
X-81091179Y-3341601D01*
X-76377154Y34335374D02*
X-49292616Y21705705D01*
X-54298621Y6777769D02*
X-81886493Y9623137D01*
X-52312906Y-12816373D02*
X-80868122Y-20022559D01*
X75946085Y-33185638D02*
X50412870Y-21279590D01*
X1969857Y-55545081D02*
X3808686Y-81501055D01*
X37226623Y-40690307D02*
X55925099Y-59997197D01*
X-34194692Y-43816201D02*
X-49470246Y-64881607D01*
X-17372170Y-79278959D02*
X-10965768Y-55364479D01*
X54650650Y2754057D02*
X82313493Y4742501D01*
X12509658Y-52829088D02*
X19493575Y-80554919D01*
X-36232038Y75972550D02*
X-23239970Y48111004D01*
X-84303688Y7074472D02*
X-85021777Y6883853D01*
X-49178420Y66712648D02*
X-33019031Y43635101D01*
X75396711Y36437941D02*
X48312217Y23808176D01*
X10655186Y-55862903D02*
X16308249Y-78626529D01*
X-29595269Y46536465D02*
X-44657067Y68796997D01*
X-23094017Y80045128D02*
X-15580863Y52006161D01*
X73656827Y37049620D02*
X48898487Y25504126D01*
X81639166Y22185731D02*
X51115603Y14006966D01*
X43540837Y-32428377D02*
X66712648Y-49178420D01*
X52619183Y20413114D02*
X74830177Y30294844D01*
X-69541840Y-40150000D02*
X-59582548Y-34400000D01*
X-40094553Y-37238491D02*
X-60007373Y-56543060D01*
X-43051100Y-37159113D02*
X-59938447Y-53436622D01*
X38896119Y37255758D02*
X60022569Y57774106D01*
X36025172Y-76546371D02*
X36549297Y-77072945D01*
X-37226623Y40690307D02*
X-55925099Y59997197D01*
X49642488Y-27745636D02*
X70714156Y-38047315D01*
X-37212688Y41283801D02*
X-55305491Y59985254D01*
X-53541510Y5848616D02*
X-82839296Y8843476D01*
X-37255758Y38896119D02*
X-57774106Y60022569D01*
X22791866Y-80578648D02*
X15057148Y-51712493D01*
X29935519Y-44774594D02*
X46473578Y-69143059D01*
X52771327Y-4918037D02*
X83782931Y-8062836D01*
X-37452109Y72486327D02*
X-26627660Y49275631D01*
X-37688190Y-37263928D02*
X-60031121Y-58998758D01*
X-60032989Y59608726D02*
X-60705605Y59924282D01*
X2754057Y-54650650D02*
X4742501Y-82313493D01*
X3929097Y-53285337D02*
X6142173Y-83514438D01*
X60027658Y-58387223D02*
X38896119Y-37255758D01*
X-21606176Y-81794457D02*
X-13427413Y-51270894D01*
X-22670300Y-47906758D02*
X-36232038Y-75972550D01*
X34335374Y76377154D02*
X21705705Y49292616D01*
X55411143Y-8168557D02*
X80439485Y-10790501D01*
X-48728007Y-21916802D02*
X-76377154Y-34335374D01*
X-29935519Y44774594D02*
X-46473578Y69143059D01*
X-37049620Y73656827D02*
X-25504126Y48898487D01*
X43444000Y-31835805D02*
X67319197Y-49078323D01*
X81091179Y-3341601D02*
X56427554Y-1185232D01*
X-40150000Y-69541840D02*
X-34400000Y-59582548D01*
X55043289Y-7705371D02*
X80924243Y-10401686D01*
X50968636Y21064678D02*
X75506434Y32032153D01*
X45951823Y29710408D02*
X68914326Y45263873D01*
X51615845Y-61513369D02*
X44223788Y-52703858D01*
X78971413Y23696380D02*
X52584354Y16625528D01*
X-76799942Y35481388D02*
X-48160328Y22126518D01*
X-21279590Y50412870D02*
X-32609366Y75727351D01*
X-50968636Y-21064678D02*
X-75506434Y-32032153D01*
X37850090Y-71307107D02*
X27745636Y-49642488D01*
X-84251395Y-7672187D02*
X-52771327Y-4918037D01*
X-32032153Y-75506434D02*
X-20848597Y-51521572D01*
X52296756Y-16103656D02*
X78971413Y-23696380D01*
X67923884Y48976868D02*
X43444000Y31835805D01*
X36025172Y-76546371D02*
X22670300Y-47906758D01*
X-10012559Y81406566D02*
X-7705371Y55043289D01*
X43586435Y30153320D02*
X69364140Y47678139D01*
X-8843476Y82839296D02*
X-6313379Y53921659D01*
X47076497Y69254538D02*
X29935519Y44774594D01*
X33760973Y76162673D02*
X21493283Y49854216D01*
X11585233Y-54359165D02*
X17903333Y-79601500D01*
X58998758Y60031121D02*
X37261017Y38293361D01*
X-3341601Y-81091179D02*
X-1185232Y-56427554D01*
X-68432693Y42828721D02*
X-48849670Y29118837D01*
X55099395Y2362023D02*
X81908480Y4275656D01*
X-52869034Y17146476D02*
X-77888588Y24296008D01*
X69254538Y-47076497D02*
X44774594Y-29935519D01*
X-53150868Y17666502D02*
X-77343677Y24594739D01*
X56864473Y792818D02*
X80263913Y2407136D01*
X16103656Y52296756D02*
X23696380Y78971413D01*
X-48278516Y-69471900D02*
X-48472480Y-70189092D01*
X-16840474Y-78953982D02*
X-10655186Y-55862903D01*
X-80300000Y0D02*
X-68800000Y0D01*
X-80924243Y-10401686D02*
X-55411143Y-8168557D01*
X20550989Y81179089D02*
X12816373Y52312906D01*
X-71897822Y-37651678D02*
X-49460311Y-27187336D01*
X-21493283Y49854216D02*
X-33185638Y75946085D01*
X-36642857Y74818829D02*
X-24374930Y48510482D01*
X3341601Y81091179D02*
X1185232Y56427554D01*
X-12816373Y52312906D02*
X-20022559Y80868122D01*
X-60031121Y58998758D02*
X-38293361Y37261017D01*
X-23996547Y78431155D02*
X-17146476Y52869034D01*
X48312217Y-23808176D02*
X74818829Y-36642857D01*
X7074472Y84303688D02*
X4320324Y52823620D01*
X-26066594Y-49088380D02*
X-37452109Y-72486327D01*
X-4918037Y-52771327D02*
X-8062836Y-83782931D01*
X-17146476Y-52869034D02*
X-24296008Y-77888588D01*
X0Y-80300000D02*
X0Y-68800000D01*
X48976868Y-67923884D02*
X31835805Y-43444000D01*
X74238876Y36846759D02*
X48705880Y24940242D01*
X-7241771Y-54672472D02*
X-10012559Y-81406566D01*
X-53852151Y-11894048D02*
X-79921647Y-18433958D01*
X-58998758Y-60031121D02*
X-37261017Y-38293361D01*
X-45951823Y-29710408D02*
X-68914326Y-45263873D01*
X58387223Y60027658D02*
X37255758Y38896119D01*
X29478487Y-47118523D02*
X44048947Y-68677641D01*
X-13122307Y51793532D02*
X-20550989Y81179089D01*
X81639166Y22185731D02*
X82248753Y22610455D01*
X59997197Y-55925099D02*
X41283801Y-37212688D01*
X-11275795Y54863253D02*
X-17372170Y79278959D01*
X5209209Y82716132D02*
X2754057Y54650650D01*
X36232038Y-75972550D02*
X23239970Y-48111004D01*
X-80045128Y-23094017D02*
X-52006161Y-15580863D01*
X69541840Y-40150000D02*
X59582548Y-34400000D01*
X-17903333Y79601500D02*
G75*
G02*
X-10401686Y80924243I17903317J-79601395D01*
G01*
X-17372170Y79278959D02*
G75*
G02*
X-10790501Y80439484I17372270J-79279559D01*
G01*
X48874086Y68526729D02*
G75*
G02*
X58998758Y60031121I-48874086J-68526729D01*
G01*
X72486327Y-37452109D02*
G75*
G02*
X68677643Y-44048948I-72486027J37451909D01*
G01*
X-47678139Y69364140D02*
G75*
G02*
X-36232038Y75972550I47678139J-69364140D01*
G01*
X-23808176Y48312217D02*
G75*
G03*
X-29935519Y44774594I23808141J-48312157D01*
G01*
X10401686Y80924243D02*
G75*
G02*
X17903333Y79601499I-10401686J-80924143D01*
G01*
X42464162Y-37178873D02*
G75*
G03*
X43987866Y-35362992I-42464627J37179237D01*
G01*
X44070328Y35944445D02*
G75*
G03*
X43051100Y37159113I-44075977J-35949204D01*
G01*
X27745636Y-49642488D02*
G75*
G03*
X29118837Y-48849670I-27745699J49642594D01*
G01*
X55545081Y-1969857D02*
G75*
G03*
X55545081Y1969857I-55544481J1969857D01*
G01*
X14532515Y-51415668D02*
G75*
G03*
X21916800Y-48728003I-14532515J51415568D01*
G01*
X36232038Y75972550D02*
G75*
G02*
X47678139Y69364140I-36232068J-75972596D01*
G01*
X46473578Y-69143059D02*
G75*
G02*
X36642857Y-74818829I-46473655J69143185D01*
G01*
X-27187336Y49460311D02*
G75*
G03*
X-29240218Y48275079I27186965J-49459667D01*
G01*
X71307107Y-37850090D02*
G75*
G02*
X68432692Y-42828720I-71306207J37849590D01*
G01*
X-6313379Y53921659D02*
G75*
G03*
X-12509658Y52829088I6313335J-53921418D01*
G01*
X-79952256Y11178984D02*
G75*
G02*
X-78953982Y16840474I79952018J-11178950D01*
G01*
X-52829088Y12509658D02*
G75*
G03*
X-53921659Y6313379I52828847J-12509614D01*
G01*
X60022569Y57774106D02*
G75*
G02*
X67319203Y49078327I-60022369J-57774006D01*
G01*
X-71307107Y37850090D02*
G75*
G02*
X-68432693Y42828721I71306230J-37849585D01*
G01*
X55862903Y-10655186D02*
G75*
G03*
X56138246Y-9093639I-55864231J10655425D01*
G01*
X34908845Y-76589565D02*
G75*
G02*
X22489097Y-81109984I-34908891J76589685D01*
G01*
X54298621Y6777769D02*
G75*
G03*
X53342147Y12202202I-54298759J-6777795D01*
G01*
X25189907Y76246696D02*
G75*
G02*
X27464218Y75457318I-25189807J-76246396D01*
G01*
X20550989Y-81179089D02*
G75*
G02*
X8453271Y-83312243I-20551020J81179270D01*
G01*
X68796997Y44657067D02*
G75*
G02*
X73072654Y37251414I-68796797J-44656967D01*
G01*
X60007373Y56543060D02*
G75*
G02*
X66104215Y49277127I-60007523J-56543189D01*
G01*
X43540837Y32428377D02*
G75*
G03*
X39496504Y37248225I-43540901J-32428433D01*
G01*
X20193801Y53163966D02*
G75*
G03*
X18703790Y53706286I-20194347J-53165432D01*
G01*
X-75727351Y-32609366D02*
G75*
G02*
X-78971413Y-23696380I75726984J32609235D01*
G01*
X53541510Y5848616D02*
G75*
G03*
X52312906Y12816373I-53541210J-5848566D01*
G01*
X-67923884Y48976868D02*
G75*
G02*
X-60027658Y58387223I67923848J-48976842D01*
G01*
X41283801Y-37212688D02*
G75*
G03*
X43816201Y-34194692I-41284230J37213057D01*
G01*
X-58387223Y60027658D02*
G75*
G02*
X-48976868Y67923884I58387197J-60027622D01*
G01*
X-75057888Y-30874895D02*
G75*
G02*
X-77343680Y-24594740I75058088J30874995D01*
G01*
X83116435Y5675769D02*
G75*
G02*
X83116435Y-5675769I-83116489J-5675769D01*
G01*
X21916802Y48728007D02*
G75*
G03*
X14532516Y51415673I-21916802J-48727907D01*
G01*
X2407136Y-80263913D02*
G75*
G02*
X0Y-80300001I-2407136J80262113D01*
G01*
X74830177Y30294844D02*
G75*
G02*
X76796391Y24892713I-74830624J-30294995D01*
G01*
X49088380Y26066594D02*
G75*
G03*
X47118522Y29478486I-49088180J-26066494D01*
G01*
X49748675Y63033002D02*
G75*
G02*
X51615845Y61513369I-49749949J-63034573D01*
G01*
X-55776106Y-8631316D02*
G75*
G03*
X-55364479Y-10965768I55774752J8631080D01*
G01*
X17372170Y-79278959D02*
G75*
G02*
X10790501Y-80439485I-17372279J79279567D01*
G01*
X83312243Y-8453271D02*
G75*
G02*
X81179089Y-20550989I-83312424J8453302D01*
G01*
X-11567116Y-79462518D02*
G75*
G02*
X-13943949Y-79080062I11567416J79464318D01*
G01*
X-44774594Y29935519D02*
G75*
G03*
X-48312217Y23808176I44774534J-29935484D01*
G01*
X52584354Y16625528D02*
G75*
G03*
X50968633Y21064677I-52584254J-16625528D01*
G01*
X47076497Y-69254538D02*
G75*
G02*
X36437941Y-75396711I-47076534J69254604D01*
G01*
X-20550989Y81179089D02*
G75*
G02*
X-8453271Y83312243I20551019J-81179269D01*
G01*
X25504126Y-48898487D02*
G75*
G03*
X29595269Y-46536465I-25504126J48898487D01*
G01*
X-10012559Y-81406566D02*
G75*
G02*
X-18433958Y-79921647I10012525J81406422D01*
G01*
X-49854216Y21493283D02*
G75*
G03*
X-52006161Y15580863I49854184J-21493272D01*
G01*
X-23696380Y-78971413D02*
G75*
G02*
X-32609366Y-75727351I23696249J78971046D01*
G01*
X30294844Y-74830177D02*
G75*
G02*
X24892713Y-76796391I-30294995J74830624D01*
G01*
X-24940242Y48705880D02*
G75*
G03*
X-29710408Y45951823I24940242J-48705880D01*
G01*
X-42464162Y37178873D02*
G75*
G03*
X-43987866Y35362992I42464662J-37179273D01*
G01*
X24594739Y77343677D02*
G75*
G02*
X30874895Y75057888I-24594808J-77343897D01*
G01*
X75946085Y33185638D02*
G75*
G02*
X79509393Y23395529I-75946273J-33185704D01*
G01*
X44657067Y-68796997D02*
G75*
G02*
X37251414Y-73072654I-44656967J68796797D01*
G01*
X-81109984Y22489097D02*
G75*
G02*
X-76589564Y34908845I81110104J-22489147D01*
G01*
X-81501055Y-3808686D02*
G75*
G02*
X-81501055Y3808686I81500803J3808686D01*
G01*
X63651193Y-49657412D02*
G75*
G02*
X59955919Y-54061270I-63651093J49657312D01*
G01*
X37688190Y-37263928D02*
G75*
G03*
X43242291Y-30644808I-37688305J37264024D01*
G01*
D14*
X-88900000Y0D02*
G75*
G03*
X0Y-88900000I88899999J-1D01*
G01*
D12*
X-8168557Y55411143D02*
G75*
G03*
X-11275795Y54863252I8168657J-55411643D01*
G01*
X10790501Y80439485D02*
G75*
G02*
X17372170Y79278959I-10790610J-80440093D01*
G01*
X-43987866Y-35362992D02*
G75*
G03*
X-42464162Y-37178873I43988366J35363392D01*
G01*
X-5383496Y53158093D02*
G75*
G03*
X-13122308Y51793534I5383496J-53158193D01*
G01*
X-36232038Y-75972550D02*
G75*
G02*
X-47678139Y-69364140I36232038J75972550D01*
G01*
X32032153Y-75506434D02*
G75*
G02*
X23996546Y-78431153I-32032053J75506234D01*
G01*
X-13122307Y-51793532D02*
G75*
G03*
X-5383496Y-53158091I13122307J51793632D01*
G01*
X82313493Y4742501D02*
G75*
G02*
X82313493Y-4742501I-82313293J-4742501D01*
G01*
X-37248225Y-39496504D02*
G75*
G03*
X-32428378Y-43540838I37248325J39496604D01*
G01*
X60031121Y58998758D02*
G75*
G02*
X68526729Y48874086I-60031121J-58998758D01*
G01*
X-54061269Y59955918D02*
G75*
G02*
X-49657412Y63651193I54061156J-59955780D01*
G01*
X9233437Y82364058D02*
G75*
G02*
X19493574Y80554917I-9233437J-82363958D01*
G01*
X81501055Y3808686D02*
G75*
G02*
X81501055Y-3808686I-81500755J-3808686D01*
G01*
X24374930Y-48510482D02*
G75*
G03*
X29823848Y-45364553I-24374830J48510382D01*
G01*
X29478487Y47118523D02*
G75*
G03*
X26066595Y49088381I-29478387J-47118323D01*
G01*
X43439501Y-68556220D02*
G75*
G02*
X37651678Y-71897822I-43439401J68556020D01*
G01*
X76162673Y33760973D02*
G75*
G02*
X80045128Y23094017I-76162774J-33761014D01*
G01*
X56864473Y-792818D02*
G75*
G03*
X56864473Y792818I-56859973J792818D01*
G01*
X29360119Y47698045D02*
G75*
G03*
X26627660Y49275630I-29359819J-47697545D01*
G01*
X-37255758Y-38896119D02*
G75*
G03*
X-31835805Y-43444000I37255619J38895949D01*
G01*
X30153320Y43586435D02*
G75*
G03*
X22670300Y47906758I-30153360J-43586511D01*
G01*
X43242291Y30644808D02*
G75*
G03*
X37688190Y37263928I-43242406J-30644904D01*
G01*
X-3341601Y81091179D02*
G75*
G02*
X3341601Y81091179I3341601J-81091243D01*
G01*
X51521572Y-20848597D02*
G75*
G03*
X52869035Y-17146476I-51520972J20848397D01*
G01*
X38293361Y-37261017D02*
G75*
G03*
X43344509Y-31241290I-38293261J37260917D01*
G01*
X51115603Y14006966D02*
G75*
G03*
X48160329Y22126518I-51115483J-14006916D01*
G01*
X44774594Y-29935519D02*
G75*
G03*
X48312223Y-23808179I-44774494J29935519D01*
G01*
X-80045128Y23094017D02*
G75*
G02*
X-76162678Y33760975I80045228J-23094017D01*
G01*
X37850090Y71307107D02*
G75*
G02*
X42828720Y68432692I-37849590J-71306207D01*
G01*
X7241771Y-54672472D02*
G75*
G03*
X11894048Y-53852151I-7241671J54671972D01*
G01*
X83514438Y6142173D02*
G75*
G02*
X83514438Y-6142173I-83514535J-6142173D01*
G01*
X48976868Y67923884D02*
G75*
G02*
X58387223Y60027658I-48976868J-67923884D01*
G01*
X11585233Y54359165D02*
G75*
G03*
X7705371Y55043289I-11585252J-54359301D01*
G01*
X21078863Y-81487855D02*
G75*
G02*
X8062836Y-83782931I-21078843J81487755D01*
G01*
X16625528Y-52584354D02*
G75*
G03*
X21064677Y-50968633I-16625528J52584254D01*
G01*
X53921659Y6313379D02*
G75*
G03*
X52829088Y12509658I-53921419J-6313339D01*
G01*
X48728007Y-21916802D02*
G75*
G03*
X51415673Y-14532516I-48727907J21916802D01*
G01*
X-75396711Y36437941D02*
G75*
G02*
X-69254544Y47076501I75396811J-36437941D01*
G01*
X49292616Y-21705705D02*
G75*
G03*
X51712497Y-15057149I-49292516J21705705D01*
G01*
X-54198775Y3145933D02*
G75*
G03*
X-54198775Y-3145933I54198775J-3145933D01*
G01*
X37238491Y40094553D02*
G75*
G03*
X33019031Y43635101I-37238559J-40094627D01*
G01*
X-18185606Y53429929D02*
G75*
G03*
X-20413114Y52619183I18184977J-53428241D01*
G01*
X-32428377Y43540837D02*
G75*
G03*
X-37248224Y39496503I32428477J-43540937D01*
G01*
X-2754057Y-54650650D02*
G75*
G03*
X2754057Y-54650650I2754057J54650473D01*
G01*
X69029668Y45869373D02*
G75*
G02*
X74238876Y36846759I-69029850J-45869473D01*
G01*
X-20631394Y-52071736D02*
G75*
G03*
X-17666502Y-53150868I20631090J52070922D01*
G01*
X-23239970Y48111004D02*
G75*
G03*
X-30045363Y44181902I23240070J-48111104D01*
G01*
X2874414Y-80678812D02*
G75*
G02*
X-2874414Y-80678812I-2874414J80679413D01*
G01*
X-20022559Y80868122D02*
G75*
G02*
X-8843476Y82839296I20022515J-80867873D01*
G01*
X-74818829Y36642857D02*
G75*
G02*
X-69143055Y46473575I74818929J-36642957D01*
G01*
X75283293Y31453997D02*
G75*
G02*
X77888588Y24296008I-75283586J-31454105D01*
G01*
X-6777769Y54298621D02*
G75*
G03*
X-12202202Y53342149I6777769J-54298721D01*
G01*
X23996547Y78431155D02*
G75*
G02*
X32032154Y75506436I-23996447J-78430955D01*
G01*
X76796391Y-24892713D02*
G75*
G02*
X74830177Y-30294844I-76796838J24892864D01*
G01*
X-23094017Y-80045128D02*
G75*
G02*
X-33760975Y-76162678I23094017J80045228D01*
G01*
X-16840474Y78953982D02*
G75*
G02*
X-11178984Y79952256I16840440J-78953744D01*
G01*
X-9093639Y56138246D02*
G75*
G03*
X-10655186Y55862904I9093839J-56139546D01*
G01*
X52829088Y-12509658D02*
G75*
G03*
X53921663Y-6313379I-52828888J12509658D01*
G01*
X54863253Y-11275795D02*
G75*
G03*
X55411143Y-8168557I-54863760J11275886D01*
G01*
X56427554Y-1185232D02*
G75*
G03*
X56427554Y1185232I-56428571J1185232D01*
G01*
X-5848616Y53541510D02*
G75*
G03*
X-12816373Y52312906I5848567J-53541209D01*
G01*
X-3145933Y-54198775D02*
G75*
G03*
X3145933Y-54198775I3145933J54198808D01*
G01*
X-1577586Y-55987778D02*
G75*
G03*
X1577586Y-55987778I1577586J55986945D01*
G01*
X68526729Y-48874086D02*
G75*
G02*
X60031121Y-58998758I-68526729J48874086D01*
G01*
X-81886493Y9623137D02*
G75*
G02*
X-80239440Y18964040I81886743J-9623177D01*
G01*
X78971413Y-23696380D02*
G75*
G02*
X75727347Y-32609364I-78971013J23696280D01*
G01*
X-73656827Y37049620D02*
G75*
G02*
X-68914326Y45263873I73656672J-37049529D01*
G01*
X-45951823Y29710408D02*
G75*
G03*
X-48705880Y24940242I45951823J-29710408D01*
G01*
X-44070328Y-35944445D02*
G75*
G03*
X-43051099Y-37159112I44075928J35949245D01*
G01*
X-21493283Y-49854216D02*
G75*
G03*
X-15580863Y-52006161I21493272J49854184D01*
G01*
X45364549Y-29823845D02*
G75*
G03*
X48510478Y-24374928I-45364449J29823745D01*
G01*
X37212688Y41283801D02*
G75*
G03*
X34194692Y43816201I-37213057J-41284230D01*
G01*
X-79462518Y11567116D02*
G75*
G02*
X-79080062Y13943949I79464318J-11567416D01*
G01*
X-33185638Y75946085D02*
G75*
G02*
X-23395530Y79509396I33185738J-75946285D01*
G01*
X37263928Y37688190D02*
G75*
G03*
X30644808Y43242291I-37264024J-37688305D01*
G01*
X-18433958Y79921647D02*
G75*
G02*
X-10012559Y81406566I18433924J-79921503D01*
G01*
X-6142173Y83514438D02*
G75*
G02*
X6142173Y83514438I6142173J-83514535D01*
G01*
X-32609366Y75727351D02*
G75*
G02*
X-23696380Y78971413I32609235J-75726984D01*
G01*
X13122307Y51793532D02*
G75*
G03*
X5383496Y53158093I-13122316J-51793591D01*
G01*
X41875074Y-37196751D02*
G75*
G03*
X43903179Y-34779749I-41875263J37196901D01*
G01*
X-31241291Y43344511D02*
G75*
G03*
X-37261017Y38293361I31241196J-43344396D01*
G01*
X-72486327Y37452109D02*
G75*
G02*
X-68677641Y44048947I72486059J-37451952D01*
G01*
X-59955918Y-54061269D02*
G75*
G02*
X-63651193Y-49657412I59955780J54061156D01*
G01*
X-54672472Y-7241771D02*
G75*
G03*
X-53852151Y-11894048I54671965J7241670D01*
G01*
X-82716132Y-5209209D02*
G75*
G02*
X-82716132Y5209209I82715984J5209209D01*
G01*
X10965768Y55364479D02*
G75*
G03*
X8631316Y55776108I-10965568J-55363079D01*
G01*
X-36642857Y-74818829D02*
G75*
G02*
X-46473575Y-69143055I36642957J74818929D01*
G01*
X-29595269Y-46536465D02*
G75*
G03*
X-25504126Y-48898487I29595263J46536465D01*
G01*
X55099395Y-2362023D02*
G75*
G03*
X55099395Y2362023I-55099195J2362023D01*
G01*
X-16103656Y52296756D02*
G75*
G03*
X-21279590Y50412871I16103756J-52297056D01*
G01*
X-34194692Y43816201D02*
G75*
G03*
X-37212686Y41283799I34195092J-43816601D01*
G01*
X-24892713Y-76796391D02*
G75*
G02*
X-30294842Y-74830173I24892913J76796791D01*
G01*
X-36437941Y-75396711D02*
G75*
G02*
X-47076501Y-69254544I36437941J75396811D01*
G01*
X53158093Y5383496D02*
G75*
G03*
X51793532Y13122307I-53158152J-5383505D01*
G01*
X14006966Y-51115603D02*
G75*
G03*
X22126518Y-48160329I-14006916J51115483D01*
G01*
X17666502Y-53150868D02*
G75*
G03*
X20631394Y-52071736I-17666202J53150068D01*
G01*
X-78953982Y-16840474D02*
G75*
G02*
X-79952256Y-11178984I78953744J16840440D01*
G01*
X-65493875Y49374414D02*
G75*
G02*
X-59997197Y55925099I65493820J-49374373D01*
G01*
X15580863Y-52006161D02*
G75*
G03*
X21493283Y-49854216I-15580863J52006161D01*
G01*
X-38896119Y37255758D02*
G75*
G03*
X-43444000Y31835805I38895949J-37255619D01*
G01*
X45951823Y-29710408D02*
G75*
G03*
X48705880Y-24940242I-45951872J29710440D01*
G01*
X-56138246Y-9093639D02*
G75*
G03*
X-55862904Y-10655186I56139546J9093839D01*
G01*
X-51521572Y20848597D02*
G75*
G03*
X-52869034Y17146476I51520979J-20848383D01*
G01*
X-21064678Y-50968636D02*
G75*
G03*
X-16625528Y-52584354I21064643J50968555D01*
G01*
X65493875Y-49374414D02*
G75*
G02*
X59997192Y-55925095I-65493775J49374414D01*
G01*
X53436622Y-59938447D02*
G75*
G02*
X51615845Y-61513369I-53435222J59936847D01*
G01*
X-57774106Y60022569D02*
G75*
G02*
X-49078323Y67319197I57773957J-60022395D01*
G01*
X-79509393Y23395529D02*
G75*
G02*
X-75946082Y33185637I79509593J-23395629D01*
G01*
X6142173Y-83514438D02*
G75*
G02*
X-6142173Y-83514438I-6142173J83514535D01*
G01*
X3341601Y-81091179D02*
G75*
G02*
X-3341601Y-81091179I-3341601J81091243D01*
G01*
X80239440Y18964040D02*
G75*
G02*
X81886493Y9623137I-80239688J-18964081D01*
G01*
X-33607794Y43726864D02*
G75*
G03*
X-37226623Y40690307I33607649J-43726707D01*
G01*
X3929097Y53285337D02*
G75*
G03*
X-3929097Y53285337I-3929097J-53285484D01*
G01*
X-60007373Y-56543060D02*
G75*
G02*
X-66104210Y-49277123I60007573J56543160D01*
G01*
X-53852151Y11894048D02*
G75*
G03*
X-54672472Y7241771I53851644J-11893947D01*
G01*
X73072653Y-37251413D02*
G75*
G02*
X68796996Y-44657066I-73072453J37251313D01*
G01*
D14*
X88900000Y0D02*
G75*
G03*
X0Y88900000I-88900000J0D01*
G01*
D12*
X23696380Y78971413D02*
G75*
G02*
X32609364Y75727347I-23696280J-78971013D01*
G01*
X-51712493Y-15057148D02*
G75*
G03*
X-49292616Y-21705705I51712420J15057123D01*
G01*
X53150868Y17666502D02*
G75*
G03*
X52071736Y20631394I-53150068J-17666202D01*
G01*
X7705371Y-55043289D02*
G75*
G03*
X11585233Y-54359165I-7705390J55043425D01*
G01*
X792818Y56864473D02*
G75*
G03*
X-792818Y56864473I-792818J-56859945D01*
G01*
X80578648Y-22791866D02*
G75*
G02*
X76377154Y-34335374I-80578675J22791881D01*
G01*
X52619183Y-20413114D02*
G75*
G03*
X53429930Y-18185606I-52617483J20412514D01*
G01*
X-53706286Y-18703790D02*
G75*
G03*
X-53163967Y-20193802I53707786J18704290D01*
G01*
X-24296008Y-77888588D02*
G75*
G02*
X-31453997Y-75283294I24296108J77888888D01*
G01*
X10655186Y55862903D02*
G75*
G03*
X9093639Y56138246I-10655425J-55864231D01*
G01*
X26066594Y-49088380D02*
G75*
G03*
X29478486Y-47118522I-26066494J49088180D01*
G01*
X-27745636Y49642488D02*
G75*
G03*
X-29118836Y48849669I27745736J-49642588D01*
G01*
X-29710408Y-45951823D02*
G75*
G03*
X-24940242Y-48705880I29710408J45951823D01*
G01*
X-10655186Y-55862903D02*
G75*
G03*
X-9093639Y-56138245I10655386J55864203D01*
G01*
X3808686Y-81501055D02*
G75*
G02*
X-3808686Y-81501055I-3808686J81500803D01*
G01*
X8843476Y82839296D02*
G75*
G02*
X20022559Y80868121I-8843436J-82839046D01*
G01*
X51270894Y-13427413D02*
G75*
G03*
X52771327Y-4918037I-51270934J13427423D01*
G01*
X-76796391Y24892713D02*
G75*
G02*
X-74830173Y30294842I76796791J-24892913D01*
G01*
X-67319197Y49078323D02*
G75*
G02*
X-60022569Y57774106I67319023J-49078174D01*
G01*
X51712493Y15057148D02*
G75*
G03*
X49292612Y21705703I-51712393J-15057148D01*
G01*
X-15580863Y52006161D02*
G75*
G03*
X-21493283Y49854216I15580852J-52006129D01*
G01*
X55043289Y7705371D02*
G75*
G03*
X54359165Y11585233I-55043425J-7705390D01*
G01*
X17903333Y-79601500D02*
G75*
G02*
X10401686Y-80924244I-17903333J79601400D01*
G01*
X-2407136Y80263913D02*
G75*
G02*
X0Y80300000I2407102J-80262128D01*
G01*
X-60022569Y-57774106D02*
G75*
G02*
X-67319197Y-49078323I60022395J57773957D01*
G01*
X24296008Y77888588D02*
G75*
G02*
X31453997Y75283293I-24296116J-77888881D01*
G01*
X6608410Y-83910177D02*
G75*
G02*
X-6608410Y-83910177I-6608410J83910152D01*
G01*
X-83910177Y-6608410D02*
G75*
G02*
X-83910177Y6608410I83910152J6608410D01*
G01*
X23808176Y-48312217D02*
G75*
G03*
X29935515Y-44774588I-23808176J48312117D01*
G01*
X82839296Y-8843476D02*
G75*
G02*
X80868121Y-20022559I-82839046J8843436D01*
G01*
X29595269Y46536465D02*
G75*
G03*
X25504126Y48898487I-29595269J-46536465D01*
G01*
X4918037Y-52771327D02*
G75*
G03*
X13427413Y-51270894I-4918047J52771367D01*
G01*
X68307019Y42216598D02*
G75*
G02*
X69541839Y40150000I-68303219J-42214298D01*
G01*
X-20848597Y-51521572D02*
G75*
G03*
X-17146476Y-52869034I20848383J51520979D01*
G01*
X-68307019Y-42216598D02*
G75*
G02*
X-69541840Y-40150000I68303220J42214333D01*
G01*
X70714156Y-38047315D02*
G75*
G02*
X69541840Y-40150000I-70716269J38048499D01*
G01*
X11567116Y79462518D02*
G75*
G02*
X13943949Y79080063I-11567371J-79464284D01*
G01*
X1185232Y56427554D02*
G75*
G03*
X-1185232Y56427554I-1185232J-56428571D01*
G01*
X-37261017Y-38293361D02*
G75*
G03*
X-31241291Y-43344511I37260922J38293246D01*
G01*
X-59971507Y-54684220D02*
G75*
G02*
X-64267388Y-49564591I59971707J54684420D01*
G01*
X-32032153Y75506434D02*
G75*
G02*
X-23996547Y78431155I32032063J-75506196D01*
G01*
X-68677641Y-44048947D02*
G75*
G02*
X-72486327Y-37452109I68677373J44048790D01*
G01*
X8631316Y-55776106D02*
G75*
G03*
X10965768Y-55364477I-8631116J55774706D01*
G01*
X-83782931Y8062836D02*
G75*
G02*
X-81487855Y21078863I83782831J-8062814D01*
G01*
X-49178420Y-66712648D02*
G75*
G02*
X-57159389Y-60015818I49178520J66712748D01*
G01*
X-83312243Y8453271D02*
G75*
G02*
X-81179089Y20550989I83312423J-8453301D01*
G01*
X52823620Y-4320324D02*
G75*
G03*
X52823620Y4320324I-52823703J4320324D01*
G01*
X-4320324Y-52823620D02*
G75*
G03*
X4320324Y-52823620I4320324J52823703D01*
G01*
X-45869373Y69029668D02*
G75*
G02*
X-36846758Y74238875I45869473J-69029868D01*
G01*
X80263913Y2407136D02*
G75*
G02*
X80300001Y0I-80262113J-2407136D01*
G01*
X-48874086Y-68526729D02*
G75*
G02*
X-58998758Y-60031121I48874065J68526708D01*
G01*
X-80263913Y-2407136D02*
G75*
G02*
X-80300000Y0I80262128J2407102D01*
G01*
X37261017Y38293361D02*
G75*
G03*
X31241290Y43344509I-37260917J-38293261D01*
G01*
X-54684220Y59971507D02*
G75*
G02*
X-49564591Y64267388I54684420J-59971707D01*
G01*
X-69364140Y-47678139D02*
G75*
G02*
X-75972550Y-36232038I69364140J47678139D01*
G01*
X13427413Y51270894D02*
G75*
G03*
X4918037Y52771327I-13427423J-51270934D01*
G01*
X-55364479Y10965768D02*
G75*
G03*
X-55776106Y8631316I55363125J-10965532D01*
G01*
X-38047315Y-70714156D02*
G75*
G02*
X-40150000Y-69541839I38048515J70716256D01*
G01*
X-18964040Y80239440D02*
G75*
G02*
X-9623137Y81886493I18964080J-80239690D01*
G01*
X-53150868Y-17666502D02*
G75*
G03*
X-52071736Y-20631394I53150054J17666198D01*
G01*
X-29360119Y-47698045D02*
G75*
G03*
X-26627660Y-49275631I29359816J47697519D01*
G01*
X-75506434Y-32032153D02*
G75*
G02*
X-78431155Y-23996547I75506196J32032063D01*
G01*
X45869373Y-69029668D02*
G75*
G02*
X36846759Y-74238876I-45869473J69029850D01*
G01*
X18703790Y-53706286D02*
G75*
G03*
X20193801Y-53163966I-18704336J53707752D01*
G01*
X-49470246Y-64881607D02*
G75*
G02*
X-55305491Y-59985254I49470346J64881707D01*
G01*
X-81908480Y-4275656D02*
G75*
G02*
X-81908480Y4275656I81908167J4275656D01*
G01*
X-64267387Y49564590D02*
G75*
G02*
X-59971506Y54684219I64267587J-49564790D01*
G01*
X-49275631Y-26627660D02*
G75*
G03*
X-47698045Y-29360119I49275105J26627357D01*
G01*
X74238876Y-36846759D02*
G75*
G02*
X69029668Y-45869373I-74239058J36846859D01*
G01*
X53706286Y18703790D02*
G75*
G03*
X53163966Y20193801I-53707752J-18704336D01*
G01*
X-31835805Y43444000D02*
G75*
G03*
X-37255758Y38896119I31835666J-43443830D01*
G01*
X-82839296Y8843476D02*
G75*
G02*
X-80868122Y20022559I82839047J-8843432D01*
G01*
X-64881607Y49470246D02*
G75*
G02*
X-59985254Y55305491I64881707J-49470346D01*
G01*
X-54863253Y11275795D02*
G75*
G03*
X-55411144Y8168557I54863753J-11275895D01*
G01*
X-76246696Y25189907D02*
G75*
G02*
X-75457317Y27464218I76246408J-25189831D01*
G01*
X-6608410Y83910177D02*
G75*
G02*
X6608410Y83910177I6608410J-83910152D01*
G01*
X49470246Y64881607D02*
G75*
G02*
X55305491Y59985254I-49470330J-64881693D01*
G01*
X47698045Y-29360119D02*
G75*
G03*
X49275630Y-26627660I-47697545J29359819D01*
G01*
X-77343677Y24594739D02*
G75*
G02*
X-75057885Y30874894I77343877J-24594839D01*
G01*
X-53921659Y-6313379D02*
G75*
G03*
X-52829088Y-12509658I53921418J6313335D01*
G01*
X-63033002Y49748675D02*
G75*
G02*
X-61513369Y51615845I63034602J-49749975D01*
G01*
X-29478487Y-47118523D02*
G75*
G03*
X-26066594Y-49088380I29478370J47118328D01*
G01*
X-52619183Y20413114D02*
G75*
G03*
X-53429929Y18185606I52617495J-20412485D01*
G01*
X-37049620Y-73656827D02*
G75*
G02*
X-45263873Y-68914326I37049529J73656672D01*
G01*
X63033002Y-49748675D02*
G75*
G02*
X61513369Y-51615845I-63034573J49749949D01*
G01*
X29823845Y45364549D02*
G75*
G03*
X24374928Y48510478I-29823745J-45364449D01*
G01*
X78626529Y16308249D02*
G75*
G02*
X79080063Y13943949I-78634236J-16309734D01*
G01*
X-21279590Y-50412870D02*
G75*
G03*
X-16103656Y-52296755I21279690J50413170D01*
G01*
X6777769Y-54298621D02*
G75*
G03*
X12202202Y-53342147I-6777795J54298759D01*
G01*
X-48976868Y-67923884D02*
G75*
G02*
X-58387223Y-60027658I48976842J67923848D01*
G01*
X60015819Y57159390D02*
G75*
G02*
X66712648Y49178420I-60015965J-57159512D01*
G01*
X-29118837Y-48849670D02*
G75*
G03*
X-27745636Y-49642489I29118937J48849770D01*
G01*
X-792818Y-56864473D02*
G75*
G03*
X792818Y-56864473I792818J56859945D01*
G01*
X53743696Y-3537623D02*
G75*
G03*
X53743696Y3537623I-53743852J3537623D01*
G01*
X54198775Y-3145933D02*
G75*
G03*
X54198775Y3145933I-54198808J3145933D01*
G01*
X38896119Y-37255758D02*
G75*
G03*
X43444005Y-31835809I-38895919J37255658D01*
G01*
X55364479Y-10965768D02*
G75*
G03*
X55776108Y-8631316I-55363079J10965568D01*
G01*
X43987866Y35362992D02*
G75*
G03*
X42464162Y37178873I-43988331J-35363356D01*
G01*
X22126518Y48160328D02*
G75*
G03*
X14006966Y51115602I-22126468J-48160208D01*
G01*
X27187336Y-49460311D02*
G75*
G03*
X29240219Y-48275081I-27186936J49459711D01*
G01*
X-30644808Y43242291D02*
G75*
G03*
X-37263927Y37688189I30644908J-43242391D01*
G01*
X-21078863Y81487855D02*
G75*
G02*
X-8062836Y83782931I21078841J-81487755D01*
G01*
X-81487855Y-21078863D02*
G75*
G02*
X-83782931Y-8062836I81487755J21078841D01*
G01*
X-30874895Y75057888D02*
G75*
G02*
X-24594740Y77343680I30874995J-75058088D01*
G01*
X-2362023Y-55099395D02*
G75*
G03*
X2362023Y-55099395I2362023J55099217D01*
G01*
X30045366Y44181907D02*
G75*
G03*
X23239970Y48111004I-30045448J-44182051D01*
G01*
X-52584354Y-16625528D02*
G75*
G03*
X-50968636Y-21064678I52584273J16625493D01*
G01*
X56138246Y9093639D02*
G75*
G03*
X55862903Y10655186I-56139574J-9093878D01*
G01*
X-42216598Y68307019D02*
G75*
G02*
X-40150000Y69541840I42214333J-68303220D01*
G01*
X67319197Y-49078323D02*
G75*
G02*
X60022564Y-57774101I-67318997J49078223D01*
G01*
X19493575Y-80554919D02*
G75*
G02*
X9233437Y-82364060I-19493575J80554819D01*
G01*
X36642857Y74818829D02*
G75*
G02*
X46473578Y69143059I-36642934J-74818955D01*
G01*
X81091179Y3341601D02*
G75*
G02*
X81091179Y-3341601I-81091243J-3341601D01*
G01*
X77888588Y-24296008D02*
G75*
G02*
X75283293Y-31453997I-77888881J24296116D01*
G01*
X49275631Y26627660D02*
G75*
G03*
X47698045Y29360119I-49275131J-26627360D01*
G01*
X-68796997Y-44657067D02*
G75*
G02*
X-73072653Y-37251413I68796819J44656962D01*
G01*
X-43816201Y-34194692D02*
G75*
G03*
X-41283799Y-37212686I43816601J34195092D01*
G01*
X-44657067Y68796997D02*
G75*
G02*
X-37251413Y73072653I44656962J-68796819D01*
G01*
X55411143Y8168557D02*
G75*
G03*
X54863253Y11275795I-55411650J-8168648D01*
G01*
X-83514438Y-6142173D02*
G75*
G02*
X-83514438Y6142173I83514538J6142173D01*
G01*
X-56864473Y792818D02*
G75*
G03*
X-56864473Y-792818I56859945J-792818D01*
G01*
X-13427413Y-51270894D02*
G75*
G03*
X-4918037Y-52771327I13427413J51270894D01*
G01*
X-43051100Y37159113D02*
G75*
G03*
X-44070329Y35944446I43056700J-37163913D01*
G01*
X34335374Y-76377154D02*
G75*
G02*
X22791866Y-80578648I-34335389J76377181D01*
G01*
X-24374930Y48510482D02*
G75*
G03*
X-29823845Y45364549I24374858J-48510350D01*
G01*
X64267387Y-49564590D02*
G75*
G02*
X59971507Y-54684220I-64267572J49564750D01*
G01*
X-56543060Y60007373D02*
G75*
G02*
X-49277123Y66104210I56543160J-60007573D01*
G01*
X-48312217Y-23808176D02*
G75*
G03*
X-44774594Y-29935519I48312157J23808141D01*
G01*
X49374414Y65493875D02*
G75*
G02*
X55925095Y59997192I-49374414J-65493775D01*
G01*
X56543060Y-60007373D02*
G75*
G02*
X49277127Y-66104215I-56543189J60007523D01*
G01*
X58387223Y-60027658D02*
G75*
G02*
X48976868Y-67923884I-58387223J60027658D01*
G01*
X16840474Y-78953982D02*
G75*
G02*
X11178984Y-79952258I-16840474J78953782D01*
G01*
X81908480Y4275656D02*
G75*
G02*
X81908480Y-4275656I-81908180J-4275656D01*
G01*
X39496504Y-37248225D02*
G75*
G03*
X43540837Y-32428377I-39496568J37248281D01*
G01*
X75727351Y32609366D02*
G75*
G02*
X78971417Y23696381I-75726951J-32609266D01*
G01*
X-29823845Y-45364549D02*
G75*
G03*
X-24374930Y-48510482I29823773J45364417D01*
G01*
X48111004Y23239970D02*
G75*
G03*
X44181907Y30045366I-48111148J-23240052D01*
G01*
X8062836Y83782931D02*
G75*
G02*
X21078863Y81487855I-8062816J-83782831D01*
G01*
X-49564590Y-64267387D02*
G75*
G02*
X-54684219Y-59971506I49564790J64267587D01*
G01*
X26627660Y-49275631D02*
G75*
G03*
X29360119Y-47698045I-26627360J49275131D01*
G01*
X37251413Y73072653D02*
G75*
G02*
X44657066Y68796996I-37251313J-73072453D01*
G01*
D14*
X0Y88900000D02*
G75*
G03*
X-88900000Y0I-1J-88899999D01*
G01*
D12*
X-78626529Y-16308249D02*
G75*
G02*
X-79080063Y-13943949I78634229J16309749D01*
G01*
X-44181907Y30045366D02*
G75*
G03*
X-48111009Y23239972I44182007J-30045466D01*
G01*
X31241291Y-43344511D02*
G75*
G03*
X37261018Y-38293362I-31241191J43344411D01*
G01*
X79601500Y17903333D02*
G75*
G02*
X80924244Y10401686I-79601400J-17903333D01*
G01*
X-42828721Y68432693D02*
G75*
G02*
X-37850090Y71307107I42828216J-68431816D01*
G01*
X-31453997Y75283293D02*
G75*
G02*
X-24296008Y77888587I31454097J-75283593D01*
G01*
X-76589565Y-34908845D02*
G75*
G02*
X-81109978Y-22489095I76589665J34908845D01*
G01*
X-55099395Y2362023D02*
G75*
G03*
X-55099395Y-2362023I55099217J-2362023D01*
G01*
X-48705880Y-24940242D02*
G75*
G03*
X-45951823Y-29710408I48705880J24940242D01*
G01*
X81406566Y-10012559D02*
G75*
G02*
X79921644Y-18433957I-81406466J10012559D01*
G01*
X-3808686Y81501055D02*
G75*
G02*
X3808686Y81501055I3808686J-81500803D01*
G01*
X79509393Y-23395529D02*
G75*
G02*
X75946085Y-33185638I-79509581J23395595D01*
G01*
X80554919Y19493575D02*
G75*
G02*
X82364060Y9233437I-80554819J-19493575D01*
G01*
X-66104215Y49277127D02*
G75*
G02*
X-60007378Y56543064I66104415J-49277227D01*
G01*
X35362992Y-43987866D02*
G75*
G03*
X37178873Y-42464162I-35363356J43988331D01*
G01*
X-80924243Y10401686D02*
G75*
G02*
X-79601500Y17903333I80924138J-10401670D01*
G01*
X-80439485Y10790501D02*
G75*
G02*
X-79278960Y17372170I80440085J-10790601D01*
G01*
X-3929097Y-53285337D02*
G75*
G03*
X3929097Y-53285337I3929097J53285484D01*
G01*
X1969857Y55545081D02*
G75*
G03*
X-1969857Y55545081I-1969857J-55544507D01*
G01*
X-41875074Y37196751D02*
G75*
G03*
X-43903177Y34779747I41875274J-37196851D01*
G01*
X59985254Y55305491D02*
G75*
G02*
X64881607Y49470246I-59985340J-55305575D01*
G01*
X-49460311Y-27187336D02*
G75*
G03*
X-48275079Y-29240218I49459667J27186965D01*
G01*
X-78971413Y23696380D02*
G75*
G02*
X-75727351Y32609366I78971046J-23696249D01*
G01*
X-23395529Y-79509393D02*
G75*
G02*
X-33185637Y-75946082I23395629J79509593D01*
G01*
X12509658Y52829088D02*
G75*
G03*
X6313379Y53921659I-12509618J-52828848D01*
G01*
X50412870Y-21279590D02*
G75*
G03*
X52296756Y-16103656I-50413202J21279712D01*
G01*
X-53158093Y-5383496D02*
G75*
G03*
X-51793534Y-13122308I53158193J5383496D01*
G01*
X-2874414Y80678812D02*
G75*
G02*
X2874414Y80678812I2874414J-80679413D01*
G01*
X-12816373Y-52312906D02*
G75*
G03*
X-5848616Y-53541510I12816324J52312605D01*
G01*
X-23996547Y-78431155D02*
G75*
G02*
X-32032153Y-75506434I23996457J78430917D01*
G01*
X43726864Y33607794D02*
G75*
G03*
X40690303Y37226619I-43726664J-33607694D01*
G01*
X-22791866Y-80578648D02*
G75*
G02*
X-34335374Y-76377155I22791866J80578648D01*
G01*
X-48510482Y-24374930D02*
G75*
G03*
X-45364549Y-29823845I48510350J24374858D01*
G01*
X-49374414Y-65493875D02*
G75*
G02*
X-55925099Y-59997197I49374373J65493820D01*
G01*
X-46536465Y29595269D02*
G75*
G03*
X-48898487Y25504126I46536465J-29595263D01*
G01*
X-48898487Y-25504126D02*
G75*
G03*
X-46536465Y-29595269I48898487J25504120D01*
G01*
X-47076497Y69254538D02*
G75*
G02*
X-36437938Y75396705I47076497J-69254638D01*
G01*
X54061269Y-59955918D02*
G75*
G02*
X49657411Y-63651192I-54061169J59955818D01*
G01*
X11178984Y79952256D02*
G75*
G02*
X16840474Y78953980I-11178984J-79952056D01*
G01*
X-29713843Y74600117D02*
G75*
G02*
X-27464218Y75457317I29713843J-74600117D01*
G01*
X-53743696Y3537623D02*
G75*
G03*
X-53743696Y-3537623I53743896J-3537623D01*
G01*
X-51415668Y-14532515D02*
G75*
G03*
X-48728007Y-21916802I51415584J14532487D01*
G01*
X-48275079Y29240218D02*
G75*
G03*
X-49460311Y27187336I48274435J-29239847D01*
G01*
X-14532515Y51415668D02*
G75*
G03*
X-21916802Y48728007I14532487J-51415584D01*
G01*
X9623137Y81886493D02*
G75*
G02*
X18964040Y80239440I-9623178J-81886741D01*
G01*
X-43726864Y-33607794D02*
G75*
G03*
X-40690307Y-37226623I43726707J33607649D01*
G01*
X80678812Y2874414D02*
G75*
G02*
X80678812Y-2874414I-80679413J-2874414D01*
G01*
X55305491Y-59985254D02*
G75*
G02*
X49470246Y-64881607I-55305575J59985340D01*
G01*
X52071736Y-20631394D02*
G75*
G03*
X53150868Y-17666502I-52070936J20631094D01*
G01*
X81886493Y-9623137D02*
G75*
G02*
X80239440Y-18964040I-81886741J9623178D01*
G01*
X-37238491Y-40094553D02*
G75*
G03*
X-33019031Y-43635102I37238591J40094653D01*
G01*
X52296756Y16103656D02*
G75*
G03*
X50412870Y21279590I-52297088J-16103778D01*
G01*
X-37226623Y-40690307D02*
G75*
G03*
X-33607794Y-43726864I37226478J40690150D01*
G01*
X24940242Y-48705880D02*
G75*
G03*
X29710408Y-45951823I-24940274J48705929D01*
G01*
X29710408Y45951823D02*
G75*
G03*
X24940242Y48705880I-29710440J-45951872D01*
G01*
X-60031121Y-58998758D02*
G75*
G02*
X-68526729Y-48874086I60031100J58998737D01*
G01*
X-10965768Y-55364479D02*
G75*
G03*
X-8631316Y-55776106I10965532J55363125D01*
G01*
X80924243Y-10401686D02*
G75*
G02*
X79601499Y-17903333I-80924143J10401686D01*
G01*
X64881607Y-49470246D02*
G75*
G02*
X59985254Y-55305491I-64881693J49470330D01*
G01*
X-55862903Y10655186D02*
G75*
G03*
X-56138245Y9093639I55864203J-10655386D01*
G01*
X29118837Y48849670D02*
G75*
G03*
X27745636Y49642488I-29118900J-48849776D01*
G01*
X69254538Y47076497D02*
G75*
G02*
X75396711Y36437941I-69254604J-47076534D01*
G01*
X78431155Y-23996547D02*
G75*
G02*
X75506436Y-32032154I-78430955J23996447D01*
G01*
X49078323Y67319197D02*
G75*
G02*
X57774101Y60022564I-49078223J-67318997D01*
G01*
X-20413114Y-52619183D02*
G75*
G03*
X-18185606Y-53429929I20412485J52617495D01*
G01*
X-52771327Y-4918037D02*
G75*
G03*
X-51270894Y-13427413I52771327J4918037D01*
G01*
X33185638Y-75946085D02*
G75*
G02*
X23395529Y-79509393I-33185704J75946273D01*
G01*
X-7705371Y55043289D02*
G75*
G03*
X-11585233Y54359166I7705371J-55043389D01*
G01*
X-78431155Y23996547D02*
G75*
G02*
X-75506434Y32032153I78430917J-23996457D01*
G01*
X-55305491Y59985254D02*
G75*
G02*
X-49470246Y64881607I55305591J-59985354D01*
G01*
X2362023Y55099395D02*
G75*
G03*
X-2362023Y55099395I-2362023J-55099217D01*
G01*
X-70714156Y38047315D02*
G75*
G02*
X-69541839Y40150000I70716256J-38048515D01*
G01*
X79462518Y-11567116D02*
G75*
G02*
X79080063Y-13943949I-79464284J11567371D01*
G01*
X-35944445Y44070328D02*
G75*
G03*
X-37159112Y43051099I35949245J-44075928D01*
G01*
X76246696Y-25189907D02*
G75*
G02*
X75457318Y-27464218I-76246396J25189807D01*
G01*
X54672472Y7241771D02*
G75*
G03*
X53852151Y11894048I-54671972J-7241671D01*
G01*
X42216598Y-68307019D02*
G75*
G02*
X40150000Y-69541839I-42214298J68303219D01*
G01*
X10012559Y81406566D02*
G75*
G02*
X18433957Y79921644I-10012559J-81406466D01*
G01*
X51793532Y-13122307D02*
G75*
G03*
X53158093Y-5383496I-51793591J13122316D01*
G01*
X-8062836Y-83782931D02*
G75*
G02*
X-21078863Y-81487855I8062814J83782831D01*
G01*
X-48849670Y29118837D02*
G75*
G03*
X-49642489Y27745636I48849770J-29118937D01*
G01*
X-76377154Y-34335374D02*
G75*
G02*
X-80578647Y-22791866I76377154J34335374D01*
G01*
X-80239440Y-18964040D02*
G75*
G02*
X-81886489Y-9623137I80239640J18964040D01*
G01*
X-37263928Y-37688190D02*
G75*
G03*
X-30644809Y-43242293I37264028J37688290D01*
G01*
X-26066594Y49088380D02*
G75*
G03*
X-29478487Y47118523I26066477J-49088185D01*
G01*
X-56427554Y1185232D02*
G75*
G03*
X-56427554Y-1185232I56428554J-1185232D01*
G01*
X43444000Y31835805D02*
G75*
G03*
X38896114Y37255754I-43443800J-31835705D01*
G01*
X-63651193Y49657412D02*
G75*
G02*
X-59955918Y54061269I63651055J-49657299D01*
G01*
X69364140Y47678139D02*
G75*
G02*
X75972550Y36232038I-69364186J-47678169D01*
G01*
X43635101Y33019031D02*
G75*
G03*
X40094553Y37238491I-43635175J-33019099D01*
G01*
X-81091179Y-3341601D02*
G75*
G02*
X-81091179Y3341601I81091279J3341601D01*
G01*
X-10401686Y-80924243D02*
G75*
G02*
X-17903333Y-79601500I10401670J80924138D01*
G01*
X82716132Y5209209D02*
G75*
G02*
X82716132Y-5209209I-82716032J-5209209D01*
G01*
X-30045366Y-44181907D02*
G75*
G03*
X-23239972Y-48111009I30045466J44182007D01*
G01*
X-8631316Y55776106D02*
G75*
G03*
X-10965768Y55364479I8631080J-55774752D01*
G01*
X48160328Y-22126518D02*
G75*
G03*
X51115602Y-14006966I-48160208J22126468D01*
G01*
X36437941Y75396711D02*
G75*
G02*
X47076497Y69254538I-36437978J-75396777D01*
G01*
X-36846759Y-74238876D02*
G75*
G02*
X-45869374Y-69029669I36846859J74239076D01*
G01*
X82364058Y-9233437D02*
G75*
G02*
X80554917Y-19493574I-82363958J9233437D01*
G01*
X-33760973Y76162673D02*
G75*
G02*
X-23094016Y80045123I33760973J-76162773D01*
G01*
X-54298621Y-6777769D02*
G75*
G03*
X-53342149Y-12202202I54298721J6777769D01*
G01*
X20848597Y51521572D02*
G75*
G03*
X17146476Y52869035I-20848397J-51520972D01*
G01*
X-68914326Y-45263873D02*
G75*
G02*
X-73656827Y-37049620I68914171J45263782D01*
G01*
X-18703790Y53706286D02*
G75*
G03*
X-20193802Y53163967I18704290J-53707786D01*
G01*
X68556220Y43439501D02*
G75*
G02*
X71897822Y37651678I-68556020J-43439401D01*
G01*
X-40690307Y37226623D02*
G75*
G03*
X-43726864Y33607794I40690150J-37226478D01*
G01*
X43903179Y34779749D02*
G75*
G03*
X41875074Y37196751I-43903368J-34779899D01*
G01*
X-53429929Y-18185606D02*
G75*
G03*
X-52619183Y-20413114I53428241J18184977D01*
G01*
X34194692Y-43816201D02*
G75*
G03*
X37212688Y-41283801I-34195061J43816630D01*
G01*
X52869034Y17146476D02*
G75*
G03*
X51521571Y20848597I-52868434J-17146276D01*
G01*
X-53285337Y3929097D02*
G75*
G03*
X-53285337Y-3929097I53285437J-3929097D01*
G01*
X47906758Y22670300D02*
G75*
G03*
X43586435Y30153320I-47906834J-22670340D01*
G01*
X-43903179Y-34779749D02*
G75*
G03*
X-41875076Y-37196753I43903379J34779849D01*
G01*
X-34779749Y43903179D02*
G75*
G03*
X-37196753Y41875076I34779849J-43903379D01*
G01*
X49277127Y66104215D02*
G75*
G02*
X56543060Y60007373I-49277256J-66104365D01*
G01*
X-51270894Y13427413D02*
G75*
G03*
X-52771327Y4918037I51270894J-13427413D01*
G01*
X33607794Y-43726864D02*
G75*
G03*
X37226619Y-40690303I-33607694J43726664D01*
G01*
X69143059Y46473578D02*
G75*
G02*
X74818829Y36642857I-69143185J-46473655D01*
G01*
X23094017Y80045128D02*
G75*
G02*
X33760973Y76162673I-23094058J-80045229D01*
G01*
X-54359165Y11585233D02*
G75*
G03*
X-55043288Y7705371I54359265J-11585233D01*
G01*
X-50412870Y21279590D02*
G75*
G03*
X-52296755Y16103656I50413170J-21279690D01*
G01*
X-43635101Y-33019031D02*
G75*
G03*
X-40094552Y-37238490I43635201J33019131D01*
G01*
X20022559Y-80868122D02*
G75*
G02*
X8843476Y-82839297I-20022519J80867872D01*
G01*
X-53541510Y-5848616D02*
G75*
G03*
X-52312906Y-12816373I53541209J5848567D01*
G01*
X-69143059Y-46473578D02*
G75*
G02*
X-74818833Y-36642859I69143159J46473678D01*
G01*
X-12509658Y-52829088D02*
G75*
G03*
X-6313379Y-53921659I12509614J52828847D01*
G01*
X-20193801Y-53163966D02*
G75*
G03*
X-18703789Y-53706285I20194301J53165466D01*
G01*
X-45364549Y29823845D02*
G75*
G03*
X-48510482Y24374930I45364417J-29823773D01*
G01*
X-21916802Y-48728007D02*
G75*
G03*
X-14532515Y-51415668I21916774J48727923D01*
G01*
X-9623137Y-81886493D02*
G75*
G02*
X-18964040Y-80239440I9623177J81886743D01*
G01*
X-15057148Y51712493D02*
G75*
G03*
X-21705705Y49292616I15057123J-51712420D01*
G01*
X83910177Y6608410D02*
G75*
G02*
X83910177Y-6608410I-83910177J-6608410D01*
G01*
X-5209209Y82716132D02*
G75*
G02*
X5209209Y82716132I5209209J-82715984D01*
G01*
X-37452109Y-72486327D02*
G75*
G02*
X-44048947Y-68677641I37451952J72486059D01*
G01*
X-52071736Y20631394D02*
G75*
G03*
X-53150868Y17666502I52070922J-20631090D01*
G01*
X-47698045Y29360119D02*
G75*
G03*
X-49275631Y26627660I47697519J-29359816D01*
G01*
X-43540837Y-32428377D02*
G75*
G03*
X-39496503Y-37248224I43540937J32428477D01*
G01*
X37159113Y43051100D02*
G75*
G03*
X35944445Y44070328I-37163872J-43056749D01*
G01*
X-53342147Y12202202D02*
G75*
G03*
X-54298619Y6777769I53342247J-12202202D01*
G01*
X4320324Y52823620D02*
G75*
G03*
X-4320324Y52823620I-4320324J-52823703D01*
G01*
X21064678Y50968636D02*
G75*
G03*
X16625529Y52584357I-21064678J-50968536D01*
G01*
X-52312906Y12816373D02*
G75*
G03*
X-53541510Y5848616I52312605J-12816324D01*
G01*
X66104215Y-49277127D02*
G75*
G02*
X60007373Y-56543060I-66104365J49277256D01*
G01*
X47678139Y-69364140D02*
G75*
G02*
X36232038Y-75972550I-47678169J69364186D01*
G01*
X-69029668Y-45869373D02*
G75*
G02*
X-74238875Y-36846758I69029868J45869473D01*
G01*
X-9233437Y-82364058D02*
G75*
G02*
X-19493575Y-80554919I9233411J82363920D01*
G01*
X-48728007Y21916802D02*
G75*
G03*
X-51415668Y14532515I48727923J-21916774D01*
G01*
X-81179089Y-20550989D02*
G75*
G02*
X-83312238Y-8453270I81179289J20550989D01*
G01*
X37178873Y42464162D02*
G75*
G03*
X35362992Y43987866I-37179237J-42464627D01*
G01*
D14*
X0Y-88900000D02*
G75*
G03*
X88900000Y0I0J88900000D01*
G01*
D12*
X37049620Y73656827D02*
G75*
G02*
X45263872Y68914325I-37049520J-73656627D01*
G01*
X11894048Y53852151D02*
G75*
G03*
X7241771Y54672472I-11893948J-53851651D01*
G01*
X38047315Y70714156D02*
G75*
G02*
X40150000Y69541840I-38048499J-70716269D01*
G01*
X-51793532Y13122307D02*
G75*
G03*
X-53158091Y5383496I51793632J-13122307D01*
G01*
X54650650Y-2754057D02*
G75*
G03*
X54650650Y2754057I-54650450J2754057D01*
G01*
X24892713Y76796391D02*
G75*
G02*
X30294844Y74830177I-24892864J-76796838D01*
G01*
X-51115603Y-14006966D02*
G75*
G03*
X-48160328Y-22126518I51115483J14006921D01*
G01*
X59955918Y54061269D02*
G75*
G02*
X63651192Y49657411I-59955818J-54061169D01*
G01*
X-25504126Y48898487D02*
G75*
G03*
X-29595269Y46536465I25504120J-48898487D01*
G01*
X-22126518Y-48160328D02*
G75*
G03*
X-14006966Y-51115603I22126473J48160208D01*
G01*
X-77888588Y24296008D02*
G75*
G02*
X-75283294Y31453997I77888888J-24296108D01*
G01*
X-55987778Y1577586D02*
G75*
G03*
X-55987778Y-1577586I55986945J-1577586D01*
G01*
X-37251413Y-73072653D02*
G75*
G02*
X-44657067Y-68796997I37251308J73072475D01*
G01*
X22489097Y81109984D02*
G75*
G02*
X34908845Y76589565I-22489143J-81110104D01*
G01*
X-49277127Y-66104215D02*
G75*
G02*
X-56543064Y-60007378I49277227J66104415D01*
G01*
X51415668Y14532515D02*
G75*
G03*
X48728003Y21916800I-51415568J-14532515D01*
G01*
X-40094553Y37238491D02*
G75*
G03*
X-43635102Y33019031I40094653J-37238591D01*
G01*
X-45263873Y68914326D02*
G75*
G02*
X-37049620Y73656827I45263782J-68914171D01*
G01*
X-39496504Y37248225D02*
G75*
G03*
X-43540838Y32428378I39496604J-37248325D01*
G01*
X31835805Y-43444000D02*
G75*
G03*
X37255754Y-38896114I-31835705J43443800D01*
G01*
X-75946085Y-33185638D02*
G75*
G02*
X-79509396Y-23395530I75946285J33185738D01*
G01*
X-4918037Y52771327D02*
G75*
G03*
X-13427413Y51270894I4918037J-52771327D01*
G01*
X-53436622Y59938447D02*
G75*
G02*
X-51615845Y61513369I53435221J-59936820D01*
G01*
X33760973Y-76162673D02*
G75*
G02*
X23094017Y-80045128I-33761014J76162774D01*
G01*
X-58998758Y60031121D02*
G75*
G02*
X-48874086Y68526729I58998737J-60031100D01*
G01*
X-1185232Y-56427554D02*
G75*
G03*
X1185232Y-56427554I1185232J56428571D01*
G01*
X60027658Y58387223D02*
G75*
G02*
X67923884Y48976868I-60027658J-58387223D01*
G01*
X49657412Y63651193D02*
G75*
G02*
X54061270Y59955919I-49657312J-63651093D01*
G01*
X-60027658Y-58387223D02*
G75*
G02*
X-67923884Y-48976868I60027622J58387197D01*
G01*
X-37651678Y-71897822D02*
G75*
G02*
X-43439501Y-68556220I37651591J71897654D01*
G01*
X80439485Y-10790501D02*
G75*
G02*
X79278959Y-17372170I-80440093J10790610D01*
G01*
X5848616Y-53541510D02*
G75*
G03*
X12816373Y-52312906I-5848566J53541210D01*
G01*
X-37159113Y-43051100D02*
G75*
G03*
X-35944446Y-44070329I37163913J43056700D01*
G01*
X81109984Y-22489097D02*
G75*
G02*
X76589565Y-34908845I-81110104J22489143D01*
G01*
X-49088380Y-26066594D02*
G75*
G03*
X-47118523Y-29478487I49088185J26066477D01*
G01*
X-33019031Y43635101D02*
G75*
G03*
X-37238490Y40094552I33019131J-43635201D01*
G01*
X-80554919Y-19493575D02*
G75*
G02*
X-82364058Y-9233437I80554781J19493549D01*
G01*
X8453271Y83312243D02*
G75*
G02*
X20550989Y81179089I-8453302J-83312424D01*
G01*
X43586435Y-30153320D02*
G75*
G03*
X47906758Y-22670300I-43586511J30153360D01*
G01*
X-37688190Y37263928D02*
G75*
G03*
X-43242293Y30644809I37688290J-37264028D01*
G01*
X37248225Y39496504D02*
G75*
G03*
X32428377Y43540837I-37248281J-39496568D01*
G01*
X5675769Y-83116435D02*
G75*
G02*
X-5675769Y-83116435I-5675769J83116489D01*
G01*
X-53163966Y20193801D02*
G75*
G03*
X-53706285Y18703789I53165466J-20194301D01*
G01*
X-81406566Y10012559D02*
G75*
G02*
X-79921647Y18433958I81406422J-10012525D01*
G01*
X-8843476Y-82839296D02*
G75*
G02*
X-20022559Y-80868122I8843432J82839047D01*
G01*
X-37178873Y-42464162D02*
G75*
G03*
X-35362992Y-43987866I37179273J42464662D01*
G01*
X-57159390Y60015819D02*
G75*
G02*
X-49178421Y66712649I57159490J-60015919D01*
G01*
X-49657412Y-63651193D02*
G75*
G02*
X-54061269Y-59955918I49657299J63651055D01*
G01*
X-11585233Y-54359165D02*
G75*
G03*
X-7705371Y-55043288I11585233J54359265D01*
G01*
X55987778Y-1577586D02*
G75*
G03*
X55987778Y1577586I-55986978J1577586D01*
G01*
X73656827Y-37049620D02*
G75*
G02*
X68914325Y-45263872I-73656627J37049520D01*
G01*
X1577586Y55987778D02*
G75*
G03*
X-1577586Y55987778I-1577586J-55986945D01*
G01*
X-10790501Y-80439485D02*
G75*
G02*
X-17372170Y-79278960I10790601J80440085D01*
G01*
X37226623Y40690307D02*
G75*
G03*
X33607797Y43726868I-37226523J-40690107D01*
G01*
X37452109Y72486327D02*
G75*
G02*
X44048948Y68677643I-37451909J-72486027D01*
G01*
X68914326Y45263873D02*
G75*
G02*
X73656828Y37049621I-68914126J-45263773D01*
G01*
X30874895Y-75057888D02*
G75*
G02*
X24594739Y-77343677I-30874964J75058108D01*
G01*
X48849670Y-29118837D02*
G75*
G03*
X49642488Y-27745636I-48849776J29118900D01*
G01*
X66712648Y-49178420D02*
G75*
G02*
X60015819Y-57159390I-66712794J49178542D01*
G01*
X-22489097Y-81109984D02*
G75*
G02*
X-34908845Y-76589564I22489147J81110104D01*
G01*
X-82364058Y9233437D02*
G75*
G02*
X-80554919Y19493575I82363920J-9233411D01*
G01*
X55925099Y-59997197D02*
G75*
G02*
X49374418Y-65493880I-55925099J59997097D01*
G01*
X-68432693Y-42828721D02*
G75*
G02*
X-71307107Y-37850090I68431816J42828216D01*
G01*
X-79921647Y-18433958D02*
G75*
G02*
X-81406566Y-10012559I79921503J18433924D01*
G01*
X59938447Y53436622D02*
G75*
G02*
X61513369Y51615845I-59936847J-53435222D01*
G01*
X-29935519Y-44774594D02*
G75*
G03*
X-23808176Y-48312217I29935484J44774534D01*
G01*
X75506434Y32032153D02*
G75*
G02*
X78431153Y23996546I-75506234J-32032053D01*
G01*
X-43444000Y-31835805D02*
G75*
G03*
X-38896119Y-37255758I43443830J31835666D01*
G01*
X52312906Y-12816373D02*
G75*
G03*
X53541510Y-5848616I-52312606J12816323D01*
G01*
X57774106Y-60022569D02*
G75*
G02*
X49078327Y-67319203I-57774006J60022369D01*
G01*
X-4275656Y81908480D02*
G75*
G02*
X4275656Y81908480I4275656J-81908167D01*
G01*
X12202202Y53342147D02*
G75*
G03*
X6777769Y54298621I-12202228J-53342285D01*
G01*
X-52296756Y-16103656D02*
G75*
G03*
X-50412871Y-21279590I52297056J16103756D01*
G01*
X81487855Y21078863D02*
G75*
G02*
X83782934Y8062836I-81487755J-21078863D01*
G01*
X20631394Y52071736D02*
G75*
G03*
X17666502Y53150868I-20631094J-52070936D01*
G01*
X29713843Y-74600117D02*
G75*
G02*
X27464218Y-75457317I-29713869J74600165D01*
G01*
X-59985254Y-55305491D02*
G75*
G02*
X-64881607Y-49470246I59985354J55305591D01*
G01*
X-71897822Y37651678D02*
G75*
G02*
X-68556220Y43439501I71897654J-37651591D01*
G01*
X57159390Y-60015819D02*
G75*
G02*
X49178420Y-66712648I-57159512J60015965D01*
G01*
X-74238876Y36846759D02*
G75*
G02*
X-69029669Y45869374I74239076J-36846859D01*
G01*
X18185606Y-53429929D02*
G75*
G03*
X20413114Y-52619182I-18185006J53428229D01*
G01*
X-49748675Y-63033002D02*
G75*
G02*
X-51615845Y-61513369I49749975J63034602D01*
G01*
X-74830177Y-30294844D02*
G75*
G02*
X-76796395Y-24892714I74830577J30295044D01*
G01*
X-60015819Y-57159390D02*
G75*
G02*
X-66712649Y-49178421I60015919J57159490D01*
G01*
X81179089Y20550989D02*
G75*
G02*
X83312243Y8453271I-81179270J-20551020D01*
G01*
X-73072653Y37251413D02*
G75*
G02*
X-68796997Y44657067I73072475J-37251308D01*
G01*
X-5675769Y83116435D02*
G75*
G02*
X5675769Y83116435I5675769J-83116489D01*
G01*
X-47118523Y29478487D02*
G75*
G03*
X-49088380Y26066594I47118328J-29478370D01*
G01*
X42828721Y-68432693D02*
G75*
G02*
X37850091Y-71307108I-42828221J68431793D01*
G01*
X-14006966Y51115603D02*
G75*
G03*
X-22126518Y48160328I14006921J-51115483D01*
G01*
X58998758Y-60031121D02*
G75*
G02*
X48874086Y-68526729I-58998758J60031121D01*
G01*
X-34908845Y76589565D02*
G75*
G02*
X-22489097Y81109985I34908895J-76589685D01*
G01*
X-52006161Y-15580863D02*
G75*
G03*
X-49854216Y-21493283I52006129J15580852D01*
G01*
X16103656Y-52296756D02*
G75*
G03*
X21279590Y-50412870I-16103778J52297088D01*
G01*
X-43344511Y-31241291D02*
G75*
G03*
X-38293361Y-37261017I43344396J31241196D01*
G01*
X-68556220Y-43439501D02*
G75*
G02*
X-71897822Y-37651678I68556052J43439414D01*
G01*
X52006161Y15580863D02*
G75*
G03*
X49854216Y21493283I-52006161J-15580863D01*
G01*
X52771327Y4918037D02*
G75*
G03*
X51270894Y13427413I-52771367J-4918047D01*
G01*
X3537623Y53743696D02*
G75*
G03*
X-3537623Y53743696I-3537623J-53743852D01*
G01*
X67923884Y-48976868D02*
G75*
G02*
X60027658Y-58387223I-67923884J48976868D01*
G01*
X-50968636Y21064678D02*
G75*
G03*
X-52584354Y16625528I50968555J-21064643D01*
G01*
X49178420Y66712648D02*
G75*
G02*
X57159390Y60015819I-49178542J-66712794D01*
G01*
X-43439501Y68556220D02*
G75*
G02*
X-37651678Y71897822I43439414J-68556052D01*
G01*
X-38293361Y37261017D02*
G75*
G03*
X-43344511Y31241291I38293246J-37260922D01*
G01*
X8168557Y-55411143D02*
G75*
G03*
X11275795Y-54863253I-8168648J55411650D01*
G01*
X-1969857Y-55545081D02*
G75*
G03*
X1969857Y-55545081I1969857J55544507D01*
G01*
X-11275795Y-54863253D02*
G75*
G03*
X-8168557Y-55411144I11275895J54863753D01*
G01*
X46536465Y-29595269D02*
G75*
G03*
X48898487Y-25504126I-46536465J29595269D01*
G01*
X-8453271Y-83312243D02*
G75*
G02*
X-20550989Y-81179089I8453301J83312423D01*
G01*
X-26627660Y49275631D02*
G75*
G03*
X-29360119Y47698045I26627357J-49275105D01*
G01*
X53342147Y-12202202D02*
G75*
G03*
X54298621Y-6777769I-53342285J12202228D01*
G01*
X-79601500Y-17903333D02*
G75*
G02*
X-80924243Y-10401686I79601395J17903317D01*
G01*
X12816373Y52312906D02*
G75*
G03*
X5848616Y53541510I-12816323J-52312606D01*
G01*
X76589565Y34908845D02*
G75*
G02*
X81109984Y22489097I-76589685J-34908891D01*
G01*
X-82313493Y-4742501D02*
G75*
G02*
X-82313493Y4742501I82313294J4742501D01*
G01*
X35944445Y-44070328D02*
G75*
G03*
X37159113Y-43051100I-35949204J44075977D01*
G01*
X23395529Y79509393D02*
G75*
G02*
X33185638Y75946085I-23395595J-79509581D01*
G01*
X-80578648Y22791866D02*
G75*
G02*
X-76377155Y34335374I80578648J-22791866D01*
G01*
X48898487Y25504126D02*
G75*
G03*
X46536465Y29595269I-48898487J-25504126D01*
G01*
X-44048947Y68677641D02*
G75*
G02*
X-37452109Y72486327I44048790J-68677373D01*
G01*
X55776106Y8631316D02*
G75*
G03*
X55364477Y10965768I-55774706J-8631116D01*
G01*
X-24594739Y-77343677D02*
G75*
G02*
X-30874894Y-75057885I24594839J77343877D01*
G01*
X-79278959Y-17372170D02*
G75*
G02*
X-80439484Y-10790501I79279559J17372270D01*
G01*
X9093639Y-56138246D02*
G75*
G03*
X10655186Y-55862903I-9093878J56139574D01*
G01*
X-49642488Y-27745636D02*
G75*
G03*
X-48849669Y-29118836I49642588J27745736D01*
G01*
X-80868122Y-20022559D02*
G75*
G02*
X-82839296Y-8843476I80867873J20022515D01*
G01*
X-66712648Y49178420D02*
G75*
G02*
X-60015818Y57159389I66712748J-49178520D01*
G01*
X80045128Y-23094017D02*
G75*
G02*
X76162673Y-33760973I-80045229J23094058D01*
G01*
X3145933Y54198775D02*
G75*
G03*
X-3145933Y54198775I-3145933J-54198808D01*
G01*
X-54650650Y2754057D02*
G75*
G03*
X-54650650Y-2754057I54650473J-2754057D01*
G01*
X44048947Y-68677641D02*
G75*
G02*
X37452108Y-72486325I-44048747J68677341D01*
G01*
X30644808Y-43242291D02*
G75*
G03*
X37263928Y-37688190I-30644904J43242406D01*
G01*
X32609366Y-75727351D02*
G75*
G02*
X23696381Y-78971417I-32609266J75726951D01*
G01*
X21705705Y49292616D02*
G75*
G03*
X15057149Y51712497I-21705705J-49292516D01*
G01*
X-3537623Y-53743696D02*
G75*
G03*
X3537623Y-53743696I3537623J53743852D01*
G01*
X-21705705Y-49292616D02*
G75*
G03*
X-15057148Y-51712493I21705680J49292543D01*
G01*
X-4742501Y82313493D02*
G75*
G02*
X4742501Y82313493I4742501J-82313294D01*
G01*
X-37212688Y-41283801D02*
G75*
G03*
X-34194694Y-43816203I37213088J41284201D01*
G01*
X53429929Y18185606D02*
G75*
G03*
X52619182Y20413114I-53428229J-18185006D01*
G01*
X-75283293Y-31453997D02*
G75*
G02*
X-77888587Y-24296008I75283593J31454097D01*
G01*
X-30153320Y-43586435D02*
G75*
G03*
X-22670297Y-47906751I30153320J43586535D01*
G01*
X-75972550Y36232038D02*
G75*
G02*
X-69364140Y47678139I75972550J-36232038D01*
G01*
X59997197Y55925099D02*
G75*
G02*
X65493880Y49374418I-59997097J-55925099D01*
G01*
X75972550Y-36232038D02*
G75*
G02*
X69364140Y-47678139I-75972596J36232068D01*
G01*
X5209209Y-82716132D02*
G75*
G02*
X-5209209Y-82716132I-5209209J82715984D01*
G01*
X-76162673Y-33760973D02*
G75*
G02*
X-80045123Y-23094016I76162773J33760973D01*
G01*
X31453997Y-75283293D02*
G75*
G02*
X24296008Y-77888588I-31454105J75283586D01*
G01*
X-16308249Y78626529D02*
G75*
G02*
X-13943949Y79080063I16309749J-78634229D01*
G01*
X37651678Y71897822D02*
G75*
G02*
X43439501Y68556220I-37651578J-71897622D01*
G01*
X37255758Y38896119D02*
G75*
G03*
X31835809Y43444005I-37255658J-38895919D01*
G01*
X79952256Y-11178984D02*
G75*
G02*
X78953980Y-16840474I-79952056J11178984D01*
G01*
X22791866Y80578648D02*
G75*
G02*
X34335374Y76377154I-22791881J-80578675D01*
G01*
X-43586435Y30153320D02*
G75*
G03*
X-47906751Y22670297I43586535J-30153320D01*
G01*
X-69254538Y-47076497D02*
G75*
G02*
X-75396705Y-36437938I69254638J47076497D01*
G01*
X16308249Y-78626529D02*
G75*
G02*
X13943949Y-79080063I-16309734J78634236D01*
G01*
X-49292616Y21705705D02*
G75*
G03*
X-51712493Y15057148I49292543J-21705680D01*
G01*
X-48111004Y-23239970D02*
G75*
G03*
X-44181902Y-30045363I48111104J23240070D01*
G01*
X-43242291Y-30644808D02*
G75*
G03*
X-37688189Y-37263927I43242391J30644908D01*
G01*
X-74600117Y-29713843D02*
G75*
G02*
X-75457317Y-27464218I74600117J29713843D01*
G01*
X5383496Y-53158093D02*
G75*
G03*
X13122307Y-51793532I-5383505J53158152D01*
G01*
X74818829Y-36642857D02*
G75*
G02*
X69143059Y-46473578I-74818955J36642934D01*
G01*
X-37850090Y-71307107D02*
G75*
G02*
X-42828721Y-68432693I37849585J71306230D01*
G01*
X75396711Y-36437941D02*
G75*
G02*
X69254538Y-47076497I-75396777J36437978D01*
G01*
X-11894048Y-53852151D02*
G75*
G03*
X-7241771Y-54672472I11893947J53851644D01*
G01*
X-68526729Y48874086D02*
G75*
G02*
X-60031121Y58998758I68526708J-48874065D01*
G01*
X-49078323Y-67319197D02*
G75*
G02*
X-57774106Y-60022569I49078174J67319023D01*
G01*
X18433958Y-79921647D02*
G75*
G02*
X10012559Y-81406569I-18433958J79921547D01*
G01*
X76377154Y34335374D02*
G75*
G02*
X80578648Y22791866I-76377181J-34335389D01*
G01*
X49642488Y27745636D02*
G75*
G03*
X48849670Y29118837I-49642594J-27745699D01*
G01*
X49854216Y-21493283D02*
G75*
G03*
X52006161Y-15580863I-49854216J21493283D01*
G01*
X-7241771Y54672472D02*
G75*
G03*
X-11894048Y53852151I7241670J-54671965D01*
G01*
X20413114Y52619183D02*
G75*
G03*
X18185606Y53429930I-20412514J-52617483D01*
G01*
X79921647Y18433958D02*
G75*
G02*
X81406569Y10012559I-79921547J-18433958D01*
G01*
X-59997197Y-55925099D02*
G75*
G02*
X-65493875Y-49374414I59997142J55925058D01*
G01*
X47118523Y-29478487D02*
G75*
G03*
X49088381Y-26066595I-47118323J29478387D01*
G01*
X29240218Y48275079D02*
G75*
G03*
X27187335Y49460309I-29239818J-48274479D01*
G01*
X29935519Y44774594D02*
G75*
G03*
X23808179Y48312223I-29935519J-44774494D01*
G01*
X-25189907Y-76246696D02*
G75*
G02*
X-27464218Y-75457317I25189831J76246408D01*
G01*
X-52869034Y-17146476D02*
G75*
G03*
X-51521572Y-20848597I52868441J17146262D01*
G01*
X-83116435Y-5675769D02*
G75*
G02*
X-83116435Y5675769I83116535J5675769D01*
G01*
X33019031Y-43635101D02*
G75*
G03*
X37238491Y-40094553I-33019099J43635175D01*
G01*
X44181907Y-30045366D02*
G75*
G03*
X48111004Y-23239970I-44182051J30045448D01*
G01*
X74600117Y29713843D02*
G75*
G02*
X75457317Y27464218I-74600165J-29713869D01*
G01*
X22670300Y-47906758D02*
G75*
G03*
X30153320Y-43586435I-22670340J47906834D01*
G01*
X49564590Y64267387D02*
G75*
G02*
X54684220Y59971507I-49564750J-64267572D01*
G01*
X78953982Y16840474D02*
G75*
G02*
X79952258Y11178984I-78953782J-16840474D01*
G01*
X50968636Y-21064678D02*
G75*
G03*
X52584357Y-16625529I-50968536J21064678D01*
G01*
X32428377Y-43540837D02*
G75*
G03*
X37248225Y-39496504I-32428433J43540901D01*
G01*
X43816201Y34194692D02*
G75*
G03*
X41283801Y37212688I-43816630J-34195061D01*
G01*
X40094553Y-37238491D02*
G75*
G03*
X43635101Y-33019031I-40094627J37238559D01*
G01*
X75057888Y30874895D02*
G75*
G02*
X77343677Y24594739I-75058108J-30874964D01*
G01*
X4742501Y-82313493D02*
G75*
G02*
X-4742501Y-82313493I-4742501J82313294D01*
G01*
X-80678812Y-2874414D02*
G75*
G02*
X-80678812Y2874414I80679412J2874414D01*
G01*
X36846759Y74238876D02*
G75*
G02*
X45869373Y69029668I-36846859J-74239058D01*
G01*
X37196751Y41875074D02*
G75*
G03*
X34779749Y43903179I-37196901J-41875263D01*
G01*
X59971507Y54684220D02*
G75*
G02*
X64267387Y49564590I-59971692J-54684380D01*
G01*
X-55545081Y1969857D02*
G75*
G03*
X-55545081Y-1969857I55544507J-1969857D01*
G01*
X43344511Y31241291D02*
G75*
G03*
X38293362Y37261018I-43344411J-31241191D01*
G01*
X-47906758Y-22670300D02*
G75*
G03*
X-43586441Y-30153324I47906858J22670300D01*
G01*
X48705880Y24940242D02*
G75*
G03*
X45951823Y29710408I-48705929J-24940274D01*
G01*
X-52823620Y4320324D02*
G75*
G03*
X-52823620Y-4320324I52823720J-4320324D01*
G01*
X83782931Y-8062836D02*
G75*
G02*
X81487855Y-21078863I-83782831J8062816D01*
G01*
X18964040Y-80239440D02*
G75*
G02*
X9623137Y-81886493I-18964081J80239688D01*
G01*
X68677641Y44048947D02*
G75*
G02*
X72486325Y37452108I-68677341J-44048747D01*
G01*
X71897822Y-37651678D02*
G75*
G02*
X68556220Y-43439501I-71897622J37651578D01*
G01*
X2754057Y54650650D02*
G75*
G03*
X-2754057Y54650650I-2754057J-54650473D01*
G01*
X-59938447Y-53436622D02*
G75*
G02*
X-61513369Y-51615845I59936820J53435221D01*
G01*
X-17666502Y53150868D02*
G75*
G03*
X-20631394Y52071736I17666198J-53150054D01*
G01*
X80868122Y20022559D02*
G75*
G02*
X82839297Y8843476I-80867872J-20022519D01*
G01*
X68432693Y42828721D02*
G75*
G02*
X71307108Y37850091I-68431793J-42828221D01*
G01*
X-55043289Y-7705371D02*
G75*
G03*
X-54359166Y-11585233I55043389J7705371D01*
G01*
X-34335374Y76377154D02*
G75*
G02*
X-22791866Y80578647I34335374J-76377154D01*
G01*
X21493283Y49854216D02*
G75*
G03*
X15580863Y52006161I-21493283J-49854216D01*
G01*
X53163966Y-20193801D02*
G75*
G03*
X53706286Y-18703790I-53165432J20194347D01*
G01*
X77343677Y-24594739D02*
G75*
G02*
X75057888Y-30874895I-77343897J24594808D01*
G01*
X53285337Y-3929097D02*
G75*
G03*
X53285337Y3929097I-53285484J3929097D01*
G01*
X79278959Y17372170D02*
G75*
G02*
X80439485Y10790501I-79279567J-17372279D01*
G01*
X-55925099Y59997197D02*
G75*
G02*
X-49374414Y65493875I55925058J-59997142D01*
G01*
X15057148Y-51712493D02*
G75*
G03*
X21705703Y-49292612I-15057148J51712393D01*
G01*
X4275656Y-81908480D02*
G75*
G02*
X-4275656Y-81908480I-4275656J81908167D01*
G01*
X-35362992Y43987866D02*
G75*
G03*
X-37178873Y42464162I35363392J-43988366D01*
G01*
X-37196751Y-41875074D02*
G75*
G03*
X-34779747Y-43903177I37196851J41875274D01*
G01*
X43051100Y-37159113D02*
G75*
G03*
X44070328Y-35944445I-43056749J37163872D01*
G01*
X54359165Y-11585233D02*
G75*
G03*
X55043289Y-7705371I-54359301J11585252D01*
G01*
X54684220Y-59971507D02*
G75*
G02*
X49564590Y-64267387I-54684380J59971692D01*
G01*
X-17146476Y52869034D02*
G75*
G03*
X-20848597Y51521572I17146262J-52868441D01*
G01*
X23239970Y-48111004D02*
G75*
G03*
X30045366Y-44181907I-23240052J48111148D01*
G01*
X-30294844Y74830177D02*
G75*
G02*
X-24892714Y76796395I30295044J-74830577D01*
G01*
X21279590Y50412870D02*
G75*
G03*
X16103656Y52296756I-21279712J-50413202D01*
G01*
X-29240218Y-48275079D02*
G75*
G03*
X-27187336Y-49460311I29239847J48274435D01*
G01*
X45263873Y-68914326D02*
G75*
G02*
X37049621Y-73656828I-45263773J68914126D01*
G01*
X-41283801Y37212688D02*
G75*
G03*
X-43816203Y34194694I41284201J-37213088D01*
G01*
X-11178984Y-79952256D02*
G75*
G02*
X-16840474Y-78953982I11178950J79952018D01*
G01*
X11275795Y54863253D02*
G75*
G03*
X8168557Y55411143I-11275886J-54863760D01*
G01*
X-55411143Y-8168557D02*
G75*
G03*
X-54863252Y-11275795I55411643J8168657D01*
G01*
X48312217Y23808176D02*
G75*
G03*
X44774588Y29935515I-48312117J-23808176D01*
G01*
X34779749Y-43903179D02*
G75*
G03*
X37196751Y-41875074I-34779899J43903368D01*
G01*
X48510482Y24374930D02*
G75*
G03*
X45364553Y29823848I-48510382J-24374830D01*
G01*
X-19493575Y80554919D02*
G75*
G02*
X-9233437Y82364058I19493549J-80554781D01*
G01*
X17146476Y-52869034D02*
G75*
G03*
X20848597Y-51521571I-17146276J52868434D01*
G01*
X-46473578Y69143059D02*
G75*
G02*
X-36642859Y74818833I46473678J-69143159D01*
G01*
X48275079Y-29240218D02*
G75*
G03*
X49460309Y-27187335I-48274479J29239818D01*
G01*
X6313379Y-53921659D02*
G75*
G03*
X12509658Y-52829088I-6313339J53921419D01*
G01*
X-16625528Y52584354D02*
G75*
G03*
X-21064678Y50968636I16625493J-52584273D01*
G01*
X-12202202Y-53342147D02*
G75*
G03*
X-6777769Y-54298619I12202202J53342247D01*
G01*
X-48160328Y22126518D02*
G75*
G03*
X-51115603Y14006966I48160208J-22126473D01*
G01*
X-22670300Y47906758D02*
G75*
G03*
X-30153324Y43586441I22670300J-47906858D01*
G01*
X49460311Y27187336D02*
G75*
G03*
X48275081Y29240219I-49459711J-27186936D01*
G01*
X40690307Y-37226623D02*
G75*
G03*
X43726868Y-33607797I-40690107J37226523D01*
G01*
X53852151Y-11894048D02*
G75*
G03*
X54672472Y-7241771I-53851651J11893948D01*
G01*
%TD*%
M02*
