%TF.GenerationSoftware,KiCad,Pcbnew,10.0.6-10.0.6~ubuntu24.04.1*%
%TF.CreationDate,2026-09-02T13:52:10+00:00*%
%TF.ProjectId,stator,73746174-6f72-42e6-9b69-6361645f7063,rev?*%
%TF.SameCoordinates,Original*%
%TF.FileFunction,Copper,L1,Top*%
%TF.FilePolarity,Positive*%
%FSLAX46Y46*%
G04 Gerber Fmt 4.6, Leading zero omitted, Abs format (unit mm)*
G04 Created by KiCad (PCBNEW 10.0.6-10.0.6~ubuntu24.04.1) date 2026-09-02 13:52:10*
%MOMM*%
%LPD*%
G01*
G04 APERTURE LIST*
%TA.AperFunction,ComponentPad*%
%ADD10C,2.000000*%
%TD*%
%TA.AperFunction,ViaPad*%
%ADD11C,0.600000*%
%TD*%
%TA.AperFunction,Conductor*%
%ADD12C,0.280000*%
%TD*%
%TA.AperFunction,Conductor*%
%ADD13C,0.400000*%
%TD*%
%TA.AperFunction,Conductor*%
%ADD14C,0.700000*%
%TD*%
G04 APERTURE END LIST*
D10*
%TO.P,J1,A*%
%TO.N,N/C*%
X3001357Y85947611D03*
%TO.P,J1,B*%
X-75933493Y-40374554D03*
%TO.P,J1,C*%
X72932136Y-45573057D03*
%TD*%
D11*
%TO.N,*%
X73085045Y-34689858D03*
X-78284603Y-20404188D03*
X42809655Y-51018560D03*
X-34689858Y73085045D03*
X65950888Y46853926D03*
X-21471757Y77998549D03*
X-62583529Y-22778542D03*
X-46853926Y-65950888D03*
X-77998549Y21471757D03*
X80638434Y6500224D03*
X-42809655Y-51018560D03*
X-51018560Y-42809655D03*
X73552134Y-33688181D03*
X11564969Y-65588196D03*
X-56812847Y57594361D03*
X46853926Y-65950888D03*
X46853926Y65950888D03*
X33300000Y57677292D03*
X80542107Y-7601246D03*
X57677292Y-33300000D03*
X-80638434Y6500224D03*
X-6500224Y-80638434D03*
X45948576Y-66584821D03*
X77998549Y21471757D03*
X6500224Y80638434D03*
X-51018560Y42809655D03*
X-33300000Y57677292D03*
X65588196Y11564969D03*
X51018560Y-42809655D03*
X-21471757Y-77998549D03*
X-66600000Y0D03*
X20404188Y-78284603D03*
X-33688181Y-73552134D03*
X-80638434Y-6500224D03*
X7601246Y-80542107D03*
X-34689858Y-73085045D03*
X-66584821Y45948576D03*
X-11564969Y65588196D03*
X21471757Y77998549D03*
X-7601246Y-80542107D03*
X-77998549Y-21471757D03*
X-57594361Y56812847D03*
X-42809655Y51018560D03*
X-65588196Y-11564969D03*
X56812847Y57594361D03*
X73085045Y34689858D03*
X0Y66600000D03*
X-73085045Y-34689858D03*
X-66584821Y-45948576D03*
X20404188Y78284603D03*
X-78284603Y20404188D03*
X-45948576Y66584821D03*
X-57677292Y-33300000D03*
X-22778542Y-62583529D03*
X56812847Y-57594361D03*
X22778542Y-62583529D03*
X-73552134Y-33688181D03*
X-6500224Y80638434D03*
X77998549Y-21471757D03*
X6500224Y-80638434D03*
X-65950888Y-46853926D03*
X-80542107Y-7601246D03*
X7601246Y80542107D03*
X78284603Y-20404188D03*
X-33300000Y-57677292D03*
X65950888Y-46853926D03*
X0Y-66600000D03*
X33688181Y-73552134D03*
X62583529Y-22778542D03*
X-73552134Y33688181D03*
X57594361Y56812847D03*
X-45948576Y-66584821D03*
X-7601246Y80542107D03*
X-20404188Y-78284603D03*
X-11564969Y-65588196D03*
X21471757Y-77998549D03*
X51018560Y42809655D03*
X-65588196Y11564969D03*
X33688181Y73552134D03*
X80638434Y-6500224D03*
X-22778542Y62583529D03*
X62583529Y22778542D03*
X11564969Y65588196D03*
X-57594361Y-56812847D03*
X-80542107Y7601246D03*
X-46853926Y65950888D03*
X57594361Y-56812847D03*
X-20404188Y78284603D03*
X-73085045Y34689858D03*
X42809655Y51018560D03*
X78284603Y20404188D03*
X57677292Y33300000D03*
X65588196Y-11564969D03*
X45948576Y66584821D03*
X-33688181Y73552134D03*
X34689858Y73085045D03*
X-65950888Y46853926D03*
X66584821Y45948576D03*
X-57677292Y33300000D03*
X22778542Y62583529D03*
X33300000Y-57677292D03*
X-62583529Y22778542D03*
X34689858Y-73085045D03*
X-56812847Y-57594361D03*
X80542107Y7601246D03*
X66600000Y0D03*
X73552134Y33688181D03*
X66584821Y-45948576D03*
%TD*%
%TO.N,*%
D12*
X-35987749Y67313823D02*
X-27745636Y49642488D01*
X48705880Y-24940242D02*
X69667231Y-35189195D01*
X-21046919Y77389064D02*
X-21471757Y77998549D01*
X72558591Y34165639D02*
X47906758Y22670300D01*
X23156112Y-73634846D02*
X17666502Y-53150868D01*
X-50945768Y-56840106D02*
X-37159113Y-43051100D01*
X37178873Y-42464162D02*
X50945768Y-56840106D01*
X35189195Y-69667231D02*
X25504126Y-48898487D01*
X3537623Y-53743696D02*
X5292221Y-78732334D01*
X-55987778Y-1577586D02*
X-76702991Y-2957841D01*
X75562838Y10794739D02*
X56138246Y9093639D01*
X71322670Y-25959329D02*
X62583529Y-22778542D01*
X43987866Y-35362992D02*
X60041968Y-47129937D01*
X18185606Y53429929D02*
X23752091Y72540382D01*
X72812161Y-33621856D02*
X48160328Y-22126518D01*
X3145933Y-54198775D02*
X4825626Y-78331499D01*
X-14006966Y-51115603D02*
X-21350247Y-76859742D01*
X21916802Y-48728007D02*
X32475670Y-72388994D01*
X-35362992Y-43987866D02*
X-47129937Y-60041968D01*
X-46752180Y62498289D02*
X-33607794Y43726864D01*
X48160328Y22126518D02*
X72601652Y33049252D01*
X-32428377Y-43540837D02*
X-46653873Y-63107262D01*
X-49088380Y26066594D02*
X-68495151Y35590875D01*
X14006966Y51115603D02*
X21350247Y76859742D01*
X58142773Y48787580D02*
X51018560Y42809655D01*
X6690984Y79920402D02*
X6500224Y80638434D01*
X-20848597Y51521572D02*
X-29592956Y71292027D01*
X16103656Y52296756D02*
X22557005Y74719369D01*
X-792818Y56864473D02*
X-2023285Y75873028D01*
X77928189Y-4358878D02*
X55099395Y-2362023D01*
X28432901Y70836707D02*
X20193801Y53163966D01*
X18703790Y53706286D02*
X24048838Y71989328D01*
X42131744Y65190341D02*
X29478487Y47118523D01*
X-42131744Y-65190341D02*
X-29478487Y-47118523D01*
X56497436Y56921699D02*
X37263928Y37688190D01*
X-20467365Y-77544355D02*
X-20404188Y-78284603D01*
X33049252Y72601652D02*
X21916802Y48728007D01*
X-56916071Y55275641D02*
X-38896119Y37255758D01*
X-12509658Y52829088D02*
X-18354436Y76303506D01*
X61887299Y46848977D02*
X43816201Y34194692D01*
X-7241771Y-54672472D02*
X-9628755Y-77020461D01*
X-76859742Y-21350247D02*
X-51415668Y-14532515D01*
X-55275641Y-56916071D02*
X-37255758Y-38896119D01*
X-43586435Y-30153320D02*
X-65759727Y-45154304D01*
X79526746Y-6224911D02*
X53285337Y-3929097D01*
X-20413114Y52619183D02*
X-28432901Y70836707D01*
X56910693Y-54662246D02*
X39496504Y-37248225D01*
X45154304Y65759727D02*
X30045366Y44181907D01*
X60041968Y47129937D02*
X44070328Y35944445D01*
X-51793532Y-13122307D02*
X-76928584Y-19412074D01*
X39496504Y37248225D02*
X56903557Y54047161D01*
X43444000Y-31835805D02*
X63714242Y-46554092D01*
X-63107262Y-46653873D02*
X-43635101Y-33019031D01*
X-71292027Y29592956D02*
X-52071736Y20631394D01*
X74178332Y22856935D02*
X52869034Y17146476D01*
X-77501196Y-9239431D02*
X-54672472Y-7241771D01*
X-46452873Y64319252D02*
X-31835805Y43444000D01*
X52829088Y12509658D02*
X76303506Y18354436D01*
X-34165639Y72558591D02*
X-34689858Y73085045D01*
X-43344864Y-65424255D02*
X-29710408Y-45951823D01*
X7241771Y54672472D02*
X9628755Y77020461D01*
X-65523462Y-46246253D02*
X-43242291Y-30644808D01*
X5383496Y53158093D02*
X8069742Y78928543D01*
X-51521572Y-20848597D02*
X-71292027Y-29592956D01*
X41283801Y37212688D02*
X56871204Y52191592D01*
X-52869034Y17146476D02*
X-73634846Y23156112D01*
X-3537623Y53743696D02*
X-5292221Y78732334D01*
X-55862903Y-10655186D02*
X-74369006Y-15167760D01*
X50412870Y21279590D02*
X71737720Y30749016D01*
X-49642488Y27745636D02*
X-66719612Y36184298D01*
X55887365Y56919727D02*
X37261017Y38293361D01*
X47906758Y-22670300D02*
X71984638Y-34372443D01*
X-2490607Y-76289356D02*
X-792818Y-56864473D01*
X31325556Y71957070D02*
X21279590Y50412870D01*
X-34779749Y-43903179D02*
X-47037894Y-60659163D01*
X-9628755Y77020461D02*
X-7705371Y55043289D01*
X-1577586Y55987778D02*
X-2957841Y76702991D01*
X56921699Y-56497436D02*
X57594361Y-56812847D01*
X76303506Y-18354436D02*
X53342147Y-12202202D01*
X52296756Y-16103656D02*
X74719369Y-22557005D01*
X-43051100Y-37159113D02*
X-56821569Y-50320168D01*
X-31835805Y-43444000D02*
X-46554092Y-63714242D01*
X-56894623Y53430369D02*
X-40690307Y37226623D01*
X-44774594Y-29935519D02*
X-65538091Y-43949365D01*
X55364479Y10965768D02*
X74697860Y15700277D01*
X23808176Y48312217D02*
X34782969Y70830312D01*
X2754057Y-54650650D02*
X4358878Y-77928189D01*
X-54650650Y-2754057D02*
X-77928189Y-4358878D01*
X-62498289Y-46752180D02*
X-43726864Y-33607794D01*
X46246253Y-65523462D02*
X30644808Y-43242291D01*
X-22126518Y48160328D02*
X-33049252Y72601652D01*
X-56919727Y55887365D02*
X-38293361Y37261017D01*
X-45364549Y-29823845D02*
X-65424255Y-43344864D01*
X-21954983Y75794240D02*
X-15580863Y52006161D01*
X-35390619Y69082331D02*
X-26066594Y49088380D01*
X9628755Y-77020461D02*
X7705371Y-55043289D01*
X20193801Y-53163966D02*
X27851370Y-70605320D01*
X76289356Y-2490607D02*
X56864473Y-792818D01*
X71322670Y25959329D02*
X62583529Y22778542D01*
X-52829088Y-12509658D02*
X-76303506Y-18354436D01*
X-74719369Y-22557005D02*
X-52584354Y-16625528D01*
X-77928189Y4358878D02*
X-55099395Y2362023D01*
D13*
X45948576Y-66584821D02*
X46970918Y-68066312D01*
D12*
X-50968636Y-21064678D02*
X-71516054Y-30171484D01*
X37196751Y-41875074D02*
X51569570Y-56856636D01*
X-6224911Y-79526746D02*
X-3929097Y-53285337D01*
X-75794240Y-21954983D02*
X-52006161Y-15580863D01*
X56894623Y-53430369D02*
X40690307Y-37226623D01*
X70249881Y34986635D02*
X48705880Y24940242D01*
X-56883853Y52811852D02*
X-41283801Y37212688D01*
X-14532515Y-51415668D02*
X-21652942Y-76328145D01*
X73088876Y23454506D02*
X53429929Y18185606D01*
X16763642Y75347703D02*
X11275795Y54863253D01*
X-71516054Y30171484D02*
X-51521572Y20848597D01*
X37263928Y-37688190D02*
X55887365Y-56919727D01*
X-9239431Y77501196D02*
X-7241771Y54672472D01*
X50945768Y56840106D02*
X37159113Y43051100D01*
X-29118837Y48849670D02*
X-39688730Y64696327D01*
X-31241291Y-43344511D02*
X-46452873Y-64319252D01*
X-33621856Y-72812161D02*
X-33688181Y-73552134D01*
X51270894Y13427413D02*
X77237612Y19940015D01*
X-16763642Y-75347703D02*
X-11275795Y-54863253D01*
X78331499Y-4825626D02*
X54650650Y-2754057D01*
X20467365Y77544355D02*
X20404188Y78284603D01*
X-75024076Y16232239D02*
X-55364479Y10965768D01*
D13*
X-45948576Y-66584821D02*
X-46970918Y-68066312D01*
D12*
X43586435Y30153320D02*
X65759727Y45154304D01*
X0Y-75900000D02*
X0Y-66600000D01*
D13*
X-34689858Y73085045D02*
X-35461697Y74711164D01*
D12*
X77979429Y8849808D02*
X54298621Y6777769D01*
X41523103Y65070178D02*
X29360119Y47698045D01*
X-79920402Y6690984D02*
X-52823620Y4320324D01*
X-55364479Y-10965768D02*
X-74697860Y-15700277D01*
X-76051324Y-10406430D02*
X-55776106Y-8631316D01*
X-37261017Y38293361D02*
X-55275641Y56916071D01*
X52191592Y56871204D02*
X37196751Y41875074D01*
X72558591Y34165639D02*
X73085045Y34689858D01*
X18883547Y76617229D02*
X12509658Y52829088D01*
X37226623Y-40690307D02*
X52811852Y-56883853D01*
X-4825626Y-78331499D02*
X-2754057Y-54650650D01*
X55545081Y1969857D02*
X77113978Y3424973D01*
X-55887365Y-56919727D02*
X-37261017Y-38293361D01*
X17294479Y75668787D02*
X11585233Y54359165D01*
X51712493Y-15057148D02*
X75794240Y-21954983D01*
X-48312217Y23808176D02*
X-70830312Y34782969D01*
X-65649902Y44552508D02*
X-44774594Y29935519D01*
X71292027Y-29592956D02*
X52071736Y-20631394D01*
X-23239970Y-48111004D02*
X-34578229Y-71408555D01*
X-9093639Y-56138246D02*
X-11182666Y-75071686D01*
X35362992Y43987866D02*
X47129937Y60041968D01*
X-11894048Y53852151D02*
X-17294479Y75668787D01*
X7288699Y-79868109D02*
X4918037Y-52771327D01*
X38293361Y37261017D02*
X56916071Y55275641D01*
X43903179Y-34779749D02*
X60659163Y-47037894D01*
X-53852151Y-11894048D02*
X-75668787Y-17294479D01*
X-54298621Y6777769D02*
X-77501196Y9239431D01*
X52869034Y-17146476D02*
X73634846Y-23156112D01*
X-12202202Y53342147D02*
X-17824745Y75987374D01*
X76537184Y10017761D02*
X55411143Y8168557D01*
X-47037894Y60659163D02*
X-35362992Y43987866D01*
X-48111004Y23239970D02*
X-71408555Y34578229D01*
X-56856636Y51569570D02*
X-42464162Y37178873D01*
X25959329Y-71322670D02*
X22778542Y-62583529D01*
X76328145Y21652942D02*
X51712493Y15057148D01*
X29710408Y-45951823D02*
X42738994Y-65308352D01*
X-74746908Y-13179897D02*
X-65588196Y-11564969D01*
X-10017761Y76537184D02*
X-8168557Y55411143D01*
X45951823Y29710408D02*
X65308352Y42738994D01*
X-76303506Y18354436D02*
X-53342147Y12202202D01*
X-37950000Y65731328D02*
X-33300000Y57677292D01*
X-74697860Y15700277D02*
X-55862903Y10655186D01*
X-48787580Y58142773D02*
X-42809655Y51018560D01*
X-17824745Y-75987374D02*
X-11894048Y-53852151D01*
X-22557005Y74719369D02*
X-16625528Y52584354D01*
X-6313379Y-53921659D02*
X-8849808Y-77979429D01*
X74697860Y-15700277D02*
X55862903Y-10655186D01*
X29823845Y-45364549D02*
X43344864Y-65424255D01*
X-8459906Y78455198D02*
X-6313379Y53921659D01*
X53429929Y-18185606D02*
X72540382Y-23752091D01*
X-46944228Y61274265D02*
X-34779749Y43903179D01*
X76051324Y10406430D02*
X55776106Y8631316D01*
X71957070Y-31325556D02*
X50412870Y-21279590D01*
X2490607Y76289356D02*
X792818Y56864473D01*
X-53430369Y-56894623D02*
X-37226623Y-40690307D01*
X-71322670Y25959329D02*
X-62583529Y22778542D01*
X-77389064Y-21046919D02*
X-51115603Y-14006966D01*
X8631316Y55776106D02*
X10794739Y75562838D01*
X10406430Y-76051324D02*
X8631316Y-55776106D01*
X-76328145Y-21652942D02*
X-51712493Y-15057148D01*
X-18185606Y-53429929D02*
X-23752091Y-72540382D01*
X-41875074Y-37196751D02*
X-56856636Y-51569570D01*
X-46350249Y64922317D02*
X-31241291Y43344511D01*
X25504126Y48898487D02*
X35390619Y69082331D01*
X-25959329Y71322670D02*
X-22778542Y62583529D01*
X-53541510Y5848616D02*
X-78455198Y8459906D01*
X-65867607Y45754763D02*
X-66584821Y45948576D01*
X-58142773Y48787580D02*
X-51018560Y42809655D01*
X65649902Y-44552508D02*
X44774594Y-29935519D01*
X78732334Y-5292221D02*
X54198775Y-3145933D01*
X-65731328Y-37950000D02*
X-57677292Y-33300000D01*
X32428377Y43540837D02*
X46653873Y63107262D01*
X65424255Y-43344864D02*
X45951823Y-29710408D01*
X-29240218Y48275079D02*
X-40301607Y64823217D01*
X55776106Y-8631316D02*
X75562838Y-10794739D01*
X33607794Y43726864D02*
X46848977Y61887299D01*
X-67313823Y-35987749D02*
X-49642488Y-27745636D01*
X-29823845Y45364549D02*
X-43344864Y65424255D01*
X1185232Y-56427554D02*
X2490607Y-76289356D01*
X-52823620Y-4320324D02*
X-79526746Y-6224911D01*
X46536465Y29595269D02*
X65190341Y42131744D01*
X-75257993Y-22256345D02*
X-52296756Y-16103656D01*
X-54047161Y-56903557D02*
X-37238491Y-40094553D01*
X-77544355Y20467365D02*
X-78284603Y20404188D01*
X52006161Y-15580863D02*
X75257993Y-22256345D01*
X-10794739Y75562838D02*
X-9093639Y56138246D01*
X54298621Y-6777769D02*
X77501196Y-9239431D01*
X37950000Y-65731328D02*
X33300000Y-57677292D01*
X51415668Y-14532515D02*
X76328145Y-21652942D01*
X77389064Y21046919D02*
X77998549Y21471757D01*
X48898487Y-25504126D02*
X69082331Y-35390619D01*
X35789930Y-67905659D02*
X27187336Y-49460311D01*
X77522363Y-3891990D02*
X55545081Y-1969857D01*
X75900000Y0D02*
X66600000Y0D01*
X21493283Y-49854216D02*
X31325556Y-71957070D01*
X7705371Y55043289D02*
X10017761Y76537184D01*
X34782969Y-70830312D02*
X24374930Y-48510482D01*
X56916071Y-55275641D02*
X38896119Y-37255758D01*
X-46653873Y63107262D02*
X-33019031Y43635101D01*
X-65523462Y-46246253D02*
X-65950888Y-46853926D01*
X-69667231Y-35189195D02*
X-48898487Y-25504126D01*
X77237612Y-19940015D02*
X51793532Y-13122307D01*
X-56921699Y56497436D02*
X-57594361Y56812847D01*
X76859742Y21350247D02*
X51415668Y14532515D01*
X-43903179Y34779749D02*
X-60659163Y47037894D01*
X17146476Y52869034D02*
X23156112Y73634846D01*
X-77979429Y-8849808D02*
X-54298621Y-6777769D01*
X-30171484Y-71516054D02*
X-20848597Y-51521572D01*
X18354436Y76303506D02*
X12202202Y53342147D01*
X37248225Y-39496504D02*
X54047161Y-56903557D01*
X-16232239Y-75024076D02*
X-10965768Y-55364479D01*
X-21350247Y76859742D02*
X-14532515Y51415668D01*
X-35189195Y69667231D02*
X-25504126Y48898487D01*
X72540382Y23752091D02*
X53706286Y18703790D01*
X75024076Y-16232239D02*
X55364479Y-10965768D01*
X27187336Y49460311D02*
X35987749Y67313823D01*
X74719369Y22557005D02*
X52584354Y16625528D01*
X-4918037Y-52771327D02*
X-7679334Y-79399501D01*
X34165639Y-72558591D02*
X34689858Y-73085045D01*
X-29478487Y47118523D02*
X-41523103Y65070178D01*
X-17294479Y-75668787D02*
X-11585233Y-54359165D01*
X-12816373Y52312906D02*
X-18883547Y76617229D01*
X-30644808Y-43242291D02*
X-46350249Y-64922317D01*
X-65308352Y42738994D02*
X-46536465Y29595269D01*
X-5383496Y-53158093D02*
X-8069742Y-78928543D01*
X45364549Y29823845D02*
X65424255Y43344864D01*
X-37248225Y39496504D02*
X-54047161Y56903557D01*
X-4320324Y52823620D02*
X-6224911Y79526746D01*
X41875074Y37196751D02*
X56856636Y51569570D01*
X46452873Y-64319252D02*
X31835805Y-43444000D01*
X52584354Y-16625528D02*
X74178332Y-22856935D01*
X-40301607Y-64823217D02*
X-29118837Y-48849670D01*
X-65538091Y43949365D02*
X-45364549Y29823845D01*
X48728007Y21916802D02*
X72388994Y32475670D01*
X-43987866Y35362992D02*
X-60041968Y47129937D01*
X-48160328Y-22126518D02*
X-72601652Y-33049252D01*
X-23454506Y73088876D02*
X-18185606Y53429929D01*
X65867607Y-45754763D02*
X43586435Y-30153320D01*
X53430369Y56894623D02*
X37226623Y40690307D01*
X24940242Y48705880D02*
X35189195Y69667231D01*
X34779749Y43903179D02*
X47037894Y60659163D01*
X75987374Y-17824745D02*
X53852151Y-11894048D01*
X-21493283Y49854216D02*
X-31325556Y71957070D01*
X71737720Y-30749016D02*
X50968636Y-21064678D01*
X-10655186Y55862903D02*
X-15167760Y74369006D01*
X-64922317Y-46350249D02*
X-43344511Y-31241291D01*
X-75347703Y16763642D02*
X-54863253Y11275795D01*
X76702991Y-2957841D02*
X56427554Y-1185232D01*
X-72812161Y33621856D02*
X-73552134Y33688181D01*
X70836707Y-28432901D02*
X53163966Y-20193801D01*
X-53429929Y18185606D02*
X-72540382Y23752091D01*
X-77113978Y3424973D02*
X-55987778Y1577586D01*
X-8849808Y77979429D02*
X-6777769Y54298621D01*
X-65731328Y37950000D02*
X-57677292Y33300000D01*
X77544355Y-20467365D02*
X78284603Y-20404188D01*
X49088380Y-26066594D02*
X68495151Y-35590875D01*
X-7679334Y79399501D02*
X-5383496Y53158093D01*
X-26066594Y-49088380D02*
X-35590875Y-68495151D01*
X56497436Y56921699D02*
X56812847Y57594361D01*
X13179897Y74746908D02*
X11564969Y65588196D01*
X51115603Y-14006966D02*
X76859742Y-21350247D01*
X-40094553Y-37238491D02*
X-56894623Y-53430369D01*
X-56903557Y54047161D02*
X-40094553Y37238491D01*
X-35590875Y68495151D02*
X-26627660Y49275631D01*
X53743696Y3537623D02*
X78732334Y5292221D01*
X-48849670Y-29118837D02*
X-64696327Y-39688730D01*
X48275079Y29240218D02*
X64823217Y40301607D01*
X15580863Y52006161D02*
X22256345Y75257993D01*
X6690984Y79920402D02*
X4320324Y52823620D01*
X-76289356Y2490607D02*
X-56864473Y792818D01*
X40094553Y37238491D02*
X56894623Y53430369D01*
X78455198Y8459906D02*
X53921659Y6313379D01*
X-56910693Y54662246D02*
X-39496504Y37248225D01*
X10794739Y-75562838D02*
X9093639Y-56138246D01*
X13122307Y-51793532D02*
X19412074Y-76928584D01*
X4320324Y-52823620D02*
X6224911Y-79526746D01*
X65523462Y46246253D02*
X65950888Y46853926D01*
X-2754057Y54650650D02*
X-4358878Y77928189D01*
X-52296756Y16103656D02*
X-74719369Y22557005D01*
X34578229Y-71408555D02*
X23808176Y-48312217D01*
X33621856Y72812161D02*
X33688181Y73552134D01*
X47118523Y29478487D02*
X65070178Y41523103D01*
X56919727Y-55887365D02*
X38293361Y-37261017D01*
X-15057148Y-51712493D02*
X-21954983Y-75794240D01*
X53158093Y-5383496D02*
X78928543Y-8069742D01*
X20631394Y-52071736D02*
X29013429Y-71065593D01*
X-55043289Y7705371D02*
X-76537184Y10017761D01*
X-53743696Y-3537623D02*
X-78732334Y-5292221D01*
X19940015Y77237612D02*
X13122307Y51793532D01*
X46350249Y-64922317D02*
X31241291Y-43344511D01*
X56856636Y-51569570D02*
X42464162Y-37178873D01*
X-3145933Y54198775D02*
X-4825626Y78331499D01*
X52823620Y4320324D02*
X79526746Y6224911D01*
X-27745636Y-49642488D02*
X-36184298Y-66719612D01*
X-29592956Y-71292027D02*
X-20631394Y-52071736D01*
X55099395Y2362023D02*
X77522363Y3891990D01*
X-52584354Y16625528D02*
X-74178332Y22856935D01*
X-35944445Y-44070328D02*
X-47220316Y-59422654D01*
X33621856Y72812161D02*
X22126518Y48160328D01*
X55862903Y10655186D02*
X74369006Y15167760D01*
X-69082331Y-35390619D02*
X-49088380Y-26066594D01*
X-45154304Y-65759727D02*
X-30045366Y-44181907D01*
X-16103656Y-52296756D02*
X-22557005Y-74719369D01*
X-3929097Y53285337D02*
X-5758653Y79130737D01*
X53706286Y-18703790D02*
X71989328Y-24048838D01*
X37212688Y-41283801D02*
X52191592Y-56871204D01*
X-79526746Y6224911D02*
X-53285337Y3929097D01*
X-77522363Y3891990D02*
X-55545081Y1969857D01*
X-11275795Y54863253D02*
X-16232239Y75024076D01*
X-40913061Y-64947818D02*
X-29240218Y-48275079D01*
X-77020461Y-9628755D02*
X-55043289Y-7705371D01*
X15057148Y51712493D02*
X21954983Y75794240D01*
X-52191592Y-56871204D02*
X-37196751Y-41875074D01*
X65308352Y-42738994D02*
X46536465Y-29595269D01*
X-37950000Y-65731328D02*
X-33300000Y-57677292D01*
X64922317Y46350249D02*
X43344511Y31241291D01*
D13*
X80638434Y-6500224D02*
X82432615Y-6644852D01*
D12*
X-48275079Y-29240218D02*
X-64823217Y-40301607D01*
X58142773Y-48787580D02*
X51018560Y-42809655D01*
X46554092Y-63714242D02*
X32428377Y-43540837D01*
X6313379Y53921659D02*
X8849808Y77979429D01*
X24374930Y48510482D02*
X34986635Y70249881D01*
X-79920402Y6690984D02*
X-80638434Y6500224D01*
X53163966Y20193801D02*
X70605320Y27851370D01*
X-5848616Y-53541510D02*
X-8459906Y-78455198D01*
X-49460311Y27187336D02*
X-67313823Y35987749D01*
X62498289Y46752180D02*
X43726864Y33607794D01*
X-56497436Y-56921699D02*
X-37263928Y-37688190D01*
X-79399501Y-7679334D02*
X-53158093Y-5383496D01*
X70830312Y34782969D02*
X48510482Y24374930D01*
X49292616Y21705705D02*
X72174147Y31901106D01*
X54359165Y11585233D02*
X75347703Y16763642D01*
X21350247Y-76859742D02*
X14532515Y-51415668D01*
X-35789930Y67905659D02*
X-27187336Y49460311D01*
X77113978Y-3424973D02*
X55987778Y-1577586D01*
X65523462Y46246253D02*
X43242291Y30644808D01*
X-65759727Y45154304D02*
X-44181907Y30045366D01*
X67905659Y35789930D02*
X49460311Y27187336D01*
X43344511Y-31241291D02*
X64319252Y-46452873D01*
X-71737720Y30749016D02*
X-50968636Y21064678D01*
X30644808Y43242291D02*
X46350249Y64922317D01*
D13*
X34689858Y73085045D02*
X35461697Y74711164D01*
D12*
X-56921699Y56497436D02*
X-37688190Y37263928D01*
X-37212688Y41283801D02*
X-52191592Y56871204D01*
X-72601652Y33049252D02*
X-48728007Y21916802D01*
X43949365Y65538091D02*
X29823845Y45364549D01*
X5848616Y53541510D02*
X8459906Y78455198D01*
X-63714242Y-46554092D02*
X-43540837Y-32428377D01*
X-30045366Y44181907D02*
X-44552508Y65649902D01*
X-65867607Y45754763D02*
X-43586435Y30153320D01*
X-77237612Y19940015D02*
X-51793532Y13122307D01*
X-78732334Y5292221D02*
X-54198775Y3145933D01*
X-21279590Y50412870D02*
X-30749016Y71737720D01*
X75257993Y22256345D02*
X52296756Y16103656D01*
X-78331499Y4825626D02*
X-54650650Y2754057D01*
X77501196Y9239431D02*
X54672472Y7241771D01*
X54198775Y3145933D02*
X78331499Y4825626D01*
X56427554Y1185232D02*
X76289356Y2490607D01*
X-16625528Y-52584354D02*
X-22856935Y-74178332D01*
X48787580Y58142773D02*
X42809655Y51018560D01*
X65190341Y-42131744D02*
X47118523Y-29478487D01*
X48787580Y-58142773D02*
X42809655Y-51018560D01*
X-20193801Y53163966D02*
X-27851370Y70605320D01*
X56840106Y-50945768D02*
X43051100Y-37159113D01*
X-8069742Y78928543D02*
X-5848616Y53541510D01*
X-33607794Y-43726864D02*
X-46848977Y-61887299D01*
X75668787Y-17294479D02*
X54359165Y-11585233D01*
X-34165639Y72558591D02*
X-22670300Y47906758D01*
X-54672472Y7241771D02*
X-77020461Y9628755D01*
X-22670300Y-47906758D02*
X-34372443Y-71984638D01*
X43344864Y65424255D02*
X29710408Y45951823D01*
X13427413Y-51270894D02*
X19940015Y-77237612D01*
X29478487Y-47118523D02*
X41523103Y-65070178D01*
X-52811852Y-56883853D02*
X-37212688Y-41283801D01*
X-51415668Y14532515D02*
X-76328145Y21652942D01*
X-43816201Y34194692D02*
X-61274265Y46944228D01*
X-46246253Y65523462D02*
X-30644808Y43242291D01*
X60659163Y47037894D02*
X43987866Y35362992D01*
X-39496504Y-37248225D02*
X-56903557Y-54047161D01*
X47698045Y29360119D02*
X64947818Y40913061D01*
X-79868109Y-7288699D02*
X-80542107Y-7601246D01*
X-3424973Y-77113978D02*
X-1577586Y-55987778D01*
X-7288699Y79868109D02*
X-4918037Y52771327D01*
X45754763Y65867607D02*
X30153320Y43586435D01*
X-53163966Y-20193801D02*
X-70605320Y-27851370D01*
X20848597Y-51521572D02*
X29592956Y-71292027D01*
X-37238491Y40094553D02*
X-53430369Y56894623D01*
X29240218Y-48275079D02*
X40301607Y-64823217D01*
X-32475670Y-72388994D02*
X-21705705Y-49292616D01*
X-56864473Y-792818D02*
X-75873028Y-2023285D01*
X22126518Y-48160328D02*
X33049252Y-72601652D01*
X-18883547Y-76617229D02*
X-12509658Y-52829088D01*
X-13427413Y51270894D02*
X-19940015Y77237612D01*
X37261017Y-38293361D02*
X55275641Y-56916071D01*
X22670300Y47906758D02*
X34372443Y71984638D01*
X43816201Y-34194692D02*
X61274265Y-46944228D01*
X4918037Y52771327D02*
X7679334Y79399501D01*
X49642488Y-27745636D02*
X66719612Y-36184298D01*
X22557005Y-74719369D02*
X16625528Y-52584354D01*
X40301607Y64823217D02*
X29118837Y48849670D01*
X65867607Y-45754763D02*
X66584821Y-45948576D01*
X-56871204Y52191592D02*
X-41875074Y37196751D01*
X-29360119Y47698045D02*
X-40913061Y64947818D01*
X2957841Y76702991D02*
X1185232Y56427554D01*
X-52071736Y-20631394D02*
X-71065593Y-29013429D01*
X40913061Y64947818D02*
X29240218Y48275079D01*
X-34578229Y71408555D02*
X-23808176Y48312217D01*
X-34194692Y-43816201D02*
X-46944228Y-61274265D01*
X-29935519Y44774594D02*
X-43949365Y65538091D01*
X-76617229Y18883547D02*
X-52829088Y12509658D01*
X792818Y-56864473D02*
X2023285Y-75873028D01*
X-60041968Y-47129937D02*
X-44070328Y-35944445D01*
X27745636Y49642488D02*
X36184298Y66719612D01*
X-43344511Y31241291D02*
X-64319252Y46452873D01*
X-7705371Y-55043289D02*
X-10017761Y-76537184D01*
X-46848977Y61887299D02*
X-34194692Y43816201D01*
X54047161Y56903557D02*
X37238491Y40094553D01*
X0Y75900000D02*
X0Y66600000D01*
X-71408555Y-34578229D02*
X-48312217Y-23808176D01*
X53852151Y11894048D02*
X75668787Y17294479D01*
X-53706286Y18703790D02*
X-71989328Y24048838D01*
X-30153320Y43586435D02*
X-45154304Y65759727D01*
X21652942Y-76328145D02*
X15057148Y-51712493D01*
X-76537184Y-10017761D02*
X-55411143Y-8168557D01*
X52811852Y56883853D02*
X37212688Y41283801D01*
X-34986635Y70249881D02*
X-24940242Y48705880D01*
X34372443Y-71984638D02*
X23239970Y-48111004D01*
X43051100Y37159113D02*
X56821569Y50320168D01*
X37159113Y-43051100D02*
X50320168Y-56821569D01*
X65759727Y-45154304D02*
X44181907Y-30045366D01*
X-45754763Y-65867607D02*
X-30153320Y-43586435D01*
X-54359165Y-11585233D02*
X-75347703Y-16763642D01*
X79920402Y-6690984D02*
X52823620Y-4320324D01*
X79868109Y7288699D02*
X80542107Y7601246D01*
X-51270894Y-13427413D02*
X-77237612Y-19940015D01*
X-29710408Y45951823D02*
X-42738994Y65308352D01*
X53921659Y-6313379D02*
X77979429Y-8849808D01*
X19412074Y76928584D02*
X12816373Y52312906D01*
X54672472Y-7241771D02*
X77020461Y-9628755D01*
X-55099395Y-2362023D02*
X-77522363Y-3891990D01*
X29592956Y71292027D02*
X20631394Y52071736D01*
X-72558591Y-34165639D02*
X-47906758Y-22670300D01*
X21705705Y-49292616D02*
X31901106Y-72174147D01*
X10965768Y-55364479D02*
X15700277Y-74697860D01*
X13179897Y-74746908D02*
X11564969Y-65588196D01*
X56921699Y-56497436D02*
X37688190Y-37263928D01*
X-51569570Y-56856636D02*
X-37178873Y-42464162D01*
X43242291Y-30644808D02*
X64922317Y-46350249D01*
X6224911Y79526746D02*
X3929097Y53285337D01*
X34194692Y43816201D02*
X46944228Y61274265D01*
X-43726864Y33607794D02*
X-61887299Y46848977D01*
X-29595269Y46536465D02*
X-42131744Y65190341D01*
X-77544355Y20467365D02*
X-51270894Y13427413D01*
X26627660Y49275631D02*
X35789930Y67905659D01*
X-33019031Y-43635101D02*
X-46752180Y-62498289D01*
X76617229Y-18883547D02*
X52829088Y-12509658D01*
X-40690307Y-37226623D02*
X-56883853Y-52811852D01*
X16232239Y75024076D02*
X10965768Y55364479D01*
X-43949365Y-65538091D02*
X-29823845Y-45364549D01*
X-44181907Y-30045366D02*
X-65649902Y-44552508D01*
X17824745Y75987374D02*
X11894048Y53852151D01*
X75794240Y21954983D02*
X52006161Y15580863D01*
X-53921659Y6313379D02*
X-77979429Y8849808D01*
X-70249881Y-34986635D02*
X-48705880Y-24940242D01*
X-10406430Y76051324D02*
X-8631316Y55776106D01*
X-13122307Y51793532D02*
X-19412074Y76928584D01*
X21064678Y-50968636D02*
X30171484Y-71516054D01*
X-48728007Y-21916802D02*
X-72388994Y-32475670D01*
X-51115603Y14006966D02*
X-76859742Y21350247D01*
X73634846Y23156112D02*
X53150868Y17666502D01*
X65731328Y37950000D02*
X57677292Y33300000D01*
X-46536465Y-29595269D02*
X-65190341Y-42131744D01*
X-19412074Y-76928584D02*
X-12816373Y-52312906D01*
X33019031Y43635101D02*
X46752180Y62498289D01*
X48111004Y-23239970D02*
X71408555Y-34578229D01*
X-61887299Y-46848977D02*
X-43816201Y-34194692D01*
X29360119Y-47698045D02*
X40913061Y-64947818D01*
X77389064Y21046919D02*
X51115603Y14006966D01*
X-17666502Y-53150868D02*
X-23454506Y-73088876D01*
X44070328Y-35944445D02*
X59422654Y-47220316D01*
X16625528Y52584354D02*
X22856935Y74178332D01*
X-58142773Y-48787580D02*
X-51018560Y-42809655D01*
X-41523103Y-65070178D02*
X-29360119Y-47698045D01*
X52619183Y20413114D02*
X70836707Y28432901D01*
X-5292221Y-78732334D02*
X-3145933Y-54198775D01*
X34986635Y-70249881D02*
X24940242Y-48705880D01*
X-73088876Y-23454506D02*
X-53429929Y-18185606D01*
X-37255758Y38896119D02*
X-54662246Y56910693D01*
X8069742Y-78928543D02*
X5848616Y-53541510D01*
X71408555Y34578229D02*
X48312217Y23808176D01*
X-18354436Y-76303506D02*
X-12202202Y-53342147D01*
X53541510Y-5848616D02*
X78455198Y-8459906D01*
X-6690984Y-79920402D02*
X-4320324Y-52823620D01*
X67313823Y35987749D02*
X49642488Y27745636D01*
X-31901106Y-72174147D02*
X-21493283Y-49854216D01*
X72388994Y-32475670D02*
X49292616Y-21705705D01*
X-71065593Y29013429D02*
X-52619183Y20413114D01*
X42464162Y37178873D02*
X56840106Y50945768D01*
X22256345Y-75257993D02*
X16103656Y-52296756D01*
X-73634846Y-23156112D02*
X-53150868Y-17666502D01*
X14532515Y51415668D02*
X21652942Y76328145D01*
X34165639Y-72558591D02*
X22670300Y-47906758D01*
X11585233Y-54359165D02*
X16763642Y-75347703D01*
X-49275631Y26627660D02*
X-67905659Y35789930D01*
X-27187336Y-49460311D02*
X-35987749Y-67313823D01*
X3929097Y-53285337D02*
X5758653Y-79130737D01*
X49460311Y-27187336D02*
X67313823Y-35987749D01*
X-43444000Y31835805D02*
X-63714242Y46554092D01*
X-33621856Y-72812161D02*
X-22126518Y-48160328D01*
X5292221Y78732334D02*
X3145933Y54198775D01*
X53342147Y12202202D02*
X75987374Y17824745D01*
X-6777769Y-54298621D02*
X-9239431Y-77501196D01*
X-75987374Y17824745D02*
X-53852151Y11894048D01*
X10655186Y-55862903D02*
X15167760Y-74369006D01*
X48510482Y-24374930D02*
X70249881Y-34986635D01*
X-47118523Y-29478487D02*
X-65070178Y-41523103D01*
X-44070328Y35944445D02*
X-59422654Y47220316D01*
X-52006161Y15580863D02*
X-75257993Y22256345D01*
X52771327Y-4918037D02*
X79399501Y-7679334D01*
X4358878Y77928189D02*
X2362023Y55099395D01*
X-13179897Y74746908D02*
X-11564969Y65588196D01*
X77020461Y9628755D02*
X55043289Y7705371D01*
X-46554092Y63714242D02*
X-32428377Y43540837D01*
X26066594Y49088380D02*
X35590875Y68495151D01*
X37950000Y65731328D02*
X33300000Y57677292D01*
X-78928543Y-8069742D02*
X-53541510Y-5848616D01*
X21279590Y-50412870D02*
X30749016Y-71737720D01*
X-5758653Y-79130737D02*
X-3537623Y-53743696D01*
X-68495151Y-35590875D02*
X-49275631Y-26627660D01*
X-56497436Y-56921699D02*
X-56812847Y-57594361D01*
X-6690984Y-79920402D02*
X-6500224Y-80638434D01*
D13*
X-80638434Y-6500224D02*
X-82432615Y-6644852D01*
D12*
X61274265Y46944228D02*
X43903179Y34779749D01*
X-23808176Y-48312217D02*
X-34782969Y-70830312D01*
X-42464162Y-37178873D02*
X-56840106Y-50945768D01*
X35590875Y-68495151D02*
X26627660Y-49275631D01*
X8849808Y-77979429D02*
X6777769Y-54298621D01*
X-34782969Y70830312D02*
X-24374930Y48510482D01*
X-75562838Y-10794739D02*
X-56138246Y-9093639D01*
X-37159113Y43051100D02*
X-50320168Y56821569D01*
X35987749Y-67313823D02*
X27745636Y-49642488D01*
X7679334Y-79399501D02*
X5383496Y-53158093D01*
X63714242Y46554092D02*
X43540837Y32428377D01*
X42738994Y65308352D02*
X29595269Y46536465D01*
X72812161Y-33621856D02*
X73552134Y-33688181D01*
D13*
X2886188Y82649621D02*
X3001357Y85947611D01*
D12*
X12509658Y-52829088D02*
X18354436Y-76303506D01*
X46246253Y-65523462D02*
X46853926Y-65950888D01*
X-20467365Y-77544355D02*
X-13427413Y-51270894D01*
X72174147Y-31901106D02*
X49854216Y-21493283D01*
X-21705705Y49292616D02*
X-31901106Y72174147D01*
X68495151Y35590875D02*
X49275631Y26627660D01*
X-22256345Y75257993D02*
X-16103656Y52296756D01*
X-8631316Y-55776106D02*
X-10794739Y-75562838D01*
X-56427554Y-1185232D02*
X-76289356Y-2490607D01*
X-67905659Y-35789930D02*
X-49460311Y-27187336D01*
X15700277Y74697860D02*
X10655186Y55862903D01*
X48312217Y-23808176D02*
X70830312Y-34782969D01*
X46653873Y-63107262D02*
X33019031Y-43635101D01*
X-54662246Y-56910693D02*
X-37248225Y-39496504D01*
X46752180Y-62498289D02*
X33607794Y-43726864D01*
X-55776106Y8631316D02*
X-75562838Y10794739D01*
X3891990Y77522363D02*
X1969857Y55545081D01*
X64947818Y-40913061D02*
X48275079Y-29240218D01*
X-18703790Y-53706286D02*
X-24048838Y-71989328D01*
X74746908Y-13179897D02*
X65588196Y-11564969D01*
X3424973Y77113978D02*
X1577586Y55987778D01*
X74746908Y13179897D02*
X65588196Y11564969D01*
X55987778Y1577586D02*
X76702991Y2957841D01*
X43540837Y-32428377D02*
X63107262Y-46653873D01*
X-19940015Y-77237612D02*
X-13122307Y-51793532D01*
X-44552508Y-65649902D02*
X-29935519Y-44774594D01*
X40690307Y37226623D02*
X56883853Y52811852D01*
X-41283801Y-37212688D02*
X-56871204Y-52191592D01*
X49275631Y-26627660D02*
X67905659Y-35789930D01*
X-76928584Y19412074D02*
X-52312906Y12816373D01*
X53150868Y-17666502D02*
X73088876Y-23454506D01*
X-20631394Y52071736D02*
X-29013429Y71065593D01*
X52071736Y20631394D02*
X71065593Y29013429D01*
X54662246Y56910693D02*
X37248225Y39496504D01*
X-43635101Y33019031D02*
X-62498289Y46752180D01*
X-24374930Y-48510482D02*
X-34986635Y-70249881D01*
X56871204Y-52191592D02*
X41875074Y-37196751D01*
X1577586Y-55987778D02*
X2957841Y-76702991D01*
X43726864Y-33607794D02*
X61887299Y-46848977D01*
X-33049252Y-72601652D02*
X-21916802Y-48728007D01*
X47037894Y-60659163D02*
X35362992Y-43987866D01*
X37238491Y-40094553D02*
X53430369Y-56894623D01*
X17666502Y53150868D02*
X23454506Y73088876D01*
X47129937Y-60041968D02*
X35944445Y-44070328D01*
X-47698045Y-29360119D02*
X-64947818Y-40913061D01*
X-65424255Y43344864D02*
X-45951823Y29710408D01*
X-48898487Y25504126D02*
X-69082331Y35390619D01*
X-54198775Y-3145933D02*
X-78331499Y-4825626D01*
X71984638Y34372443D02*
X48111004Y23239970D01*
X-72174147Y31901106D02*
X-49854216Y21493283D01*
X79130737Y-5758653D02*
X53743696Y-3537623D01*
X22856935Y-74178332D02*
X17146476Y-52869034D01*
X-75900000Y0D02*
X-66600000Y0D01*
X-61274265Y-46944228D02*
X-43903179Y-34779749D01*
X-72812161Y33621856D02*
X-48160328Y22126518D01*
X-15700277Y-74697860D02*
X-10655186Y-55862903D01*
X20467365Y77544355D02*
X13427413Y51270894D01*
X-21064678Y50968636D02*
X-30171484Y71516054D01*
X52312906Y12816373D02*
X76617229Y18883547D01*
X2362023Y-55099395D02*
X3891990Y-77522363D01*
X-48510482Y24374930D02*
X-70249881Y34986635D01*
X23239970Y48111004D02*
X34578229Y71408555D01*
X-50412870Y-21279590D02*
X-71737720Y-30749016D01*
X-30749016Y-71737720D02*
X-21064678Y-50968636D01*
X-74178332Y-22856935D02*
X-52869034Y-17146476D01*
X-54863253Y-11275795D02*
X-75024076Y-16232239D01*
X71065593Y-29013429D02*
X52619183Y-20413114D01*
X25959329Y71322670D02*
X22778542Y62583529D01*
X54863253Y11275795D02*
X75024076Y16232239D01*
X-28432901Y-70836707D02*
X-20193801Y-53163966D01*
X4825626Y78331499D02*
X2754057Y54650650D01*
X-37688190Y-37263928D02*
X-56919727Y-55887365D01*
X46848977Y-61887299D02*
X34194692Y-43816201D01*
X55043289Y-7705371D02*
X76537184Y-10017761D01*
X72601652Y-33049252D02*
X48728007Y-21916802D01*
X-72388994Y32475670D02*
X-49292616Y21705705D01*
X32475670Y72388994D02*
X21705705Y49292616D01*
X-45951823Y-29710408D02*
X-65308352Y-42738994D01*
X-52312906Y-12816373D02*
X-76617229Y-18883547D01*
X-53342147Y-12202202D02*
X-75987374Y-17824745D01*
X49854216Y21493283D02*
X71957070Y31325556D01*
X71516054Y-30171484D02*
X51521572Y-20848597D01*
X30045366Y-44181907D02*
X44552508Y-65649902D01*
X31835805Y43444000D02*
X46554092Y63714242D01*
X-37196751Y41875074D02*
X-51569570Y56856636D01*
X-72558591Y-34165639D02*
X-73085045Y-34689858D01*
X7288699Y-79868109D02*
X7601246Y-80542107D01*
X-55411143Y8168557D02*
X-76051324Y10406430D01*
X-43242291Y30644808D02*
X-64922317Y46350249D01*
X46944228Y-61274265D02*
X34779749Y-43903179D01*
X30749016Y71737720D02*
X21064678Y50968636D01*
X-60659163Y-47037894D02*
X-43987866Y-35362992D01*
X-75668787Y17294479D02*
X-54359165Y11585233D01*
X9093639Y56138246D02*
X11182666Y75071686D01*
X-64947818Y40913061D02*
X-48275079Y29240218D01*
X-26627660Y-49275631D02*
X-35789930Y-67905659D01*
X51569570Y56856636D02*
X37178873Y42464162D01*
X35944445Y44070328D02*
X47220316Y59422654D01*
X64319252Y46452873D02*
X43444000Y31835805D01*
X6777769Y54298621D02*
X9239431Y77501196D01*
X8168557Y55411143D02*
X10406430Y76051324D01*
X-43540837Y32428377D02*
X-63107262Y46653873D01*
X-64823217Y40301607D02*
X-48849670Y29118837D01*
X-74746908Y13179897D02*
X-65588196Y11564969D01*
X54650650Y2754057D02*
X77928189Y4358878D01*
X38896119Y37255758D02*
X56910693Y54662246D01*
X56883853Y-52811852D02*
X41283801Y-37212688D01*
X-13179897Y-74746908D02*
X-11564969Y-65588196D01*
X-23752091Y72540382D02*
X-18703790Y53706286D01*
X29595269Y-46536465D02*
X42131744Y-65190341D01*
X-53158093Y5383496D02*
X-78928543Y8069742D01*
X44774594Y29935519D02*
X65538091Y43949365D01*
X43635101Y-33019031D02*
X62498289Y-46752180D01*
X-52619183Y-20413114D02*
X-70836707Y-28432901D01*
X-1969857Y55545081D02*
X-3424973Y77113978D01*
X-72540382Y-23752091D02*
X-53706286Y-18703790D01*
X29118837Y-48849670D02*
X39688730Y-64696327D01*
X-2957841Y-76702991D02*
X-1185232Y-56427554D01*
X65731328Y-37950000D02*
X57677292Y-33300000D01*
X-71984638Y-34372443D02*
X-48111004Y-23239970D01*
X35390619Y-69082331D02*
X26066594Y-49088380D01*
X-65190341Y42131744D02*
X-47118523Y29478487D01*
X56138246Y-9093639D02*
X75071686Y-11182666D01*
X-31325556Y-71957070D02*
X-21279590Y-50412870D01*
X-17146476Y-52869034D02*
X-23156112Y-73634846D01*
X8459906Y-78455198D02*
X6313379Y-53921659D01*
X79868109Y7288699D02*
X52771327Y4918037D01*
X1969857Y-55545081D02*
X3424973Y-77113978D01*
X55411143Y-8168557D02*
X76051324Y-10406430D01*
X-2362023Y55099395D02*
X-3891990Y77522363D01*
X37688190Y37263928D02*
X56919727Y55887365D01*
X-37226623Y40690307D02*
X-52811852Y56883853D01*
X-37178873Y42464162D02*
X-50945768Y56840106D01*
X65070178Y-41523103D02*
X47698045Y-29360119D01*
X-49292616Y-21705705D02*
X-72174147Y-31901106D01*
X45754763Y65867607D02*
X45948576Y66584821D01*
X21954983Y-75794240D02*
X15580863Y-52006161D01*
X-38293361Y-37261017D02*
X-56916071Y-55275641D01*
X-21046919Y77389064D02*
X-14006966Y51115603D01*
X-29013429Y-71065593D02*
X-20413114Y-52619183D01*
X79399501Y7679334D02*
X53158093Y5383496D01*
X51793532Y13122307D02*
X76928584Y19412074D01*
X29935519Y-44774594D02*
X43949365Y-65538091D01*
X-49854216Y-21493283D02*
X-71957070Y-31325556D01*
X44552508Y65649902D02*
X29935519Y44774594D01*
X31241291Y43344511D02*
X46452873Y64319252D01*
X-21916802Y48728007D02*
X-32475670Y72388994D01*
X21046919Y-77389064D02*
X21471757Y-77998549D01*
X23752091Y-72540382D02*
X18703790Y-53706286D01*
X44181907Y30045366D02*
X65649902Y44552508D01*
X-76702991Y2957841D02*
X-56427554Y1185232D01*
X-46246253Y65523462D02*
X-46853926Y65950888D01*
X11894048Y-53852151D02*
X17294479Y-75668787D01*
X-24940242Y-48705880D02*
X-35189195Y-69667231D01*
X-4358878Y-77928189D02*
X-2362023Y-55099395D01*
X30171484Y71516054D02*
X20848597Y51521572D01*
X31901106Y72174147D02*
X21493283Y49854216D01*
X-70830312Y-34782969D02*
X-48510482Y-24374930D01*
X-70836707Y28432901D02*
X-53163966Y20193801D01*
X20413114Y-52619183D02*
X28432901Y-70836707D01*
X29013429Y71065593D02*
X20413114Y52619183D01*
X-25504126Y-48898487D02*
X-35390619Y-69082331D01*
X-47129937Y60041968D02*
X-35944445Y44070328D01*
X75347703Y-16763642D02*
X54863253Y-11275795D01*
X11275795Y-54863253D02*
X16232239Y-75024076D01*
X-53285337Y-3929097D02*
X-79130737Y-5758653D01*
X-3891990Y-77522363D02*
X-1969857Y-55545081D01*
X21046919Y-77389064D02*
X14006966Y-51115603D01*
X69082331Y35390619D02*
X49088380Y26066594D01*
X-22856935Y74178332D02*
X-17146476Y52869034D01*
X-65070178Y41523103D02*
X-47698045Y29360119D01*
X-15580863Y-52006161D02*
X-22256345Y-75257993D01*
X30153320Y-43586435D02*
X45154304Y-65759727D01*
X-56840106Y50945768D02*
X-43051100Y37159113D01*
X-7288699Y79868109D02*
X-7601246Y80542107D01*
X9239431Y-77501196D02*
X7241771Y-54672472D01*
X65538091Y-43949365D02*
X45364549Y-29823845D01*
X10017761Y-76537184D02*
X8168557Y-55411143D01*
X-79130737Y5758653D02*
X-53743696Y3537623D01*
X55275641Y56916071D02*
X37255758Y38896119D01*
X50968636Y21064678D02*
X71516054Y30171484D01*
X12816373Y-52312906D02*
X18883547Y-76617229D01*
X-71957070Y31325556D02*
X-50412870Y21279590D01*
X51521572Y20848597D02*
X71292027Y29592956D01*
X-21652942Y76328145D02*
X-15057148Y51712493D01*
X-25959329Y-71322670D02*
X-22778542Y-62583529D01*
X-77389064Y-21046919D02*
X-77998549Y-21471757D01*
X63107262Y46653873D02*
X43635101Y33019031D01*
X-48705880Y24940242D02*
X-69667231Y35189195D01*
X-53150868Y17666502D02*
X-73088876Y23454506D01*
X-45754763Y-65867607D02*
X-45948576Y-66584821D01*
X-52771327Y4918037D02*
X-79399501Y7679334D01*
X-8168557Y-55411143D02*
X-10406430Y-76051324D01*
X-47906758Y22670300D02*
X-71984638Y34372443D01*
X-37263928Y37688190D02*
X-55887365Y56919727D01*
X48849670Y29118837D02*
X64696327Y39688730D01*
X56864473Y792818D02*
X75873028Y2023285D01*
X-55545081Y-1969857D02*
X-77113978Y-3424973D01*
X-64319252Y-46452873D02*
X-43444000Y-31835805D01*
X-23156112Y73634846D02*
X-17666502Y53150868D01*
X69667231Y35189195D02*
X48898487Y25504126D01*
X-48787580Y-58142773D02*
X-42809655Y-51018560D01*
X-51712493Y15057148D02*
X-75794240Y21954983D01*
X-11585233Y54359165D02*
X-16763642Y75347703D01*
X12202202Y-53342147D02*
X17824745Y-75987374D01*
X37255758Y-38896119D02*
X54662246Y-56910693D01*
X64823217Y-40301607D02*
X48849670Y-29118837D01*
X-38896119Y-37255758D02*
X-56910693Y-54662246D01*
X78928543Y8069742D02*
X53541510Y5848616D01*
X-34372443Y71984638D02*
X-23239970Y48111004D01*
X-1185232Y56427554D02*
X-2490607Y76289356D01*
X5758653Y79130737D02*
X3537623Y53743696D01*
X77544355Y-20467365D02*
X51270894Y-13427413D01*
X-79868109Y-7288699D02*
X-52771327Y-4918037D01*
X79920402Y-6690984D02*
X80638434Y-6500224D01*
X-71322670Y-25959329D02*
X-62583529Y-22778542D01*
X-42738994Y-65308352D02*
X-29595269Y-46536465D01*
X56903557Y-54047161D02*
X40094553Y-37238491D01*
X-56138246Y9093639D02*
X-75071686Y11182666D01*
X-78455198Y-8459906D02*
X-53921659Y-6313379D01*
X53285337Y3929097D02*
X79130737Y5758653D01*
X76928584Y-19412074D02*
X52312906Y-12816373D01*
X23454506Y-73088876D02*
X18185606Y-53429929D01*
X-10965768Y55364479D02*
X-15700277Y74697860D01*
X-56883853Y-52811852D02*
G75*
G02*
X-61887300Y-46848978I56883953J52811952D01*
G01*
X29013429Y-71065593D02*
G75*
G02*
X23454507Y-73088879I-29013329J71065193D01*
G01*
X77501196Y-9239431D02*
G75*
G02*
X75987374Y-17824745I-77501319J9239448D01*
G01*
X-79399501Y7679334D02*
G75*
G02*
X-77237613Y19940015I79399691J-7679364D01*
G01*
X-37688190Y37263928D02*
G75*
G03*
X-43242293Y30644809I37688290J-37264028D01*
G01*
X-24940242Y48705880D02*
G75*
G03*
X-29710408Y45951823I24940242J-48705880D01*
G01*
X-29592956Y71292027D02*
G75*
G02*
X-23156111Y73634843I29593056J-71292427D01*
G01*
X56864473Y-792818D02*
G75*
G03*
X56864473Y792818I-56859973J792818D01*
G01*
X-18703790Y53706286D02*
G75*
G03*
X-20193802Y53163967I18704290J-53707786D01*
G01*
X71984638Y-34372443D02*
G75*
G02*
X65759727Y-45154304I-71984759J34372517D01*
G01*
X31241291Y-43344511D02*
G75*
G03*
X37261018Y-38293362I-31241191J43344411D01*
G01*
X2957841Y-76702991D02*
G75*
G02*
X-2957841Y-76702991I-2957841J76703445D01*
G01*
X53706286Y18703790D02*
G75*
G03*
X53163966Y20193801I-53707752J-18704336D01*
G01*
X-36184298Y-66719612D02*
G75*
G02*
X-37950000Y-65731328I36187598J66725512D01*
G01*
X61274265Y-46944228D02*
G75*
G02*
X56871207Y-52191595I-61273865J46943828D01*
G01*
X44181907Y-30045366D02*
G75*
G03*
X48111004Y-23239970I-44182051J30045448D01*
G01*
X-37238491Y-40094553D02*
G75*
G03*
X-33019031Y-43635102I37238591J40094653D01*
G01*
X23454506Y73088876D02*
G75*
G02*
X29013428Y71065590I-23454406J-73088476D01*
G01*
X52312906Y-12816373D02*
G75*
G03*
X53541510Y-5848616I-52312606J12816323D01*
G01*
X56840106Y50945768D02*
G75*
G02*
X60041968Y47129937I-56840764J-50946314D01*
G01*
X17824745Y-75987374D02*
G75*
G02*
X9239431Y-77501196I-17824762J75987497D01*
G01*
X65190341Y42131744D02*
G75*
G02*
X69082328Y35390617I-65190241J-42131644D01*
G01*
X-73088876Y23454506D02*
G75*
G02*
X-71065593Y29013429I73088523J-23454385D01*
G01*
X-54298621Y-6777769D02*
G75*
G03*
X-53342149Y-12202202I54298721J6777769D01*
G01*
X52006161Y15580863D02*
G75*
G03*
X49854216Y21493283I-52006161J-15580863D01*
G01*
X64696327Y39688730D02*
G75*
G02*
X65731328Y37950000I-64697464J-39689396D01*
G01*
X23239970Y-48111004D02*
G75*
G03*
X30045366Y-44181907I-23240052J48111148D01*
G01*
X-53285337Y3929097D02*
G75*
G03*
X-53285337Y-3929097I53285437J-3929097D01*
G01*
X69667231Y-35189195D02*
G75*
G02*
X65308351Y-42738993I-69667031J35189095D01*
G01*
X-29240218Y-48275079D02*
G75*
G03*
X-27187336Y-49460311I29239847J48274435D01*
G01*
X-27187336Y49460311D02*
G75*
G03*
X-29240218Y48275079I27186965J-49459667D01*
G01*
X29478487Y47118523D02*
G75*
G03*
X26066595Y49088381I-29478387J-47118323D01*
G01*
X-18185606Y53429929D02*
G75*
G03*
X-20413114Y52619183I18184977J-53428241D01*
G01*
X-70830312Y34782969D02*
G75*
G02*
X-65538091Y43949365I70830045J-34782813D01*
G01*
X4358878Y-77928189D02*
G75*
G02*
X-4358878Y-77928189I-4358878J77928018D01*
G01*
X-54198775Y3145933D02*
G75*
G03*
X-54198775Y-3145933I54198775J-3145933D01*
G01*
X46752180Y62498289D02*
G75*
G02*
X53430371Y56894625I-46751980J-62498089D01*
G01*
X24048838Y71989328D02*
G75*
G02*
X25959329Y71322669I-24048738J-71989028D01*
G01*
X-34782969Y-70830312D02*
G75*
G02*
X-43949365Y-65538091I34782813J70830045D01*
G01*
X56856636Y51569570D02*
G75*
G02*
X60659163Y47037894I-56856727J-51569638D01*
G01*
X63714242Y-46554092D02*
G75*
G02*
X56910693Y-54662246I-63714339J46554173D01*
G01*
X-11275795Y-54863253D02*
G75*
G03*
X-8168557Y-55411144I11275895J54863753D01*
G01*
X35987749Y67313823D02*
G75*
G02*
X40301607Y64823217I-35987899J-67314111D01*
G01*
X-52312906Y12816373D02*
G75*
G03*
X-53541510Y5848616I52312605J-12816324D01*
G01*
X71989328Y-24048838D02*
G75*
G02*
X71322669Y-25959329I-71989028J24048738D01*
G01*
X-47118523Y29478487D02*
G75*
G03*
X-49088380Y26066594I47118328J-29478370D01*
G01*
X-10655186Y-55862903D02*
G75*
G03*
X-9093639Y-56138245I10655386J55864203D01*
G01*
X-76617229Y-18883547D02*
G75*
G02*
X-78455198Y-8459906I76617157J18883533D01*
G01*
X-31325556Y71957070D02*
G75*
G02*
X-22256345Y75257993I31325518J-71956964D01*
G01*
X-54863253Y11275795D02*
G75*
G03*
X-55411144Y8168557I54863753J-11275895D01*
G01*
X45951823Y-29710408D02*
G75*
G03*
X48705880Y-24940242I-45951872J29710440D01*
G01*
X72540382Y-23752091D02*
G75*
G02*
X70836705Y-28432900I-72539482J23751791D01*
G01*
X-48728007Y21916802D02*
G75*
G03*
X-51415668Y14532515I48727923J-21916774D01*
G01*
X-56138246Y-9093639D02*
G75*
G03*
X-55862904Y-10655186I56139546J9093839D01*
G01*
X77020461Y-9628755D02*
G75*
G02*
X75668786Y-17294479I-77019861J9628655D01*
G01*
X37263928Y37688190D02*
G75*
G03*
X30644808Y43242291I-37264024J-37688305D01*
G01*
X-23808176Y48312217D02*
G75*
G03*
X-29935519Y44774594I23808141J-48312157D01*
G01*
X72388994Y32475670D02*
G75*
G02*
X76328150Y21652943I-72388894J-32475670D01*
G01*
X-56864473Y792818D02*
G75*
G03*
X-56864473Y-792818I56859945J-792818D01*
G01*
X-38896119Y37255758D02*
G75*
G03*
X-43444000Y31835805I38895949J-37255619D01*
G01*
X-4358878Y77928189D02*
G75*
G02*
X4358878Y77928189I4358878J-77928018D01*
G01*
X3929097Y53285337D02*
G75*
G03*
X-3929097Y53285337I-3929097J-53285484D01*
G01*
X5848616Y-53541510D02*
G75*
G03*
X12816373Y-52312906I-5848566J53541210D01*
G01*
X-12509658Y-52829088D02*
G75*
G03*
X-6313379Y-53921659I12509614J52828847D01*
G01*
X792818Y56864473D02*
G75*
G03*
X-792818Y56864473I-792818J-56859945D01*
G01*
X-5848616Y53541510D02*
G75*
G03*
X-12816373Y52312906I5848567J-53541209D01*
G01*
X-35590875Y-68495151D02*
G75*
G02*
X-41523105Y-65070181I35590875J68495251D01*
G01*
X35590875Y68495151D02*
G75*
G02*
X41523103Y65070178I-35590904J-68495209D01*
G01*
X-2362023Y-55099395D02*
G75*
G03*
X2362023Y-55099395I2362023J55099217D01*
G01*
X-31241291Y43344511D02*
G75*
G03*
X-37261017Y38293361I31241196J-43344396D01*
G01*
X-56919727Y-55887365D02*
G75*
G02*
X-64922317Y-46350249I56919645J55887293D01*
G01*
X-31901106Y72174147D02*
G75*
G02*
X-21954983Y75794240I31901019J-72173902D01*
G01*
X30644808Y-43242291D02*
G75*
G03*
X37263928Y-37688190I-30644904J43242406D01*
G01*
X-65538091Y-43949365D02*
G75*
G02*
X-70830312Y-34782969I65537824J43949209D01*
G01*
X-16763642Y75347703D02*
G75*
G02*
X-10017761Y76537182I16763642J-75347803D01*
G01*
X-52823620Y4320324D02*
G75*
G03*
X-52823620Y-4320324I52823720J-4320324D01*
G01*
X56883853Y52811852D02*
G75*
G02*
X61887299Y46848977I-56883937J-52811921D01*
G01*
X-33019031Y43635101D02*
G75*
G03*
X-37238490Y40094552I33019131J-43635201D01*
G01*
X3145933Y54198775D02*
G75*
G03*
X-3145933Y54198775I-3145933J-54198808D01*
G01*
X-65308352Y-42738994D02*
G75*
G02*
X-69667231Y-35189195I65308182J42738901D01*
G01*
X34779749Y-43903179D02*
G75*
G03*
X37196751Y-41875074I-34779899J43903368D01*
G01*
X-29710408Y-45951823D02*
G75*
G03*
X-24940242Y-48705880I29710408J45951823D01*
G01*
X71516054Y30171484D02*
G75*
G02*
X74178332Y22856935I-71516193J-30171534D01*
G01*
X-52584354Y-16625528D02*
G75*
G03*
X-50968636Y-21064678I52584273J16625493D01*
G01*
X-76702991Y-2957841D02*
G75*
G02*
X-76702991Y2957841I76703491J2957841D01*
G01*
X-55043289Y-7705371D02*
G75*
G03*
X-54359166Y-11585233I55043389J7705371D01*
G01*
X64319252Y-46452873D02*
G75*
G02*
X56916071Y-55275641I-64319283J46452897D01*
G01*
X-43816201Y-34194692D02*
G75*
G03*
X-41283799Y-37212686I43816601J34195092D01*
G01*
X-792818Y-56864473D02*
G75*
G03*
X792818Y-56864473I792818J56859945D01*
G01*
X77522363Y3891990D02*
G75*
G02*
X77522363Y-3891990I-77522163J-3891990D01*
G01*
X-51521572Y20848597D02*
G75*
G03*
X-52869034Y17146476I51520979J-20848383D01*
G01*
X-43987866Y-35362992D02*
G75*
G03*
X-42464162Y-37178873I43988366J35363392D01*
G01*
X53163966Y-20193801D02*
G75*
G03*
X53706286Y-18703790I-53165432J20194347D01*
G01*
X-64922317Y46350249D02*
G75*
G02*
X-56919727Y55887365I64922235J-46350177D01*
G01*
X-45951823Y29710408D02*
G75*
G03*
X-48705880Y24940242I45951823J-29710408D01*
G01*
X-15700277Y74697860D02*
G75*
G02*
X-10794739Y75562838I15700277J-74697960D01*
G01*
X55364479Y-10965768D02*
G75*
G03*
X55776108Y-8631316I-55363079J10965568D01*
G01*
X-47906758Y-22670300D02*
G75*
G03*
X-43586441Y-30153324I47906858J22670300D01*
G01*
X53743696Y-3537623D02*
G75*
G03*
X53743696Y3537623I-53743852J3537623D01*
G01*
X71957070Y31325556D02*
G75*
G02*
X75257997Y22256346I-71956970J-31325556D01*
G01*
X17294479Y-75668787D02*
G75*
G02*
X9628755Y-77020462I-17294379J75668187D01*
G01*
X-54662246Y56910693D02*
G75*
G02*
X-46554093Y63714243I54662346J-56910793D01*
G01*
X-34194692Y43816201D02*
G75*
G03*
X-37212686Y41283799I34195092J-43816601D01*
G01*
X44774594Y-29935519D02*
G75*
G03*
X48312223Y-23808179I-44774494J29935519D01*
G01*
X75873028Y2023285D02*
G75*
G02*
X75900001Y0I-75870828J-2023285D01*
G01*
X-6224911Y79526746D02*
G75*
G02*
X6224911Y79526746I6224911J-79526636D01*
G01*
X56919727Y55887365D02*
G75*
G02*
X64922316Y46350248I-56919627J-55887265D01*
G01*
X-70249881Y34986635D02*
G75*
G02*
X-65424255Y43344864I70249737J-34986554D01*
G01*
X-11894048Y-53852151D02*
G75*
G03*
X-7241771Y-54672472I11893947J53851644D01*
G01*
X16763642Y-75347703D02*
G75*
G02*
X10017761Y-76537184I-16763667J75347832D01*
G01*
X-75347703Y-16763642D02*
G75*
G02*
X-76537182Y-10017761I75347803J16763642D01*
G01*
X55862903Y-10655186D02*
G75*
G03*
X56138246Y-9093639I-55864231J10655425D01*
G01*
X5758653Y-79130737D02*
G75*
G02*
X-5758653Y-79130737I-5758653J79130791D01*
G01*
X-55545081Y1969857D02*
G75*
G03*
X-55545081Y-1969857I55544507J-1969857D01*
G01*
X-34372443Y-71984638D02*
G75*
G02*
X-45154301Y-65759723I34372543J71984738D01*
G01*
X78732334Y5292221D02*
G75*
G02*
X78732334Y-5292221I-78732134J-5292221D01*
G01*
X5292221Y-78732334D02*
G75*
G02*
X-5292221Y-78732334I-5292221J78732109D01*
G01*
X-2023285Y75873028D02*
G75*
G02*
X0Y75900000I2023241J-75870829D01*
G01*
X-11585233Y-54359165D02*
G75*
G03*
X-7705371Y-55043288I11585233J54359265D01*
G01*
X-46452873Y-64319252D02*
G75*
G02*
X-55275641Y-56916071I46452873J64319252D01*
G01*
X-55887365Y56919727D02*
G75*
G02*
X-46350249Y64922317I55887293J-56919645D01*
G01*
X53541510Y5848616D02*
G75*
G03*
X52312906Y12816373I-53541210J-5848566D01*
G01*
X-35789930Y-67905659D02*
G75*
G02*
X-40913059Y-64947816I35790030J67905759D01*
G01*
X1185232Y56427554D02*
G75*
G03*
X-1185232Y56427554I-1185232J-56428571D01*
G01*
X33607794Y-43726864D02*
G75*
G03*
X37226619Y-40690303I-33607694J43726664D01*
G01*
X67905659Y-35789930D02*
G75*
G02*
X64947818Y-40913061I-67905794J35790007D01*
G01*
X-41283801Y37212688D02*
G75*
G03*
X-43816203Y34194694I41284201J-37213088D01*
G01*
X51569570Y-56856636D02*
G75*
G02*
X47037894Y-60659163I-51569638J56856727D01*
G01*
X-75024076Y-16232239D02*
G75*
G02*
X-76051327Y-10406430I75024376J16232339D01*
G01*
X61887299Y-46848977D02*
G75*
G02*
X56883853Y-52811852I-61887383J46849046D01*
G01*
X-32475670Y72388994D02*
G75*
G02*
X-21652942Y76328145I32475626J-72388870D01*
G01*
X20848597Y51521572D02*
G75*
G03*
X17146476Y52869035I-20848397J-51520972D01*
G01*
X35189195Y69667231D02*
G75*
G02*
X42738993Y65308351I-35189095J-69667031D01*
G01*
X-47129937Y-60041968D02*
G75*
G02*
X-50945771Y-56840109I47130437J60042668D01*
G01*
X38896119Y-37255758D02*
G75*
G03*
X43444005Y-31835809I-38895919J37255658D01*
G01*
X-65759727Y-45154304D02*
G75*
G02*
X-71984643Y-34372445I65759827J45154404D01*
G01*
X52771327Y4918037D02*
G75*
G03*
X51270894Y13427413I-52771367J-4918047D01*
G01*
X-53706286Y-18703790D02*
G75*
G03*
X-53163967Y-20193802I53707786J18704290D01*
G01*
X-20848597Y-51521572D02*
G75*
G03*
X-17146476Y-52869034I20848383J51520979D01*
G01*
X32475670Y-72388994D02*
G75*
G02*
X21652943Y-76328150I-32475670J72388894D01*
G01*
X-49460311Y-27187336D02*
G75*
G03*
X-48275079Y-29240218I49459667J27186965D01*
G01*
X-48510482Y-24374930D02*
G75*
G03*
X-45364549Y-29823845I48510350J24374858D01*
G01*
X-3424973Y77113978D02*
G75*
G02*
X3424973Y77113978I3424973J-77113603D01*
G01*
X29595269Y46536465D02*
G75*
G03*
X25504126Y48898487I-29595269J-46536465D01*
G01*
X71408555Y-34578229D02*
G75*
G02*
X65649896Y-44552504I-71408455J34578229D01*
G01*
X43987866Y35362992D02*
G75*
G03*
X42464162Y37178873I-43988331J-35363356D01*
G01*
X-66719612Y36184298D02*
G75*
G02*
X-65731328Y37950000I66725512J-36187598D01*
G01*
X10794739Y75562838D02*
G75*
G02*
X15700277Y74697860I-10794750J-75562964D01*
G01*
X-56840106Y-50945768D02*
G75*
G02*
X-60041965Y-47129934I56840806J50946268D01*
G01*
X-21493283Y-49854216D02*
G75*
G03*
X-15580863Y-52006161I21493272J49854184D01*
G01*
X-64947818Y-40913061D02*
G75*
G02*
X-67905662Y-35789931I64947918J40913161D01*
G01*
X56903557Y54047161D02*
G75*
G02*
X63107261Y46653872I-56903457J-54047061D01*
G01*
X21064678Y50968636D02*
G75*
G03*
X16625529Y52584357I-21064678J-50968536D01*
G01*
X-37212688Y-41283801D02*
G75*
G03*
X-34194694Y-43816203I37213088J41284201D01*
G01*
X52584354Y16625528D02*
G75*
G03*
X50968633Y21064677I-52584254J-16625528D01*
G01*
X37226623Y40690307D02*
G75*
G03*
X33607797Y43726868I-37226523J-40690107D01*
G01*
X29823845Y45364549D02*
G75*
G03*
X24374928Y48510478I-29823745J-45364449D01*
G01*
X-4918037Y52771327D02*
G75*
G03*
X-13427413Y51270894I4918037J-52771327D01*
G01*
X43051100Y-37159113D02*
G75*
G03*
X44070328Y-35944445I-43056749J37163872D01*
G01*
X21705705Y49292616D02*
G75*
G03*
X15057149Y51712497I-21705705J-49292516D01*
G01*
X-65649902Y-44552508D02*
G75*
G02*
X-71408555Y-34578229I65649821J44552463D01*
G01*
X65424255Y43344864D02*
G75*
G02*
X70249877Y34986633I-65424155J-43344764D01*
G01*
X-5292221Y78732334D02*
G75*
G02*
X5292221Y78732334I5292221J-78732109D01*
G01*
X-7241771Y54672472D02*
G75*
G03*
X-11894048Y53852151I7241670J-54671965D01*
G01*
X-46848977Y-61887299D02*
G75*
G02*
X-52811851Y-56883852I46849077J61887399D01*
G01*
X13427413Y51270894D02*
G75*
G03*
X4918037Y52771327I-13427423J-51270934D01*
G01*
X76859742Y-21350247D02*
G75*
G02*
X72601652Y-33049252I-76859942J21350322D01*
G01*
X-65070178Y-41523103D02*
G75*
G02*
X-68495147Y-35590873I65070278J41523103D01*
G01*
D14*
X0Y82700000D02*
G75*
G03*
X-82700000Y0I-1J-82699999D01*
G01*
D12*
X21652942Y76328145D02*
G75*
G02*
X32475668Y72388990I-21652942J-76328045D01*
G01*
X-67905659Y35789930D02*
G75*
G02*
X-64947816Y40913059I67905759J-35790030D01*
G01*
X52071736Y-20631394D02*
G75*
G03*
X53150868Y-17666502I-52070936J20631094D01*
G01*
X-43444000Y-31835805D02*
G75*
G03*
X-38896119Y-37255758I43443830J31835666D01*
G01*
X37238491Y40094553D02*
G75*
G03*
X33019031Y43635101I-37238559J-40094627D01*
G01*
X-35944445Y44070328D02*
G75*
G03*
X-37159112Y43051099I35949245J-44075928D01*
G01*
X12202202Y53342147D02*
G75*
G03*
X6777769Y54298621I-12202228J-53342285D01*
G01*
X-56871204Y-52191592D02*
G75*
G02*
X-61274265Y-46944228I56870776J52191230D01*
G01*
X-76303506Y-18354436D02*
G75*
G02*
X-77979424Y-8849807I76303706J18354436D01*
G01*
X-8849808Y-77979429D02*
G75*
G02*
X-18354436Y-76303506I8849858J77979659D01*
G01*
X-4825626Y78331499D02*
G75*
G02*
X4825626Y78331499I4825626J-78331505D01*
G01*
X26066594Y-49088380D02*
G75*
G03*
X29478486Y-47118522I-26066494J49088180D01*
G01*
X-15057148Y51712493D02*
G75*
G03*
X-21705705Y49292616I15057123J-51712420D01*
G01*
X-68495151Y35590875D02*
G75*
G02*
X-65070181Y41523105I68495251J-35590875D01*
G01*
X-29360119Y-47698045D02*
G75*
G03*
X-26627660Y-49275631I29359816J47697519D01*
G01*
X21493283Y49854216D02*
G75*
G03*
X15580863Y52006161I-21493283J-49854216D01*
G01*
X-60041968Y47129937D02*
G75*
G02*
X-56840109Y50945771I60042668J-47130437D01*
G01*
X-77979429Y8849808D02*
G75*
G02*
X-76303506Y18354436I77979659J-8849858D01*
G01*
X30045366Y44181907D02*
G75*
G03*
X23239970Y48111004I-30045448J-44182051D01*
G01*
X8168557Y-55411143D02*
G75*
G03*
X11275795Y-54863253I-8168648J55411650D01*
G01*
X8631316Y-55776106D02*
G75*
G03*
X10965768Y-55364477I-8631116J55774706D01*
G01*
X-54672472Y-7241771D02*
G75*
G03*
X-53852151Y-11894048I54671965J7241670D01*
G01*
X-55411143Y-8168557D02*
G75*
G03*
X-54863252Y-11275795I55411643J8168657D01*
G01*
X40301607Y-64823217D02*
G75*
G02*
X35987749Y-67313823I-40301757J64823505D01*
G01*
X8459906Y78455198D02*
G75*
G02*
X18883546Y76617227I-8459906J-78455098D01*
G01*
X43444000Y31835805D02*
G75*
G03*
X38896114Y37255754I-43443800J-31835705D01*
G01*
X-52771327Y-4918037D02*
G75*
G03*
X-51270894Y-13427413I52771327J4918037D01*
G01*
X43949365Y-65538091D02*
G75*
G02*
X34782968Y-70830309I-43949165J65537791D01*
G01*
X37255758Y38896119D02*
G75*
G03*
X31835809Y43444005I-37255658J-38895919D01*
G01*
X17666502Y-53150868D02*
G75*
G03*
X20631394Y-52071736I-17666202J53150068D01*
G01*
X-49854216Y21493283D02*
G75*
G03*
X-52006161Y15580863I49854184J-21493272D01*
G01*
X21916802Y48728007D02*
G75*
G03*
X14532516Y51415673I-21916802J-48727907D01*
G01*
X-53921659Y-6313379D02*
G75*
G03*
X-52829088Y-12509658I53921418J6313335D01*
G01*
X79526746Y6224911D02*
G75*
G02*
X79526746Y-6224911I-79526646J-6224911D01*
G01*
X-29118837Y-48849670D02*
G75*
G03*
X-27745636Y-49642489I29118937J48849770D01*
G01*
X11585233Y54359165D02*
G75*
G03*
X7705371Y55043289I-11585252J-54359301D01*
G01*
X-12202202Y-53342147D02*
G75*
G03*
X-6777769Y-54298619I12202202J53342247D01*
G01*
X-71516054Y-30171484D02*
G75*
G02*
X-74178329Y-22856934I71516154J30171484D01*
G01*
X-69667231Y35189195D02*
G75*
G02*
X-65308352Y42738994I69667061J-35189102D01*
G01*
X76702991Y2957841D02*
G75*
G02*
X76702991Y-2957841I-76703445J-2957841D01*
G01*
X-1185232Y-56427554D02*
G75*
G03*
X1185232Y-56427554I1185232J56428571D01*
G01*
X-15580863Y52006161D02*
G75*
G03*
X-21493283Y49854216I15580852J-52006129D01*
G01*
X-26627660Y49275631D02*
G75*
G03*
X-29360119Y47698045I26627357J-49275105D01*
G01*
X-76051324Y10406430D02*
G75*
G02*
X-75024073Y16232238I76051624J-10406530D01*
G01*
X-46653873Y-63107262D02*
G75*
G02*
X-54047161Y-56903557I46653753J63107122D01*
G01*
X73634846Y-23156112D02*
G75*
G02*
X71292027Y-29592956I-73635244J23156250D01*
G01*
X75024076Y16232239D02*
G75*
G02*
X76051324Y10406430I-75024390J-16232303D01*
G01*
X-8459906Y-78455198D02*
G75*
G02*
X-18883547Y-76617229I8459892J78455126D01*
G01*
X-43344864Y65424255D02*
G75*
G02*
X-34986635Y70249881I43344783J-65424111D01*
G01*
X-59422654Y47220316D02*
G75*
G02*
X-58142773Y48787580I59428254J-47224916D01*
G01*
X-50968636Y21064678D02*
G75*
G03*
X-52584354Y16625528I50968555J-21064643D01*
G01*
X-20631394Y-52071736D02*
G75*
G03*
X-17666502Y-53150868I20631090J52070922D01*
G01*
X-65190341Y-42131744D02*
G75*
G02*
X-69082331Y-35390619I65190208J42131664D01*
G01*
X-27745636Y49642488D02*
G75*
G03*
X-29118836Y48849669I27745736J-49642588D01*
G01*
X-76859742Y21350247D02*
G75*
G02*
X-72601649Y33049250I76859942J-21350347D01*
G01*
X75668787Y17294479D02*
G75*
G02*
X77020462Y9628755I-75668187J-17294379D01*
G01*
X-47037894Y-60659163D02*
G75*
G02*
X-51569569Y-56856635I47037994J60659263D01*
G01*
X7679334Y79399501D02*
G75*
G02*
X19940015Y77237612I-7679368J-79399690D01*
G01*
X11894048Y53852151D02*
G75*
G03*
X7241771Y54672472I-11893948J-53851651D01*
G01*
X55776106Y8631316D02*
G75*
G03*
X55364477Y10965768I-55774706J-8631116D01*
G01*
X21954983Y75794240D02*
G75*
G02*
X31901107Y72174150I-21954883J-75794040D01*
G01*
X-9093639Y56138246D02*
G75*
G03*
X-10655186Y55862904I9093839J-56139546D01*
G01*
X48705880Y24940242D02*
G75*
G03*
X45951823Y29710408I-48705929J-24940274D01*
G01*
X-41523103Y65070178D02*
G75*
G02*
X-35590873Y68495147I41523103J-65070278D01*
G01*
X-21064678Y-50968636D02*
G75*
G03*
X-16625528Y-52584354I21064643J50968555D01*
G01*
X-75794240Y21954983D02*
G75*
G02*
X-72174147Y31901106I75793995J-21954896D01*
G01*
X3424973Y-77113978D02*
G75*
G02*
X-3424973Y-77113978I-3424973J77113603D01*
G01*
X70830312Y-34782969D02*
G75*
G02*
X65538093Y-43949367I-70830012J34782769D01*
G01*
X-34986635Y-70249881D02*
G75*
G02*
X-43344864Y-65424255I34986554J70249737D01*
G01*
X-40094553Y37238491D02*
G75*
G03*
X-43635102Y33019031I40094653J-37238591D01*
G01*
X75071686Y-11182666D02*
G75*
G02*
X74746909Y-13179897I-75071186J11182566D01*
G01*
X23156112Y73634846D02*
G75*
G02*
X29592956Y71292027I-23156250J-73635244D01*
G01*
X-43344511Y-31241291D02*
G75*
G03*
X-38293361Y-37261017I43344396J31241196D01*
G01*
X53429929Y18185606D02*
G75*
G03*
X52619182Y20413114I-53428229J-18185006D01*
G01*
X-45364549Y29823845D02*
G75*
G03*
X-48510482Y24374930I45364417J-29823773D01*
G01*
X-33607794Y43726864D02*
G75*
G03*
X-37226623Y40690307I33607649J-43726707D01*
G01*
X66719612Y-36184298D02*
G75*
G02*
X65731328Y-37950000I-66725503J36187614D01*
G01*
X34194692Y-43816201D02*
G75*
G03*
X37212688Y-41283801I-34195061J43816630D01*
G01*
X-35987749Y-67313823D02*
G75*
G02*
X-40301609Y-64823220I35987849J67314123D01*
G01*
X-24048838Y-71989328D02*
G75*
G02*
X-25959329Y-71322670I24048728J71989059D01*
G01*
X-71957070Y-31325556D02*
G75*
G02*
X-75257993Y-22256345I71956964J31325518D01*
G01*
X-40301607Y64823217D02*
G75*
G02*
X-35987747Y67313820I40301707J-64823517D01*
G01*
X9093639Y-56138246D02*
G75*
G03*
X10655186Y-55862903I-9093878J56139574D01*
G01*
X37178873Y42464162D02*
G75*
G03*
X35362992Y43987866I-37179237J-42464627D01*
G01*
X-55987778Y1577586D02*
G75*
G03*
X-55987778Y-1577586I55986945J-1577586D01*
G01*
X-71292027Y-29592956D02*
G75*
G02*
X-73634843Y-23156111I71292427J29593056D01*
G01*
X54662246Y-56910693D02*
G75*
G02*
X46554092Y-63714242I-54662327J56910790D01*
G01*
X-76328145Y21652942D02*
G75*
G02*
X-72388994Y32475670I76328021J-21652898D01*
G01*
X-73634846Y23156112D02*
G75*
G02*
X-71292030Y29592957I73635246J-23156212D01*
G01*
X51712493Y15057148D02*
G75*
G03*
X49292612Y21705703I-51712393J-15057148D01*
G01*
X-37196751Y-41875074D02*
G75*
G03*
X-34779747Y-43903177I37196851J41875274D01*
G01*
X77237612Y19940015D02*
G75*
G02*
X79399501Y7679334I-77237801J-19940049D01*
G01*
X30171484Y-71516054D02*
G75*
G02*
X22856935Y-74178332I-30171534J71516193D01*
G01*
X29240218Y48275079D02*
G75*
G03*
X27187335Y49460309I-29239818J-48274479D01*
G01*
X-38293361Y37261017D02*
G75*
G03*
X-43344511Y31241291I38293246J-37260922D01*
G01*
X53921659Y6313379D02*
G75*
G03*
X52829088Y12509658I-53921419J-6313339D01*
G01*
X12816373Y52312906D02*
G75*
G03*
X5848616Y53541510I-12816323J-52312606D01*
G01*
X-17146476Y52869034D02*
G75*
G03*
X-20848597Y51521572I17146262J-52868441D01*
G01*
X-49292616Y21705705D02*
G75*
G03*
X-51712493Y15057148I49292543J-21705680D01*
G01*
X-65424255Y-43344864D02*
G75*
G02*
X-70249881Y-34986635I65424111J43344783D01*
G01*
X54047161Y-56903557D02*
G75*
G02*
X46653872Y-63107261I-54047061J56903457D01*
G01*
X-18354436Y76303506D02*
G75*
G02*
X-8849808Y77979430I18354486J-76303736D01*
G01*
X-48312217Y-23808176D02*
G75*
G03*
X-44774594Y-29935519I48312157J23808141D01*
G01*
X37688190Y-37263928D02*
G75*
G03*
X43242291Y-30644808I-37688305J37264024D01*
G01*
X-14532515Y51415668D02*
G75*
G03*
X-21916802Y48728007I14532487J-51415584D01*
G01*
X-43635101Y-33019031D02*
G75*
G03*
X-40094552Y-37238490I43635201J33019131D01*
G01*
X20193801Y53163966D02*
G75*
G03*
X18703790Y53706286I-20194347J-53165432D01*
G01*
X-55275641Y56916071D02*
G75*
G02*
X-46452873Y64319252I55275641J-56916071D01*
G01*
X-41875074Y37196751D02*
G75*
G03*
X-43903177Y34779747I41875274J-37196851D01*
G01*
X37159113Y43051100D02*
G75*
G03*
X35944445Y44070328I-37163872J-43056749D01*
G01*
X-75987374Y-17824745D02*
G75*
G02*
X-77501195Y-9239431I75987474J17824745D01*
G01*
X-50412870Y21279590D02*
G75*
G03*
X-52296755Y16103656I50413170J-21279690D01*
G01*
X5383496Y-53158093D02*
G75*
G03*
X13122307Y-51793532I-5383505J53158152D01*
G01*
X49854216Y-21493283D02*
G75*
G03*
X52006161Y-15580863I-49854216J21493283D01*
G01*
X-23454506Y-73088876D02*
G75*
G02*
X-29013429Y-71065593I23454385J73088523D01*
G01*
X-22126518Y-48160328D02*
G75*
G03*
X-14006966Y-51115603I22126473J48160208D01*
G01*
X50412870Y-21279590D02*
G75*
G03*
X52296756Y-16103656I-50413202J21279712D01*
G01*
X-20193801Y-53163966D02*
G75*
G03*
X-18703789Y-53706285I20194301J53165466D01*
G01*
D14*
X0Y-82700000D02*
G75*
G03*
X82700000Y0I0J82700000D01*
G01*
D12*
X27745636Y-49642488D02*
G75*
G03*
X29118837Y-48849670I-27745699J49642594D01*
G01*
X16232239Y-75024076D02*
G75*
G02*
X10406430Y-76051324I-16232303J75024390D01*
G01*
X19412074Y-76928584D02*
G75*
G02*
X8069742Y-78928543I-19412105J76928762D01*
G01*
X76928584Y19412074D02*
G75*
G02*
X78928543Y8069742I-76928762J-19412105D01*
G01*
X-64823217Y-40301607D02*
G75*
G02*
X-67313820Y-35987747I64823517J40301707D01*
G01*
X46554092Y63714242D02*
G75*
G02*
X54662246Y56910693I-46554173J-63714339D01*
G01*
X54359165Y-11585233D02*
G75*
G03*
X55043289Y-7705371I-54359301J11585252D01*
G01*
X48898487Y25504126D02*
G75*
G03*
X46536465Y29595269I-48898487J-25504126D01*
G01*
X29935519Y44774594D02*
G75*
G03*
X23808179Y48312223I-29935519J-44774494D01*
G01*
X51270894Y-13427413D02*
G75*
G03*
X52771327Y-4918037I-51270934J13427423D01*
G01*
X-52296756Y-16103656D02*
G75*
G03*
X-50412871Y-21279590I52297056J16103756D01*
G01*
X-6313379Y53921659D02*
G75*
G03*
X-12509658Y52829088I6313335J-53921418D01*
G01*
X54198775Y-3145933D02*
G75*
G03*
X54198775Y3145933I-54198808J3145933D01*
G01*
X-53429929Y-18185606D02*
G75*
G03*
X-52619183Y-20413114I53428241J18184977D01*
G01*
X-43726864Y-33607794D02*
G75*
G03*
X-40690307Y-37226623I43726707J33607649D01*
G01*
X31835805Y-43444000D02*
G75*
G03*
X37255754Y-38896114I-31835705J43443800D01*
G01*
X69082331Y-35390619D02*
G75*
G02*
X65190344Y-42131746I-69082231J35390519D01*
G01*
X53158093Y5383496D02*
G75*
G03*
X51793532Y13122307I-53158152J-5383505D01*
G01*
X-53163966Y20193801D02*
G75*
G03*
X-53706285Y18703789I53165466J-20194301D01*
G01*
X-60659163Y47037894D02*
G75*
G02*
X-56856635Y51569569I60659263J-47037994D01*
G01*
X-52071736Y20631394D02*
G75*
G03*
X-53150868Y17666502I52070922J-20631090D01*
G01*
X-37263928Y-37688190D02*
G75*
G03*
X-30644809Y-43242293I37264028J37688290D01*
G01*
X-63107262Y46653873D02*
G75*
G02*
X-56903557Y54047161I63107122J-46653753D01*
G01*
X56916071Y55275641D02*
G75*
G02*
X64319252Y46452873I-56916102J-55275665D01*
G01*
X-75257993Y22256345D02*
G75*
G02*
X-71957070Y31325556I75257887J-22256307D01*
G01*
X-77020461Y9628755D02*
G75*
G02*
X-75668787Y17294479I77019898J-9628656D01*
G01*
X-19412074Y76928584D02*
G75*
G02*
X-8069742Y78928543I19412104J-76928764D01*
G01*
X43344864Y-65424255D02*
G75*
G02*
X34986633Y-70249877I-43344764J65424155D01*
G01*
X53342147Y-12202202D02*
G75*
G03*
X54298621Y-6777769I-53342285J12202228D01*
G01*
X-29013429Y71065593D02*
G75*
G02*
X-23454506Y73088876I29013308J-71065240D01*
G01*
X49460311Y27187336D02*
G75*
G03*
X48275081Y29240219I-49459711J-27186936D01*
G01*
X42738994Y-65308352D02*
G75*
G02*
X35189195Y-69667232I-42738894J65308152D01*
G01*
X75257993Y-22256345D02*
G75*
G02*
X71957066Y-31325554I-75257893J22256345D01*
G01*
X45154304Y-65759727D02*
G75*
G02*
X34372443Y-71984638I-45154378J65759848D01*
G01*
X76537184Y-10017761D02*
G75*
G02*
X75347703Y-16763642I-76537313J10017786D01*
G01*
X4825626Y-78331499D02*
G75*
G02*
X-4825626Y-78331499I-4825626J78331505D01*
G01*
X-50945768Y56840106D02*
G75*
G02*
X-47129934Y60041965I50946268J-56840806D01*
G01*
X-62498289Y46752180D02*
G75*
G02*
X-56894623Y53430369I62498063J-46751991D01*
G01*
X-67313823Y35987749D02*
G75*
G02*
X-64823220Y40301609I67314123J-35987849D01*
G01*
X-52869034Y-17146476D02*
G75*
G03*
X-51521572Y-20848597I52868441J17146262D01*
G01*
X-43242291Y-30644808D02*
G75*
G03*
X-37688189Y-37263927I43242391J30644908D01*
G01*
X-53541510Y-5848616D02*
G75*
G03*
X-52312906Y-12816373I53541209J5848567D01*
G01*
X-22557005Y-74719369D02*
G75*
G02*
X-30749014Y-71737715I22557105J74719469D01*
G01*
X-56821569Y-50320168D02*
G75*
G02*
X-58142773Y-48787580I56818578J50317590D01*
G01*
X-42738994Y65308352D02*
G75*
G02*
X-35189195Y69667231I42738901J-65308182D01*
G01*
X10017761Y76537184D02*
G75*
G02*
X16763642Y75347703I-10017786J-76537313D01*
G01*
X-51415668Y-14532515D02*
G75*
G03*
X-48728007Y-21916802I51415584J14532487D01*
G01*
X-70836707Y-28432901D02*
G75*
G02*
X-72540382Y-23752091I70835809J28432567D01*
G01*
X40094553Y-37238491D02*
G75*
G03*
X43635101Y-33019031I-40094627J37238559D01*
G01*
X-10794739Y-75562838D02*
G75*
G02*
X-15700277Y-74697860I10794739J75562938D01*
G01*
X76051324Y-10406430D02*
G75*
G02*
X75024076Y-16232239I-76051638J10406494D01*
G01*
X72601652Y33049252D02*
G75*
G02*
X76859742Y21350247I-72601852J-33049327D01*
G01*
X41283801Y-37212688D02*
G75*
G03*
X43816201Y-34194692I-41284230J37213057D01*
G01*
X-77237612Y-19940015D02*
G75*
G02*
X-79399500Y-7679334I77237802J19940045D01*
G01*
X37261017Y38293361D02*
G75*
G03*
X31241290Y43344509I-37260917J-38293261D01*
G01*
X-50320168Y56821569D02*
G75*
G02*
X-48787580Y58142773I50317590J-56818578D01*
G01*
X-23752091Y-72540382D02*
G75*
G02*
X-28432901Y-70836707I23751757J72539484D01*
G01*
X20413114Y52619183D02*
G75*
G03*
X18185606Y53429930I-20412514J-52617483D01*
G01*
X-25504126Y48898487D02*
G75*
G03*
X-29595269Y46536465I25504120J-48898487D01*
G01*
X22856935Y74178332D02*
G75*
G02*
X30171484Y71516054I-22856985J-74178471D01*
G01*
X62498289Y-46752180D02*
G75*
G02*
X56894625Y-53430371I-62498089J46751980D01*
G01*
X-3891990Y77522363D02*
G75*
G02*
X3891990Y77522363I3891990J-77522113D01*
G01*
X24940242Y-48705880D02*
G75*
G03*
X29710408Y-45951823I-24940274J48705929D01*
G01*
X54863253Y-11275795D02*
G75*
G03*
X55411143Y-8168557I-54863760J11275886D01*
G01*
X-78928543Y8069742D02*
G75*
G02*
X-76928584Y19412074I78928723J-8069772D01*
G01*
D14*
X-82700000Y0D02*
G75*
G03*
X0Y-82700000I82699999J-1D01*
G01*
D12*
X56138246Y9093639D02*
G75*
G03*
X55862903Y10655186I-56139574J-9093878D01*
G01*
X-35189195Y-69667231D02*
G75*
G02*
X-42738994Y-65308352I35189102J69667061D01*
G01*
X-16232239Y75024076D02*
G75*
G02*
X-10406430Y76051327I16232339J-75024376D01*
G01*
X63107262Y-46653873D02*
G75*
G02*
X56903558Y-54047162I-63107162J46653773D01*
G01*
X71065593Y29013429D02*
G75*
G02*
X73088879Y23454507I-71065193J-29013329D01*
G01*
X-76537184Y10017761D02*
G75*
G02*
X-75347705Y16763642I76537284J-10017761D01*
G01*
X43816201Y34194692D02*
G75*
G03*
X41283801Y37212688I-43816630J-34195061D01*
G01*
X-49642488Y-27745636D02*
G75*
G03*
X-48849669Y-29118836I49642588J27745736D01*
G01*
X72174147Y31901106D02*
G75*
G02*
X75794236Y21954982I-72173947J-31901006D01*
G01*
X-17294479Y75668787D02*
G75*
G02*
X-9628755Y77020461I17294380J-75668224D01*
G01*
X-22670300Y47906758D02*
G75*
G03*
X-30153324Y43586441I22670300J-47906858D01*
G01*
X-29595269Y-46536465D02*
G75*
G03*
X-25504126Y-48898487I29595263J46536465D01*
G01*
X53430369Y-56894623D02*
G75*
G02*
X46752178Y-62498287I-53430169J56894423D01*
G01*
X11275795Y54863253D02*
G75*
G03*
X8168557Y55411143I-11275886J-54863760D01*
G01*
X-74369006Y-15167760D02*
G75*
G02*
X-74746908Y-13179897I74366097J15167193D01*
G01*
X-30153320Y-43586435D02*
G75*
G03*
X-22670297Y-47906751I30153320J43586535D01*
G01*
X-71989328Y24048838D02*
G75*
G02*
X-71322670Y25959329I71989059J-24048728D01*
G01*
X52619183Y-20413114D02*
G75*
G03*
X53429930Y-18185606I-52617483J20412514D01*
G01*
X1577586Y55987778D02*
G75*
G03*
X-1577586Y55987778I-1577586J-55986945D01*
G01*
X53285337Y-3929097D02*
G75*
G03*
X53285337Y3929097I-53285484J3929097D01*
G01*
X-71065593Y-29013429D02*
G75*
G02*
X-73088876Y-23454506I71065240J29013308D01*
G01*
X2490607Y-76289356D02*
G75*
G02*
X-2490607Y-76289356I-2490607J76290120D01*
G01*
X79399501Y-7679334D02*
G75*
G02*
X77237612Y-19940015I-79399690J7679368D01*
G01*
X47037894Y60659163D02*
G75*
G02*
X51569570Y56856636I-47037962J-60659254D01*
G01*
X-72388994Y-32475670D02*
G75*
G02*
X-76328145Y-21652942I72388870J32475626D01*
G01*
X23752091Y72540382D02*
G75*
G02*
X28432900Y70836705I-23751791J-72539482D01*
G01*
X-52811852Y56883853D02*
G75*
G02*
X-46848978Y61887300I52811952J-56883953D01*
G01*
X47118523Y-29478487D02*
G75*
G03*
X49088381Y-26066595I-47118323J29478387D01*
G01*
X-56427554Y1185232D02*
G75*
G03*
X-56427554Y-1185232I56428554J-1185232D01*
G01*
X-17666502Y53150868D02*
G75*
G03*
X-20631394Y52071736I17666198J-53150054D01*
G01*
X43635101Y33019031D02*
G75*
G03*
X40094553Y37238491I-43635175J-33019099D01*
G01*
X-56916071Y-55275641D02*
G75*
G02*
X-64319252Y-46452873I56916071J55275641D01*
G01*
X-17824745Y75987374D02*
G75*
G02*
X-9239431Y77501195I17824745J-75987474D01*
G01*
X-72601652Y-33049252D02*
G75*
G02*
X-76859746Y-21350248I72601852J33049352D01*
G01*
X55545081Y-1969857D02*
G75*
G03*
X55545081Y1969857I-55544481J1969857D01*
G01*
X29118837Y48849670D02*
G75*
G03*
X27745636Y49642488I-29118900J-48849776D01*
G01*
X2023285Y-75873028D02*
G75*
G02*
X0Y-75900001I-2023285J75870828D01*
G01*
X13122307Y51793532D02*
G75*
G03*
X5383496Y53158093I-13122316J-51793591D01*
G01*
X33049252Y-72601652D02*
G75*
G02*
X21350247Y-76859742I-33049327J72601852D01*
G01*
X-16625528Y52584354D02*
G75*
G03*
X-21064678Y50968636I16625493J-52584273D01*
G01*
X39688730Y-64696327D02*
G75*
G02*
X37950000Y-65731328I-39689396J64697464D01*
G01*
X52829088Y-12509658D02*
G75*
G03*
X53921663Y-6313379I-52828888J12509658D01*
G01*
X-21350247Y-76859742D02*
G75*
G02*
X-33049250Y-72601649I21350347J76859942D01*
G01*
X55043289Y7705371D02*
G75*
G03*
X54359165Y11585233I-55043425J-7705390D01*
G01*
X54650650Y-2754057D02*
G75*
G03*
X54650650Y2754057I-54650450J2754057D01*
G01*
X-23156112Y-73634846D02*
G75*
G02*
X-29592957Y-71292030I23156212J73635246D01*
G01*
X3891990Y-77522363D02*
G75*
G02*
X-3891990Y-77522363I-3891990J77522113D01*
G01*
X-30171484Y71516054D02*
G75*
G02*
X-22856934Y74178329I30171484J-71516154D01*
G01*
X4320324Y52823620D02*
G75*
G03*
X-4320324Y52823620I-4320324J-52823703D01*
G01*
X-55862903Y10655186D02*
G75*
G03*
X-56138245Y9093639I55864203J-10655386D01*
G01*
X-21652942Y-76328145D02*
G75*
G02*
X-32475670Y-72388994I21652898J76328021D01*
G01*
X-15167760Y74369006D02*
G75*
G02*
X-13179897Y74746908I15167193J-74366097D01*
G01*
X53150868Y17666502D02*
G75*
G03*
X52071736Y20631394I-53150068J-17666202D01*
G01*
X7705371Y-55043289D02*
G75*
G03*
X11585233Y-54359165I-7705390J55043425D01*
G01*
X50320168Y-56821569D02*
G75*
G02*
X48787580Y-58142773I-50317568J56818569D01*
G01*
X-23239970Y48111004D02*
G75*
G03*
X-30045363Y44181902I23240070J-48111104D01*
G01*
X42464162Y-37178873D02*
G75*
G03*
X43987866Y-35362992I-42464627J37179237D01*
G01*
X-24374930Y48510482D02*
G75*
G03*
X-29823845Y45364549I24374858J-48510350D01*
G01*
X6224911Y-79526746D02*
G75*
G02*
X-6224911Y-79526746I-6224911J79526636D01*
G01*
X11182666Y75071686D02*
G75*
G02*
X13179897Y74746909I-11182566J-75071186D01*
G01*
X8849808Y77979429D02*
G75*
G02*
X18354436Y76303506I-8849853J-77979656D01*
G01*
X52823620Y-4320324D02*
G75*
G03*
X52823620Y4320324I-52823703J4320324D01*
G01*
X-52191592Y56871204D02*
G75*
G02*
X-46944228Y61274265I52191230J-56870776D01*
G01*
X-29935519Y-44774594D02*
G75*
G03*
X-23808176Y-48312217I29935484J44774534D01*
G01*
X55411143Y8168557D02*
G75*
G03*
X54863253Y11275795I-55411650J-8168648D01*
G01*
X22557005Y74719369D02*
G75*
G02*
X30749016Y71737720I-22557060J-74719500D01*
G01*
X18883547Y-76617229D02*
G75*
G02*
X8459906Y-78455200I-18883547J76617129D01*
G01*
X-43586435Y30153320D02*
G75*
G03*
X-47906751Y22670297I43586535J-30153320D01*
G01*
X-55776106Y-8631316D02*
G75*
G03*
X-55364479Y-10965768I55774752J8631080D01*
G01*
X71292027Y29592956D02*
G75*
G02*
X73634846Y23156112I-71292425J-29593094D01*
G01*
X49275631Y26627660D02*
G75*
G03*
X47698045Y29360119I-49275131J-26627360D01*
G01*
X34578229Y71408555D02*
G75*
G02*
X44552504Y65649896I-34578229J-71408455D01*
G01*
X-54047161Y56903557D02*
G75*
G02*
X-46653873Y63107262I54047041J-56903417D01*
G01*
X44070328Y35944445D02*
G75*
G03*
X43051100Y37159113I-44075977J-35949204D01*
G01*
X-76928584Y-19412074D02*
G75*
G02*
X-78928538Y-8069741I76928784J19412074D01*
G01*
X15580863Y-52006161D02*
G75*
G03*
X21493283Y-49854216I-15580863J52006161D01*
G01*
X47698045Y-29360119D02*
G75*
G03*
X49275630Y-26627660I-47697545J29359819D01*
G01*
X43586435Y-30153320D02*
G75*
G03*
X47906758Y-22670300I-43586511J30153360D01*
G01*
X56910693Y54662246D02*
G75*
G02*
X63714242Y46554092I-56910790J-54662327D01*
G01*
X15167760Y-74369006D02*
G75*
G02*
X13179897Y-74746907I-15167160J74366106D01*
G01*
X46653873Y63107262D02*
G75*
G02*
X54047162Y56903558I-46653773J-63107162D01*
G01*
X44552508Y-65649902D02*
G75*
G02*
X34578232Y-71408561I-44552508J65649802D01*
G01*
X-5758653Y79130737D02*
G75*
G02*
X5758653Y79130737I5758653J-79130791D01*
G01*
X-46752180Y-62498289D02*
G75*
G02*
X-53430369Y-56894623I46751991J62498063D01*
G01*
X-78732334Y-5292221D02*
G75*
G02*
X-78732334Y5292221I78732109J5292221D01*
G01*
X15700277Y-74697860D02*
G75*
G02*
X10794739Y-75562838I-15700288J74697986D01*
G01*
X65759727Y45154304D02*
G75*
G02*
X71984638Y34372443I-65759848J-45154378D01*
G01*
X22256345Y75257993D02*
G75*
G02*
X31325554Y71957066I-22256345J-75257893D01*
G01*
X-43051100Y37159113D02*
G75*
G03*
X-44070329Y35944446I43056700J-37163913D01*
G01*
X-76289356Y-2490607D02*
G75*
G02*
X-76289356Y2490607I76290156J2490607D01*
G01*
X77979429Y-8849808D02*
G75*
G02*
X76303506Y-18354436I-77979656J8849853D01*
G01*
X70605320Y27851370D02*
G75*
G02*
X71322670Y25959329I-70609940J-27853120D01*
G01*
X-72174147Y-31901106D02*
G75*
G02*
X-75794240Y-21954983I72173902J31901019D01*
G01*
X-45154304Y65759727D02*
G75*
G02*
X-34372445Y71984643I45154404J-65759827D01*
G01*
X8069742Y78928543D02*
G75*
G02*
X19412074Y76928584I-8069773J-78928721D01*
G01*
X51793532Y-13122307D02*
G75*
G03*
X53158093Y-5383496I-51793591J13122316D01*
G01*
X41523103Y-65070178D02*
G75*
G02*
X35590875Y-68495151I-41523132J65070236D01*
G01*
X27851370Y-70605320D02*
G75*
G02*
X25959329Y-71322670I-27853120J70609940D01*
G01*
X-53150868Y-17666502D02*
G75*
G03*
X-52071736Y-20631394I53150054J17666198D01*
G01*
X43726864Y33607794D02*
G75*
G03*
X40690303Y37226619I-43726664J-33607694D01*
G01*
X9239431Y77501196D02*
G75*
G02*
X17824745Y75987374I-9239448J-77501319D01*
G01*
X16103656Y-52296756D02*
G75*
G03*
X21279590Y-50412870I-16103778J52297088D01*
G01*
X1969857Y55545081D02*
G75*
G03*
X-1969857Y55545081I-1969857J-55544507D01*
G01*
X55987778Y-1577586D02*
G75*
G03*
X55987778Y1577586I-55986978J1577586D01*
G01*
X42131744Y-65190341D02*
G75*
G02*
X35390617Y-69082328I-42131644J65190241D01*
G01*
X-8168557Y55411143D02*
G75*
G03*
X-11275795Y54863252I8168657J-55411643D01*
G01*
X-40690307Y37226623D02*
G75*
G03*
X-43726864Y33607794I40690150J-37226478D01*
G01*
X-61887299Y46848977D02*
G75*
G02*
X-56883852Y52811851I61887399J-46849077D01*
G01*
X-55364479Y10965768D02*
G75*
G03*
X-55776106Y8631316I55363125J-10965532D01*
G01*
X48728007Y-21916802D02*
G75*
G03*
X51415673Y-14532516I-48727907J21916802D01*
G01*
X35362992Y-43987866D02*
G75*
G03*
X37178873Y-42464162I-35363356J43988331D01*
G01*
X-35362992Y43987866D02*
G75*
G03*
X-37178873Y42464162I35363392J-43988366D01*
G01*
X52869034Y17146476D02*
G75*
G03*
X51521571Y20848597I-52868434J-17146276D01*
G01*
X-43903179Y-34779749D02*
G75*
G03*
X-41875076Y-37196753I43903379J34779849D01*
G01*
X46536465Y-29595269D02*
G75*
G03*
X48898487Y-25504126I-46536465J29595269D01*
G01*
X-55099395Y2362023D02*
G75*
G03*
X-55099395Y-2362023I55099217J-2362023D01*
G01*
X-5383496Y53158093D02*
G75*
G03*
X-13122308Y51793534I5383496J-53158193D01*
G01*
X77928189Y4358878D02*
G75*
G02*
X77928189Y-4358878I-77927989J-4358878D01*
G01*
X-51270894Y13427413D02*
G75*
G03*
X-52771327Y4918037I51270894J-13427413D01*
G01*
X-51115603Y-14006966D02*
G75*
G03*
X-48160328Y-22126518I51115483J14006921D01*
G01*
X-37261017Y-38293361D02*
G75*
G03*
X-31241291Y-43344511I37260922J38293246D01*
G01*
X19940015Y-77237612D02*
G75*
G02*
X7679334Y-79399501I-19940049J77237801D01*
G01*
X65070178Y41523103D02*
G75*
G02*
X68495151Y35590875I-65070236J-41523132D01*
G01*
X46350249Y64922317D02*
G75*
G02*
X55887366Y56919728I-46350149J-64922217D01*
G01*
X54298621Y6777769D02*
G75*
G03*
X53342147Y12202202I-54298759J-6777795D01*
G01*
X48275079Y-29240218D02*
G75*
G03*
X49460309Y-27187335I-48274479J29239818D01*
G01*
X-79130737Y-5758653D02*
G75*
G02*
X-79130737Y5758653I79130837J5758653D01*
G01*
X18354436Y-76303506D02*
G75*
G02*
X8849808Y-77979429I-18354481J76303733D01*
G01*
X74178332Y-22856935D02*
G75*
G02*
X71516054Y-30171484I-74178471J22856985D01*
G01*
X34372443Y71984638D02*
G75*
G02*
X45154304Y65759727I-34372517J-71984759D01*
G01*
X28432901Y-70836707D02*
G75*
G02*
X23752092Y-72540384I-28432601J70835807D01*
G01*
X41875074Y-37196751D02*
G75*
G03*
X43903179Y-34779749I-41875263J37196901D01*
G01*
X-43540837Y-32428377D02*
G75*
G03*
X-39496503Y-37248224I43540937J32428477D01*
G01*
X40690307Y-37226623D02*
G75*
G03*
X43726868Y-33607797I-40690107J37226523D01*
G01*
X-78455198Y8459906D02*
G75*
G02*
X-76617229Y18883547I78455126J-8459892D01*
G01*
X-8069742Y-78928543D02*
G75*
G02*
X-19412074Y-76928584I8069772J78928723D01*
G01*
X-48160328Y22126518D02*
G75*
G03*
X-51115603Y14006966I48160208J-22126473D01*
G01*
X22126518Y48160328D02*
G75*
G03*
X14006966Y51115602I-22126468J-48160208D01*
G01*
X21350247Y76859742D02*
G75*
G02*
X33049252Y72601652I-21350322J-76859942D01*
G01*
X15057148Y-51712493D02*
G75*
G03*
X21705703Y-49292612I-15057148J51712393D01*
G01*
X20631394Y52071736D02*
G75*
G03*
X17666502Y53150868I-20631094J-52070936D01*
G01*
X-44181907Y30045366D02*
G75*
G03*
X-48111009Y23239972I44182007J-30045466D01*
G01*
X2362023Y55099395D02*
G75*
G03*
X-2362023Y55099395I-2362023J-55099217D01*
G01*
X64823217Y40301607D02*
G75*
G02*
X67313823Y35987749I-64823505J-40301757D01*
G01*
X-37248225Y-39496504D02*
G75*
G03*
X-32428378Y-43540838I37248325J39496604D01*
G01*
X-10965768Y-55364479D02*
G75*
G03*
X-8631316Y-55776106I10965532J55363125D01*
G01*
X30749016Y-71737720D02*
G75*
G02*
X22557005Y-74719369I-30749071J71737851D01*
G01*
X-26066594Y49088380D02*
G75*
G03*
X-29478487Y47118523I26066477J-49088185D01*
G01*
X-51793532Y13122307D02*
G75*
G03*
X-53158091Y5383496I51793632J-13122307D01*
G01*
X18703790Y-53706286D02*
G75*
G03*
X20193801Y-53163966I-18704336J53707752D01*
G01*
X-47698045Y29360119D02*
G75*
G03*
X-49275631Y26627660I47697519J-29359816D01*
G01*
X-44774594Y29935519D02*
G75*
G03*
X-48312217Y23808176I44774534J-29935484D01*
G01*
X-54359165Y11585233D02*
G75*
G03*
X-55043288Y7705371I54359265J-11585233D01*
G01*
X-72540382Y23752091D02*
G75*
G02*
X-70836707Y28432901I72539484J-23751757D01*
G01*
X46452873Y64319252D02*
G75*
G02*
X55275641Y56916071I-46452897J-64319283D01*
G01*
X-49088380Y-26066594D02*
G75*
G03*
X-47118523Y-29478487I49088185J26066477D01*
G01*
X-37159113Y-43051100D02*
G75*
G03*
X-35944446Y-44070329I37163913J43056700D01*
G01*
X-2754057Y-54650650D02*
G75*
G03*
X2754057Y-54650650I2754057J54650473D01*
G01*
X-74697860Y-15700277D02*
G75*
G02*
X-75562838Y-10794739I74697960J15700277D01*
G01*
X-8631316Y55776106D02*
G75*
G03*
X-10965768Y55364479I8631080J-55774752D01*
G01*
X18185606Y-53429929D02*
G75*
G03*
X20413114Y-52619182I-18185006J53428229D01*
G01*
X43540837Y32428377D02*
G75*
G03*
X39496504Y37248225I-43540901J-32428433D01*
G01*
X60041968Y-47129937D02*
G75*
G02*
X56840106Y-50945768I-60042626J47130483D01*
G01*
X64922317Y-46350249D02*
G75*
G02*
X56919728Y-55887366I-64922217J46350149D01*
G01*
X46944228Y61274265D02*
G75*
G02*
X52191595Y56871207I-46943828J-61273865D01*
G01*
X10655186Y55862903D02*
G75*
G03*
X9093639Y56138246I-10655425J-55864231D01*
G01*
X-61274265Y46944228D02*
G75*
G02*
X-56871204Y52191592I61273837J-46943866D01*
G01*
X14006966Y-51115603D02*
G75*
G03*
X22126518Y-48160329I-14006916J51115483D01*
G01*
X74369006Y15167760D02*
G75*
G02*
X74746907Y13179897I-74366106J-15167160D01*
G01*
X-56856636Y-51569570D02*
G75*
G02*
X-60659164Y-47037895I56856736J51569670D01*
G01*
X-44552508Y65649902D02*
G75*
G02*
X-34578229Y71408555I44552463J-65649821D01*
G01*
X65538091Y43949365D02*
G75*
G02*
X70830309Y34782968I-65537791J-43949165D01*
G01*
X-71737720Y-30749016D02*
G75*
G02*
X-74719375Y-22557007I71737820J30749116D01*
G01*
X17146476Y-52869034D02*
G75*
G03*
X20848597Y-51521571I-17146276J52868434D01*
G01*
X56894623Y53430369D02*
G75*
G02*
X62498287Y46752178I-56894423J-53430169D01*
G01*
X-64696327Y-39688730D02*
G75*
G02*
X-65731329Y-37950001I64697427J39689430D01*
G01*
X27187336Y-49460311D02*
G75*
G03*
X29240219Y-48275081I-27186936J49459711D01*
G01*
X70249881Y-34986635D02*
G75*
G02*
X65424259Y-43344867I-70249781J34986535D01*
G01*
X-56903557Y-54047161D02*
G75*
G02*
X-63107262Y-46653873I56903417J54047041D01*
G01*
X3537623Y53743696D02*
G75*
G03*
X-3537623Y53743696I-3537623J-53743852D01*
G01*
X-39688730Y64696327D02*
G75*
G02*
X-37950001Y65731329I39689430J-64697427D01*
G01*
X-39496504Y37248225D02*
G75*
G03*
X-43540838Y32428378I39496604J-37248325D01*
G01*
X56821569Y50320168D02*
G75*
G02*
X58142773Y48787580I-56818569J-50317568D01*
G01*
X37212688Y41283801D02*
G75*
G03*
X34194692Y43816201I-37213057J-41284230D01*
G01*
X-29823845Y-45364549D02*
G75*
G03*
X-24374930Y-48510482I29823773J45364417D01*
G01*
X14532515Y-51415668D02*
G75*
G03*
X21916800Y-48728003I-14532515J51415568D01*
G01*
X-21279590Y-50412870D02*
G75*
G03*
X-16103656Y-52296755I21279690J50413170D01*
G01*
X6313379Y-53921659D02*
G75*
G03*
X12509658Y-52829088I-6313339J53921419D01*
G01*
X43903179Y34779749D02*
G75*
G03*
X41875074Y37196751I-43903368J-34779899D01*
G01*
X33019031Y-43635101D02*
G75*
G03*
X37238491Y-40094553I-33019099J43635175D01*
G01*
X-46350249Y-64922317D02*
G75*
G02*
X-55887365Y-56919727I46350177J64922235D01*
G01*
X-7679334Y-79399501D02*
G75*
G02*
X-19940015Y-77237613I7679364J79399691D01*
G01*
X34782969Y70830312D02*
G75*
G02*
X43949367Y65538093I-34782769J-70830012D01*
G01*
X50945768Y-56840106D02*
G75*
G02*
X47129937Y-60041968I-50946314J56840764D01*
G01*
X-63714242Y46554092D02*
G75*
G02*
X-56910692Y54662245I63714342J-46554192D01*
G01*
X78331499Y4825626D02*
G75*
G02*
X78331499Y-4825626I-78331505J-4825626D01*
G01*
X-29478487Y-47118523D02*
G75*
G03*
X-26066594Y-49088380I29478370J47118328D01*
G01*
X-4320324Y-52823620D02*
G75*
G03*
X4320324Y-52823620I4320324J52823703D01*
G01*
X-1577586Y-55987778D02*
G75*
G03*
X1577586Y-55987778I1577586J55986945D01*
G01*
X-12816373Y-52312906D02*
G75*
G03*
X-5848616Y-53541510I12816324J52312605D01*
G01*
X-35390619Y-69082331D02*
G75*
G02*
X-42131744Y-65190341I35390539J69082198D01*
G01*
X-37178873Y-42464162D02*
G75*
G03*
X-35362992Y-43987866I37179273J42464662D01*
G01*
X-2957841Y76702991D02*
G75*
G02*
X2957841Y76702991I2957841J-76703445D01*
G01*
X56427554Y-1185232D02*
G75*
G03*
X56427554Y1185232I-56428571J1185232D01*
G01*
X49292616Y-21705705D02*
G75*
G03*
X51712497Y-15057149I-49292516J21705705D01*
G01*
X-10406430Y-76051324D02*
G75*
G02*
X-16232238Y-75024073I10406530J76051624D01*
G01*
X-64319252Y46452873D02*
G75*
G02*
X-56916071Y55275641I64319252J-46452873D01*
G01*
X34986635Y70249881D02*
G75*
G02*
X43344867Y65424259I-34986535J-70249781D01*
G01*
X-1969857Y-55545081D02*
G75*
G03*
X1969857Y-55545081I1969857J55544507D01*
G01*
X-22856935Y-74178332D02*
G75*
G02*
X-30171485Y-71516057I22856935J74178432D01*
G01*
D14*
X82700000Y0D02*
G75*
G03*
X0Y82700000I-82700000J0D01*
G01*
D12*
X2754057Y54650650D02*
G75*
G03*
X-2754057Y54650650I-2754057J-54650473D01*
G01*
X49088380Y26066594D02*
G75*
G03*
X47118522Y29478486I-49088180J-26066494D01*
G01*
X-28432901Y70836707D02*
G75*
G02*
X-23752091Y72540382I28432567J-70835809D01*
G01*
X51115603Y14006966D02*
G75*
G03*
X48160329Y22126518I-51115483J-14006916D01*
G01*
X36184298Y66719612D02*
G75*
G02*
X37950000Y65731328I-36187614J-66725503D01*
G01*
X32428377Y-43540837D02*
G75*
G03*
X37248225Y-39496504I-32428433J43540901D01*
G01*
X-3929097Y-53285337D02*
G75*
G03*
X3929097Y-53285337I3929097J53285484D01*
G01*
X-74719369Y22557005D02*
G75*
G02*
X-71737715Y30749014I74719469J-22557105D01*
G01*
X55275641Y-56916071D02*
G75*
G02*
X46452873Y-64319252I-55275665J56916102D01*
G01*
X35789930Y67905659D02*
G75*
G02*
X40913061Y64947818I-35790007J-67905794D01*
G01*
X52811852Y-56883853D02*
G75*
G02*
X46848977Y-61887299I-52811921J56883937D01*
G01*
X-48849670Y29118837D02*
G75*
G03*
X-49642489Y27745636I48849770J-29118937D01*
G01*
X-48275079Y29240218D02*
G75*
G03*
X-49460311Y27187336I48274435J-29239847D01*
G01*
X35944445Y-44070328D02*
G75*
G03*
X37159113Y-43051100I-35949204J44075977D01*
G01*
X-34578229Y-71408555D02*
G75*
G02*
X-44552508Y-65649902I34578184J71408474D01*
G01*
X-14006966Y51115603D02*
G75*
G03*
X-22126518Y48160328I14006921J-51115483D01*
G01*
X29360119Y47698045D02*
G75*
G03*
X26627660Y49275630I-29359819J-47697545D01*
G01*
X47129937Y60041968D02*
G75*
G02*
X50945768Y56840106I-47130483J-60042626D01*
G01*
X21279590Y50412870D02*
G75*
G03*
X16103656Y52296756I-21279712J-50413202D01*
G01*
X51415668Y14532515D02*
G75*
G03*
X48728003Y21916800I-51415568J-14532515D01*
G01*
X71737720Y30749016D02*
G75*
G02*
X74719369Y22557005I-71737851J-30749071D01*
G01*
X-6777769Y54298621D02*
G75*
G03*
X-12202202Y53342149I6777769J-54298721D01*
G01*
X48160328Y-22126518D02*
G75*
G03*
X51115602Y-14006966I-48160208J22126468D01*
G01*
X-37255758Y-38896119D02*
G75*
G03*
X-31835805Y-43444000I37255619J38895949D01*
G01*
X78928543Y-8069742D02*
G75*
G02*
X76928584Y-19412074I-78928721J8069773D01*
G01*
X-30749016Y71737720D02*
G75*
G02*
X-22557007Y74719375I30749116J-71737820D01*
G01*
X45364549Y-29823845D02*
G75*
G03*
X48510478Y-24374928I-45364449J29823745D01*
G01*
X48510482Y24374930D02*
G75*
G03*
X45364553Y29823848I-48510382J-24374830D01*
G01*
X40913061Y-64947818D02*
G75*
G02*
X35789930Y-67905659I-40913138J64947953D01*
G01*
X22670300Y-47906758D02*
G75*
G03*
X30153320Y-43586435I-22670340J47906834D01*
G01*
X-47220316Y-59422654D02*
G75*
G02*
X-48787580Y-58142773I47224916J59428254D01*
G01*
X9628755Y77020461D02*
G75*
G02*
X17294479Y75668786I-9628655J-77019861D01*
G01*
X-52619183Y20413114D02*
G75*
G03*
X-53429929Y18185606I52617495J-20412485D01*
G01*
X-16103656Y52296756D02*
G75*
G03*
X-21279590Y50412871I16103756J-52297056D01*
G01*
X-40913061Y64947818D02*
G75*
G02*
X-35789931Y67905662I40913161J-64947918D01*
G01*
X25504126Y-48898487D02*
G75*
G03*
X29595269Y-46536465I-25504126J48898487D01*
G01*
X55099395Y-2362023D02*
G75*
G03*
X55099395Y2362023I-55099195J2362023D01*
G01*
X-53430369Y56894623D02*
G75*
G02*
X-46752180Y62498289I53430180J-56894397D01*
G01*
X39496504Y-37248225D02*
G75*
G03*
X43540837Y-32428377I-39496568J37248281D01*
G01*
X76289356Y2490607D02*
G75*
G02*
X76289356Y-2490607I-76290120J-2490607D01*
G01*
X75347703Y16763642D02*
G75*
G02*
X76537184Y10017761I-75347832J-16763667D01*
G01*
X-53158093Y-5383496D02*
G75*
G03*
X-51793534Y-13122308I53158193J5383496D01*
G01*
X75794240Y-21954983D02*
G75*
G02*
X72174150Y-31901107I-75794040J21954883D01*
G01*
X-37226623Y-40690307D02*
G75*
G03*
X-33607794Y-43726864I37226478J40690150D01*
G01*
X-21705705Y-49292616D02*
G75*
G03*
X-15057148Y-51712493I21705680J49292543D01*
G01*
X4918037Y-52771327D02*
G75*
G03*
X13427413Y-51270894I-4918047J52771367D01*
G01*
X-10017761Y-76537184D02*
G75*
G02*
X-16763642Y-75347705I10017761J76537284D01*
G01*
X-30045366Y-44181907D02*
G75*
G03*
X-23239972Y-48111009I30045466J44182007D01*
G01*
X-48705880Y-24940242D02*
G75*
G03*
X-45951823Y-29710408I48705880J24940242D01*
G01*
X-13122307Y-51793532D02*
G75*
G03*
X-5383496Y-53158091I13122307J51793632D01*
G01*
X29592956Y-71292027D02*
G75*
G02*
X23156112Y-73634846I-29593094J71292425D01*
G01*
X10965768Y55364479D02*
G75*
G03*
X8631316Y55776108I-10965568J-55363079D01*
G01*
X7241771Y-54672472D02*
G75*
G03*
X11894048Y-53852151I-7241671J54671972D01*
G01*
X30153320Y43586435D02*
G75*
G03*
X22670300Y47906758I-30153360J-43586511D01*
G01*
X-78331499Y-4825626D02*
G75*
G02*
X-78331499Y4825626I78331499J4825626D01*
G01*
X-44070328Y-35944445D02*
G75*
G03*
X-43051099Y-37159112I44075928J35949245D01*
G01*
X76303506Y18354436D02*
G75*
G02*
X77979429Y8849808I-76303733J-18354481D01*
G01*
X10406430Y76051324D02*
G75*
G02*
X16232239Y75024076I-10406494J-76051638D01*
G01*
X-52829088Y12509658D02*
G75*
G03*
X-53921659Y6313379I52828847J-12509614D01*
G01*
X35390619Y69082331D02*
G75*
G02*
X42131746Y65190344I-35390519J-69082231D01*
G01*
X56871204Y52191592D02*
G75*
G02*
X61274262Y46944225I-56870804J-52191192D01*
G01*
X-3145933Y-54198775D02*
G75*
G03*
X3145933Y-54198775I3145933J54198808D01*
G01*
X-77928189Y-4358878D02*
G75*
G02*
X-77928189Y4358878I77928018J4358878D01*
G01*
X-48898487Y-25504126D02*
G75*
G03*
X-46536465Y-29595269I48898487J25504120D01*
G01*
X26627660Y-49275631D02*
G75*
G03*
X29360119Y-47698045I-26627360J49275131D01*
G01*
X-19940015Y77237612D02*
G75*
G02*
X-7679334Y79399500I19940045J-77237802D01*
G01*
X-46554092Y-63714242D02*
G75*
G02*
X-54662245Y-56910692I46554192J63714342D01*
G01*
X37196751Y41875074D02*
G75*
G03*
X34779749Y43903179I-37196901J-41875263D01*
G01*
X12509658Y52829088D02*
G75*
G03*
X6313379Y53921659I-12509618J-52828848D01*
G01*
X-53342147Y12202202D02*
G75*
G03*
X-54298619Y6777769I53342247J-12202202D01*
G01*
X-3537623Y-53743696D02*
G75*
G03*
X3537623Y-53743696I3537623J53743852D01*
G01*
X16625528Y-52584354D02*
G75*
G03*
X21064677Y-50968633I-16625528J52584254D01*
G01*
X-42464162Y37178873D02*
G75*
G03*
X-43987866Y35362992I42464662J-37179273D01*
G01*
X-69082331Y35390619D02*
G75*
G02*
X-65190341Y42131744I69082198J-35390539D01*
G01*
X53852151Y-11894048D02*
G75*
G03*
X54672472Y-7241771I-53851651J11893948D01*
G01*
X48849670Y-29118837D02*
G75*
G03*
X49642488Y-27745636I-48849776J29118900D01*
G01*
X31901106Y-72174147D02*
G75*
G02*
X21954982Y-75794236I-31901006J72173947D01*
G01*
X-42131744Y65190341D02*
G75*
G02*
X-35390619Y69082331I42131664J-65190208D01*
G01*
X-30644808Y43242291D02*
G75*
G03*
X-37263927Y37688189I30644908J-43242391D01*
G01*
X65308352Y42738994D02*
G75*
G02*
X69667232Y35189195I-65308152J-42738894D01*
G01*
X77113978Y3424973D02*
G75*
G02*
X77113978Y-3424973I-77113578J-3424973D01*
G01*
X-77522363Y-3891990D02*
G75*
G02*
X-77522363Y3891990I77522113J3891990D01*
G01*
X-77113978Y-3424973D02*
G75*
G02*
X-77113978Y3424973I77113603J3424973D01*
G01*
X-74178332Y22856935D02*
G75*
G02*
X-71516057Y30171485I74178432J-22856935D01*
G01*
X49642488Y27745636D02*
G75*
G03*
X48849670Y29118837I-49642594J-27745699D01*
G01*
X-75562838Y10794739D02*
G75*
G02*
X-74697860Y15700277I75562938J-10794739D01*
G01*
X-21916802Y-48728007D02*
G75*
G03*
X-14532515Y-51415668I21916774J48727923D01*
G01*
X43242291Y30644808D02*
G75*
G03*
X37688190Y37263928I-43242406J-30644904D01*
G01*
X73088876Y-23454506D02*
G75*
G02*
X71065590Y-29013428I-73088476J23454406D01*
G01*
X51521572Y-20848597D02*
G75*
G03*
X52869035Y-17146476I-51520972J20848397D01*
G01*
X54672472Y7241771D02*
G75*
G03*
X53852151Y11894048I-54671972J-7241671D01*
G01*
X-7705371Y55043289D02*
G75*
G03*
X-11585233Y54359166I7705371J-55043389D01*
G01*
X76617229Y18883547D02*
G75*
G02*
X78455200Y8459906I-76617129J-18883547D01*
G01*
X75562838Y-10794739D02*
G75*
G02*
X74697860Y-15700277I-75562964J10794750D01*
G01*
X-43949365Y65538091D02*
G75*
G02*
X-34782969Y70830312I43949209J-65537824D01*
G01*
X-21954983Y-75794240D02*
G75*
G02*
X-31901106Y-72174147I21954896J75793995D01*
G01*
X-75071686Y11182666D02*
G75*
G02*
X-74746908Y13179897I75071139J-11182606D01*
G01*
X38293361Y-37261017D02*
G75*
G03*
X43344509Y-31241290I-38293261J37260917D01*
G01*
X24374930Y-48510482D02*
G75*
G03*
X29823848Y-45364553I-24374830J48510382D01*
G01*
X-79526746Y-6224911D02*
G75*
G02*
X-79526746Y6224911I79526636J6224911D01*
G01*
X-27851370Y70605320D02*
G75*
G02*
X-25959329Y71322671I27853170J-70609920D01*
G01*
X31325556Y-71957070D02*
G75*
G02*
X22256346Y-75257997I-31325556J71956970D01*
G01*
X79130737Y5758653D02*
G75*
G02*
X79130737Y-5758653I-79130791J-5758653D01*
G01*
X37248225Y39496504D02*
G75*
G03*
X32428377Y43540837I-37248281J-39496568D01*
G01*
X-49275631Y-26627660D02*
G75*
G03*
X-47698045Y-29360119I49275105J26627357D01*
G01*
X-31835805Y43444000D02*
G75*
G03*
X-37255758Y38896119I31835666J-43443830D01*
G01*
X-71984638Y34372443D02*
G75*
G02*
X-65759723Y45154301I71984738J-34372543D01*
G01*
X59422654Y-47220316D02*
G75*
G02*
X58142773Y-48787580I-59428298J47224937D01*
G01*
X76328145Y-21652942D02*
G75*
G02*
X72388994Y-32475670I-76328025J21652902D01*
G01*
X-11182666Y-75071686D02*
G75*
G02*
X-13179897Y-74746908I11182606J75071139D01*
G01*
X-70605320Y-27851370D02*
G75*
G02*
X-71322671Y-25959329I70609920J27853170D01*
G01*
X-22256345Y-75257993D02*
G75*
G02*
X-31325556Y-71957070I22256307J75257887D01*
G01*
X48312217Y23808176D02*
G75*
G03*
X44774588Y29935515I-48312117J-23808176D01*
G01*
X-9239431Y-77501196D02*
G75*
G02*
X-17824745Y-75987375I9239431J77501296D01*
G01*
X-9628755Y-77020461D02*
G75*
G02*
X-17294479Y-75668787I9628656J77019898D01*
G01*
X74697860Y15700277D02*
G75*
G02*
X75562838Y10794739I-74697986J-15700288D01*
G01*
X64947818Y40913061D02*
G75*
G02*
X67905659Y35789930I-64947953J-40913138D01*
G01*
X47220316Y59422654D02*
G75*
G02*
X48787580Y58142773I-47224937J-59428298D01*
G01*
X70836707Y28432901D02*
G75*
G02*
X72540384Y23752092I-70835807J-28432601D01*
G01*
X-34779749Y43903179D02*
G75*
G03*
X-37196753Y41875076I34779849J-43903379D01*
G01*
X-75873028Y-2023285D02*
G75*
G02*
X-75900000Y0I75870829J2023241D01*
G01*
X52296756Y16103656D02*
G75*
G03*
X50412870Y21279590I-52297088J-16103778D01*
G01*
X6777769Y-54298621D02*
G75*
G03*
X12202202Y-53342147I-6777795J54298759D01*
G01*
X29710408Y45951823D02*
G75*
G03*
X24940242Y48705880I-29710440J-45951872D01*
G01*
X78455198Y-8459906D02*
G75*
G02*
X76617227Y-18883546I-78455098J8459906D01*
G01*
X-2490607Y76289356D02*
G75*
G02*
X2490607Y76289356I2490607J-76290120D01*
G01*
X48111004Y23239970D02*
G75*
G03*
X44181907Y30045366I-48111148J-23240052D01*
G01*
X74719369Y-22557005D02*
G75*
G02*
X71737720Y-30749016I-74719500J22557060D01*
G01*
X-32428377Y43540837D02*
G75*
G03*
X-37248224Y39496503I32428477J-43540937D01*
G01*
X55887365Y-56919727D02*
G75*
G02*
X46350248Y-64922316I-55887265J56919627D01*
G01*
X47906758Y22670300D02*
G75*
G03*
X43586435Y30153320I-47906834J-22670340D01*
G01*
X-46536465Y29595269D02*
G75*
G03*
X-48898487Y25504126I46536465J-29595263D01*
G01*
X75987374Y17824745D02*
G75*
G02*
X77501196Y9239431I-75987497J-17824762D01*
G01*
X-46944228Y-61274265D02*
G75*
G02*
X-52191592Y-56871204I46943866J61273837D01*
G01*
X65649902Y44552508D02*
G75*
G02*
X71408561Y34578232I-65649802J-44552508D01*
G01*
X60659163Y-47037894D02*
G75*
G02*
X56856636Y-51569570I-60659254J47037962D01*
G01*
X46848977Y61887299D02*
G75*
G02*
X52811852Y56883853I-46849046J-61887383D01*
G01*
X-56894623Y-53430369D02*
G75*
G02*
X-62498289Y-46752180I56894397J53430180D01*
G01*
X52191592Y-56871204D02*
G75*
G02*
X46944225Y-61274262I-52191192J56870804D01*
G01*
X-56910693Y-54662246D02*
G75*
G02*
X-63714243Y-46554093I56910793J54662346D01*
G01*
X-52006161Y-15580863D02*
G75*
G03*
X-49854216Y-21493283I52006129J15580852D01*
G01*
X-13427413Y-51270894D02*
G75*
G03*
X-4918037Y-52771327I13427413J51270894D01*
G01*
X-51569570Y56856636D02*
G75*
G02*
X-47037895Y60659164I51569670J-56856736D01*
G01*
X50968636Y-21064678D02*
G75*
G03*
X52584357Y-16625529I-50968536J21064678D01*
G01*
X-54650650Y2754057D02*
G75*
G03*
X-54650650Y-2754057I54650473J-2754057D01*
G01*
X-18883547Y76617229D02*
G75*
G02*
X-8459906Y78455198I18883533J-76617157D01*
G01*
X-20413114Y-52619183D02*
G75*
G03*
X-18185606Y-53429929I20412485J52617495D01*
G01*
X23808176Y-48312217D02*
G75*
G03*
X29935515Y-44774588I-23808176J48312117D01*
G01*
X-48111004Y-23239970D02*
G75*
G03*
X-44181902Y-30045363I48111104J23240070D01*
G01*
X-75668787Y-17294479D02*
G75*
G02*
X-77020461Y-9628755I75668224J17294380D01*
G01*
X-77501196Y9239431D02*
G75*
G02*
X-75987375Y17824745I77501296J-9239431D01*
G01*
X43344511Y31241291D02*
G75*
G03*
X38293362Y37261018I-43344411J-31241191D01*
G01*
X-33049252Y72601652D02*
G75*
G02*
X-21350248Y76859746I33049352J-72601852D01*
G01*
X-53852151Y11894048D02*
G75*
G03*
X-54672472Y7241771I53851644J-11893947D01*
G01*
X67313823Y-35987749D02*
G75*
G02*
X64823217Y-40301607I-67314111J35987899D01*
G01*
X-53743696Y3537623D02*
G75*
G03*
X-53743696Y-3537623I53743896J-3537623D01*
G01*
X68495151Y-35590875D02*
G75*
G02*
X65070178Y-41523103I-68495209J35590904D01*
G01*
X-71408555Y34578229D02*
G75*
G02*
X-65649902Y44552508I71408474J-34578184D01*
G01*
X-51712493Y-15057148D02*
G75*
G03*
X-49292616Y-21705705I51712420J15057123D01*
G01*
%TD*%
M02*
