M48
; DRILL file KiCad 10.0.6-10.0.6~ubuntu24.04.1 date 2026-09-02T13:52:10
; FORMAT={-:-/ absolute / metric / decimal}
; #@! TF.CreationDate,2026-09-02T13:52:10+00:00
; #@! TF.GenerationSoftware,Kicad,Pcbnew,10.0.6-10.0.6~ubuntu24.04.1
; #@! TF.FileFunction,MixedPlating,1,12
FMAT,2
METRIC
; #@! TA.AperFunction,Plated,PTH,ViaDrill
T1C0.300
; #@! TA.AperFunction,Plated,PTH,ComponentDrill
T2C1.000
%
G90
G05
T1
X-80.638Y6.5
X-80.638Y-6.5
X-80.542Y7.601
X-80.542Y-7.601
X-78.285Y20.404
X-78.285Y-20.404
X-77.999Y21.472
X-77.999Y-21.472
X-73.552Y33.688
X-73.552Y-33.688
X-73.085Y34.69
X-73.085Y-34.69
X-66.6Y0.0
X-66.585Y45.949
X-66.585Y-45.949
X-65.951Y46.854
X-65.951Y-46.854
X-65.588Y11.565
X-65.588Y-11.565
X-62.584Y22.779
X-62.584Y-22.779
X-57.677Y33.3
X-57.677Y-33.3
X-57.594Y56.813
X-57.594Y-56.813
X-56.813Y57.594
X-56.813Y-57.594
X-51.019Y42.81
X-51.019Y-42.81
X-46.854Y65.951
X-46.854Y-65.951
X-45.949Y66.585
X-45.949Y-66.585
X-42.81Y51.019
X-42.81Y-51.019
X-34.69Y73.085
X-34.69Y-73.085
X-33.688Y73.552
X-33.688Y-73.552
X-33.3Y57.677
X-33.3Y-57.677
X-22.779Y62.584
X-22.779Y-62.584
X-21.472Y77.999
X-21.472Y-77.999
X-20.404Y78.285
X-20.404Y-78.285
X-11.565Y65.588
X-11.565Y-65.588
X-7.601Y80.542
X-7.601Y-80.542
X-6.5Y80.638
X-6.5Y-80.638
X0.0Y66.6
X0.0Y-66.6
X6.5Y80.638
X6.5Y-80.638
X7.601Y80.542
X7.601Y-80.542
X11.565Y65.588
X11.565Y-65.588
X20.404Y78.285
X20.404Y-78.285
X21.472Y77.999
X21.472Y-77.999
X22.779Y62.584
X22.779Y-62.584
X33.3Y57.677
X33.3Y-57.677
X33.688Y73.552
X33.688Y-73.552
X34.69Y73.085
X34.69Y-73.085
X42.81Y51.019
X42.81Y-51.019
X45.949Y66.585
X45.949Y-66.585
X46.854Y65.951
X46.854Y-65.951
X51.019Y42.81
X51.019Y-42.81
X56.813Y57.594
X56.813Y-57.594
X57.594Y56.813
X57.594Y-56.813
X57.677Y33.3
X57.677Y-33.3
X62.584Y22.779
X62.584Y-22.779
X65.588Y11.565
X65.588Y-11.565
X65.951Y46.854
X65.951Y-46.854
X66.585Y45.949
X66.585Y-45.949
X66.6Y0.0
X73.085Y34.69
X73.085Y-34.69
X73.552Y33.688
X73.552Y-33.688
X77.999Y21.472
X77.999Y-21.472
X78.285Y20.404
X78.285Y-20.404
X80.542Y7.601
X80.542Y-7.601
X80.638Y6.5
X80.638Y-6.5
T2
X-75.933Y-40.375
X3.001Y85.948
X72.932Y-45.573
M30
