M48
; DRILL file KiCad 10.0.6-10.0.6~ubuntu24.04.1 date 2026-09-02T19:04:25
; FORMAT={-:-/ absolute / metric / decimal}
; #@! TF.CreationDate,2026-09-02T19:04:25+00:00
; #@! TF.GenerationSoftware,Kicad,Pcbnew,10.0.6-10.0.6~ubuntu24.04.1
; #@! TF.FileFunction,MixedPlating,1,12
FMAT,2
METRIC
; #@! TA.AperFunction,Plated,PTH,ViaDrill
T1C0.300
; #@! TA.AperFunction,Plated,PTH,ComponentDrill
T2C1.000
%
G90
G05
T1
X-85.022Y6.884
X-85.022Y-6.884
X-84.925Y7.985
X-84.925Y-7.985
X-82.535Y21.543
X-82.535Y-21.543
X-82.249Y22.61
X-82.249Y-22.61
X-77.54Y35.548
X-77.54Y-35.548
X-77.073Y36.549
X-77.073Y-36.549
X-70.189Y48.472
X-70.189Y-48.472
X-69.555Y49.378
X-69.555Y-49.378
X-68.8Y0.0
X-67.755Y11.947
X-67.755Y-11.947
X-64.651Y23.531
X-64.651Y-23.531
X-60.706Y59.924
X-60.706Y-59.924
X-59.924Y60.706
X-59.924Y-60.706
X-59.583Y34.4
X-59.583Y-34.4
X-52.704Y44.224
X-52.704Y-44.224
X-49.378Y69.555
X-49.378Y-69.555
X-48.472Y70.189
X-48.472Y-70.189
X-44.224Y52.704
X-44.224Y-52.704
X-36.549Y77.073
X-36.549Y-77.073
X-35.548Y77.54
X-35.548Y-77.54
X-34.4Y59.583
X-34.4Y-59.583
X-23.531Y64.651
X-23.531Y-64.651
X-22.61Y82.249
X-22.61Y-82.249
X-21.543Y82.535
X-21.543Y-82.535
X-11.947Y67.755
X-11.947Y-67.755
X-7.985Y84.925
X-7.985Y-84.925
X-6.884Y85.022
X-6.884Y-85.022
X0.0Y68.8
X0.0Y-68.8
X6.884Y85.022
X6.884Y-85.022
X7.985Y84.925
X7.985Y-84.925
X11.947Y67.755
X11.947Y-67.755
X21.543Y82.535
X21.543Y-82.535
X22.61Y82.249
X22.61Y-82.249
X23.531Y64.651
X23.531Y-64.651
X34.4Y59.583
X34.4Y-59.583
X35.548Y77.54
X35.548Y-77.54
X36.549Y77.073
X36.549Y-77.073
X44.224Y52.704
X44.224Y-52.704
X48.472Y70.189
X48.472Y-70.189
X49.378Y69.555
X49.378Y-69.555
X52.704Y44.224
X52.704Y-44.224
X59.583Y34.4
X59.583Y-34.4
X59.924Y60.706
X59.924Y-60.706
X60.706Y59.924
X60.706Y-59.924
X64.651Y23.531
X64.651Y-23.531
X67.755Y11.947
X67.755Y-11.947
X68.8Y0.0
X69.555Y49.378
X69.555Y-49.378
X70.189Y48.472
X70.189Y-48.472
X77.073Y36.549
X77.073Y-36.549
X77.54Y35.548
X77.54Y-35.548
X82.249Y22.61
X82.249Y-22.61
X82.535Y21.543
X82.535Y-21.543
X84.925Y7.985
X84.925Y-7.985
X85.022Y6.884
X85.022Y-6.884
T2
X-79.818Y-42.44
X3.155Y90.345
X76.664Y-47.905
M30
